SplineFontDB: 3.0
FontName: AitonUnicode
FullName: Aiton Unicode
FamilyName: Aiton Unicode
Weight: Medium
Copyright: Copyright (c) 2014 Stephen Morey, licensed under the OFL 1.1. http://scripts.sil.org/OFL_Web
Version: 1.1000
DefaultBaseFilename: AitonUni
ItalicAngle: 0
UnderlinePosition: -100
UnderlineWidth: 50
Ascent: 800
Descent: 200
sfntRevision: 0x00010000
LayerCount: 2
Layer: 0 1 "Back"  1
Layer: 1 1 "Fore"  0
XUID: [1021 472 -484738075 6420382]
FSType: 0
OS2Version: 1
OS2_WeightWidthSlopeOnly: 0
OS2_UseTypoMetrics: 1
CreationTime: 1257921800
ModificationTime: 1408341922
PfmFamily: 17
TTFWeight: 500
TTFWidth: 5
LineGap: 90
VLineGap: 0
Panose: 2 0 6 3 0 0 0 0 0 0
OS2TypoAscent: 800
OS2TypoAOffset: 0
OS2TypoDescent: -200
OS2TypoDOffset: 0
OS2TypoLinegap: 90
OS2WinAscent: 1690
OS2WinAOffset: 0
OS2WinDescent: 954
OS2WinDOffset: 0
HheadAscent: 1690
HheadAOffset: 0
HheadDescent: -954
HheadDOffset: 0
OS2SubXSize: 650
OS2SubYSize: 699
OS2SubXOff: 0
OS2SubYOff: 140
OS2SupXSize: 650
OS2SupYSize: 699
OS2SupXOff: 0
OS2SupYOff: 479
OS2StrikeYSize: 49
OS2StrikeYPos: 258
OS2Vendor: 'SM  '
OS2CodePages: 00000001.00000000
OS2UnicodeRanges: 80000000.00002000.00000400.00000000
Lookup: 2 0 0 "Multiple Substitution lookup 0"  {"Multiple Substitution lookup 0 subtable"  } []
Lookup: 2 0 0 "Multiple Substitution lookup 1"  {"Multiple Substitution lookup 1 subtable"  } []
Lookup: 2 0 0 "Multiple Substitution lookup 2"  {"Multiple Substitution lookup 2 subtable"  } []
Lookup: 4 0 0 "'clig' Contextual Ligatures lookup 3"  {"'clig' Contextual Ligatures lookup 3 subtable"  } ['clig' ('DFLT' <'dflt' > 'geor' <'dflt' > 'mymr' <'dflt' > ) ]
Lookup: 6 0 0 "'clig' Contextual Ligatures lookup 4"  {"'clig' Contextual Ligatures lookup 4 subtable"  } ['clig' ('DFLT' <'dflt' > 'geor' <'dflt' > 'mymr' <'dflt' > ) ]
Lookup: 4 0 0 "'clig' Contextual Ligatures lookup 5"  {"'clig' Contextual Ligatures lookup 5 subtable"  } ['clig' ('DFLT' <'dflt' > 'geor' <'dflt' > 'mymr' <'dflt' > ) ]

StartChar: .notdef
Encoding: 65536 -1 0
Width: 218
VWidth: 600
Flags: W
LayerCount: 2
Fore
SplineSet
19.7998046875 0 m 1,0,-1
 19.7998046875 399.599609375 l 1,1,-1
 178.799804688 399.599609375 l 1,2,-1
 178.799804688 0 l 1,3,-1
 19.7998046875 0 l 1,0,-1
39.599609375 19.7998046875 m 1,4,-1
 159 19.7998046875 l 1,5,-1
 159 379.799804688 l 1,6,-1
 39.599609375 379.799804688 l 1,7,-1
 39.599609375 19.7998046875 l 1,4,-1
EndSplineSet
EndChar

StartChar: u1000
Encoding: 4096 4096 3
Width: 916
VWidth: 600
GlyphClass: 3
Flags: W
AnchorPoint: "Anchor-3" 643.2 416.4 basechar 0
AnchorPoint: "Anchor-2" 444 0 basechar 0
AnchorPoint: "Anchor-1" 724.2 -4.7998 basechar 0
AnchorPoint: "Anchor-0" 787.8 0 basechar 0
LayerCount: 2
Fore
SplineSet
765.599609375 -1.2001953125 m 1,0,1
 760.799804688 -4.2001953125 760.799804688 -4.2001953125 758.700195312 -2.099609375 c 128,-1,2
 756.599609375 0 756.599609375 0 750 0 c 0,3,4
 700.200195312 0 700.200195312 0 688.799804688 10.2001953125 c 0,5,6
 666 30 666 30 666 59.400390625 c 0,7,8
 666 92.400390625 666 92.400390625 688.799804688 109.799804688 c 0,9,10
 706.799804688 124.200195312 706.799804688 124.200195312 729 124.200195312 c 0,11,12
 748.200195312 124.200195312 748.200195312 124.200195312 763.200195312 114.599609375 c 0,13,14
 776.400390625 106.799804688 776.400390625 106.799804688 788.400390625 90 c 1,15,16
 802.799804688 115.200195312 802.799804688 115.200195312 810 144 c 1,17,-1
 814.799804688 167.400390625 l 1,18,-1
 814.799804688 207.599609375 l 2,19,20
 814.799804688 281.400390625 814.799804688 281.400390625 762 334.200195312 c 128,-1,21
 709.200195312 387 709.200195312 387 640.200195312 387 c 2,22,-1
 618 387 l 1,23,-1
 601.200195312 384 l 1,24,25
 594.599609375 384 594.599609375 384 576.900390625 375.599609375 c 128,-1,26
 559.200195312 367.200195312 559.200195312 367.200195312 520.200195312 339 c 1,27,28
 484.200195312 313.799804688 484.200195312 313.799804688 469.799804688 222 c 0,29,30
 462.599609375 173.400390625 462.599609375 173.400390625 462.599609375 91.7998046875 c 1,31,-1
 441.599609375 91.7998046875 l 1,32,-1
 443.400390625 92.400390625 l 1,33,-1
 437.400390625 93.599609375 l 1,34,-1
 435.599609375 160.799804688 l 1,35,-1
 433.799804688 186.599609375 l 1,36,-1
 429.599609375 217.200195312 l 1,37,38
 415.200195312 306.599609375 415.200195312 306.599609375 374.400390625 340.200195312 c 0,39,40
 349.799804688 361.200195312 349.799804688 361.200195312 317.400390625 379.200195312 c 1,41,42
 300 385.799804688 300 385.799804688 283.799804688 390 c 1,43,44
 274.200195312 391.799804688 274.200195312 391.799804688 267 393 c 128,-1,45
 259.799804688 394.200195312 259.799804688 394.200195312 252 394.200195312 c 0,46,47
 182.400390625 394.200195312 182.400390625 394.200195312 129.900390625 341.700195312 c 128,-1,48
 77.400390625 289.200195312 77.400390625 289.200195312 77.400390625 214.799804688 c 2,49,-1
 77.400390625 174.599609375 l 1,50,-1
 82.2001953125 151.200195312 l 1,51,-1
 91.2001953125 128.400390625 l 1,52,-1
 106.200195312 106.200195312 l 1,53,-1
 131.400390625 123 l 1,54,55
 146.400390625 131.400390625 146.400390625 131.400390625 156.599609375 131.400390625 c 0,56,57
 172.200195312 131.400390625 172.200195312 131.400390625 196.799804688 117 c 1,58,59
 219.599609375 99 219.599609375 99 219.599609375 66.599609375 c 0,60,61
 219.599609375 37.7998046875 219.599609375 37.7998046875 196.799804688 17.400390625 c 0,62,63
 193.200195312 13.7998046875 193.200195312 13.7998046875 177 4.2001953125 c 1,64,-1
 156.599609375 0 l 1,65,66
 129.599609375 0 129.599609375 0 120.599609375 5.400390625 c 1,67,-1
 99 25.2001953125 l 2,68,69
 93.599609375 30 93.599609375 30 82.7998046875 46.7998046875 c 1,70,-1
 70.2001953125 67.7998046875 l 1,71,72
 55.7998046875 88.7998046875 55.7998046875 88.7998046875 44.400390625 137.400390625 c 1,73,-1
 37.7998046875 177 l 1,74,-1
 35.400390625 214.799804688 l 1,75,76
 35.400390625 293.400390625 35.400390625 293.400390625 98.400390625 364.200195312 c 128,-1,77
 161.400390625 435 161.400390625 435 252 435 c 0,78,79
 309.599609375 435 309.599609375 435 361.5 402.299804688 c 128,-1,80
 413.400390625 369.599609375 413.400390625 369.599609375 450 309.599609375 c 1,81,82
 456.599609375 326.400390625 456.599609375 326.400390625 478.799804688 355.799804688 c 1,83,84
 490.200195312 369 490.200195312 369 526.200195312 398.400390625 c 1,85,-1
 556.799804688 411 l 1,86,-1
 585 420 l 1,87,-1
 615 424.799804688 l 1,88,-1
 640.200195312 427.799804688 l 1,89,90
 726.599609375 427.799804688 726.599609375 427.799804688 791.400390625 359.099609375 c 128,-1,91
 856.200195312 290.400390625 856.200195312 290.400390625 856.200195312 207.599609375 c 1,92,-1
 853.799804688 169.799804688 l 1,93,-1
 847.799804688 130.200195312 l 1,94,95
 837.599609375 86.400390625 837.599609375 86.400390625 822 60 c 1,96,97
 802.200195312 29.400390625 802.200195312 29.400390625 787.799804688 18.599609375 c 1,98,-1
 765.599609375 -1.2001953125 l 1,0,1
EndSplineSet
Ligature2: "'clig' Contextual Ligatures lookup 7 subtable" u1000 u103C
Ligature2: "'clig' Contextual Ligatures lookup 5 subtable" u1000 u1031
MultipleSubs2: "Multiple Substitution lookup 2 subtable" guard u103C u1000
MultipleSubs2: "Multiple Substitution lookup 1 subtable" guard u103C.udia u1000
MultipleSubs2: "Multiple Substitution lookup 0 subtable" guard u1031 u1000
EndChar

StartChar: u1004
Encoding: 4100 4100 4
Width: 403
VWidth: 600
GlyphClass: 3
Flags: W
AnchorPoint: "Anchor-3" 229.2 416.4 basechar 0
AnchorPoint: "Anchor-2" 222 0 basechar 0
AnchorPoint: "Anchor-1" 222 0 basechar 0
LayerCount: 2
Fore
SplineSet
372.599609375 34.2001953125 m 1,0,1
 369 27.599609375 369 27.599609375 351.599609375 16.7998046875 c 1,2,-1
 318 8.400390625 l 1,3,-1
 289.799804688 2.400390625 l 1,4,-1
 256.799804688 0 l 1,5,6
 211.799804688 -1.2001953125 211.799804688 -1.2001953125 176.099609375 13.7998046875 c 128,-1,7
 140.400390625 28.7998046875 140.400390625 28.7998046875 100.799804688 61.2001953125 c 1,8,9
 70.2001953125 91.2001953125 70.2001953125 91.2001953125 52.2001953125 129.599609375 c 1,10,11
 43.7998046875 150 43.7998046875 150 39.599609375 169.799804688 c 1,12,-1
 36.599609375 190.200195312 l 1,13,-1
 35.400390625 213.599609375 l 1,14,15
 35.400390625 301.799804688 35.400390625 301.799804688 98.400390625 368.400390625 c 0,16,17
 130.799804688 402.599609375 130.799804688 402.599609375 166.799804688 418.799804688 c 0,18,19
 185.400390625 427.200195312 185.400390625 427.200195312 204 431.400390625 c 0,20,21
 213.599609375 433.200195312 213.599609375 433.200195312 223.200195312 434.400390625 c 128,-1,22
 232.799804688 435.599609375 232.799804688 435.599609375 244.799804688 435.599609375 c 0,23,24
 260.400390625 435.599609375 260.400390625 435.599609375 276.599609375 417.599609375 c 1,25,26
 281.400390625 411 281.400390625 411 285.900390625 398.700195312 c 128,-1,27
 290.400390625 386.400390625 290.400390625 386.400390625 290.400390625 375.599609375 c 0,28,29
 290.400390625 355.200195312 290.400390625 355.200195312 287.400390625 350.400390625 c 1,30,31
 287.400390625 347.400390625 287.400390625 347.400390625 276.599609375 325.799804688 c 1,32,33
 264.599609375 309 264.599609375 309 234 290.400390625 c 1,34,35
 208.799804688 279.599609375 208.799804688 279.599609375 183 279.599609375 c 0,36,37
 176.400390625 279.599609375 176.400390625 279.599609375 161.700195312 283.200195312 c 128,-1,38
 147 286.799804688 147 286.799804688 135 300.900390625 c 128,-1,39
 123 315 123 315 118.799804688 315 c 0,40,41
 102.599609375 315 102.599609375 315 90 284.099609375 c 128,-1,42
 77.400390625 253.200195312 77.400390625 253.200195312 77.400390625 213.599609375 c 0,43,44
 77.400390625 148.200195312 77.400390625 148.200195312 129 91.2001953125 c 1,45,46
 180.599609375 40.7998046875 180.599609375 40.7998046875 256.799804688 40.7998046875 c 1,47,-1
 288.599609375 41.400390625 l 1,48,-1
 311.400390625 45.599609375 l 2,49,50
 337.200195312 50.400390625 337.200195312 50.400390625 354.599609375 64.7998046875 c 1,51,-1
 367.200195312 53.400390625 l 1,52,-1
 369.599609375 48.599609375 l 1,53,-1
 373.799804688 40.7998046875 l 1,54,-1
 372.599609375 34.2001953125 l 1,0,1
EndSplineSet
Ligature2: "'clig' Contextual Ligatures lookup 7 subtable" u1004 u103C
Ligature2: "'clig' Contextual Ligatures lookup 5 subtable" u1004 u1031
MultipleSubs2: "Multiple Substitution lookup 2 subtable" guard u103C.nar u1004
MultipleSubs2: "Multiple Substitution lookup 1 subtable" guard u103C.nar.udia u1004
MultipleSubs2: "Multiple Substitution lookup 0 subtable" guard u1031 u1004
EndChar

StartChar: u1010
Encoding: 4112 4112 5
Width: 898
VWidth: 600
GlyphClass: 3
Flags: W
AnchorPoint: "Anchor-3" 650.4 416.4 basechar 0
AnchorPoint: "Anchor-2" 446.4 0 basechar 0
AnchorPoint: "Anchor-1" 686.4 0 basechar 0
LayerCount: 2
Fore
SplineSet
614.400390625 4.7998046875 m 1,0,-1
 598.200195312 10.7998046875 l 1,1,-1
 586.200195312 30.599609375 l 2,2,3
 581.400390625 39 581.400390625 39 581.400390625 51.599609375 c 0,4,5
 581.400390625 58.2001953125 581.400390625 58.2001953125 586.799804688 69.2998046875 c 128,-1,6
 592.200195312 80.400390625 592.200195312 80.400390625 605.400390625 94.7998046875 c 1,7,8
 610.799804688 98.400390625 610.799804688 98.400390625 618.599609375 100.200195312 c 1,9,-1
 630.599609375 102 l 1,10,11
 643.799804688 102 643.799804688 102 652.200195312 95.400390625 c 1,12,13
 661.200195312 90 661.200195312 90 669 78.599609375 c 1,14,-1
 670.799804688 69.599609375 l 1,15,-1
 672 54 l 1,16,-1
 672 43.7998046875 l 1,17,-1
 671.400390625 37.7998046875 l 1,18,19
 689.400390625 37.7998046875 689.400390625 37.7998046875 708.299804688 45 c 128,-1,20
 727.200195312 52.2001953125 727.200195312 52.2001953125 768 92.400390625 c 0,21,22
 822 144.599609375 822 144.599609375 822 219 c 0,23,24
 822 292.799804688 822 292.799804688 768 341.400390625 c 1,25,26
 718.200195312 394.200195312 718.200195312 394.200195312 645 394.200195312 c 0,27,28
 574.799804688 394.200195312 574.799804688 394.200195312 522 341.400390625 c 128,-1,29
 469.200195312 288.599609375 469.200195312 288.599609375 469.200195312 214.799804688 c 0,30,31
 469.200195312 115.799804688 469.200195312 115.799804688 397.200195312 52.7998046875 c 1,32,-1
 369.599609375 35.400390625 l 1,33,-1
 330 13.7998046875 l 1,34,-1
 314.400390625 8.400390625 l 1,35,-1
 290.400390625 3 l 1,36,-1
 268.799804688 0 l 1,37,-1
 255.599609375 0 l 2,38,39
 171 0 171 0 103.200195312 61.5 c 128,-1,40
 35.400390625 123 35.400390625 123 35.400390625 214.799804688 c 0,41,42
 35.400390625 293.400390625 35.400390625 293.400390625 98.400390625 364.200195312 c 128,-1,43
 161.400390625 435 161.400390625 435 252 435 c 0,44,45
 309.599609375 435 309.599609375 435 361.5 402.299804688 c 128,-1,46
 413.400390625 369.599609375 413.400390625 369.599609375 450 309.599609375 c 1,47,48
 456.599609375 326.400390625 456.599609375 326.400390625 478.799804688 355.799804688 c 1,49,50
 490.200195312 369 490.200195312 369 526.200195312 398.400390625 c 1,51,52
 586.799804688 435 586.799804688 435 645 435 c 0,53,54
 727.799804688 435 727.799804688 435 795.299804688 373.5 c 128,-1,55
 862.799804688 312 862.799804688 312 862.799804688 219 c 0,56,57
 862.799804688 134.400390625 862.799804688 134.400390625 801 67.2001953125 c 128,-1,58
 739.200195312 0 739.200195312 0 647.400390625 0 c 1,59,-1
 634.200195312 1.2001953125 l 1,60,-1
 614.400390625 4.7998046875 l 1,0,-1
429 219 m 0,61,62
 429 288.599609375 429 288.599609375 376.200195312 341.400390625 c 0,63,64
 348.599609375 369 348.599609375 369 319.200195312 381 c 1,65,-1
 287.400390625 390.599609375 l 1,66,67
 271.200195312 394.200195312 271.200195312 394.200195312 252 394.200195312 c 0,68,69
 181.799804688 394.200195312 181.799804688 394.200195312 129 341.400390625 c 0,70,71
 124.799804688 337.200195312 124.799804688 337.200195312 97.2001953125 295.799804688 c 1,72,73
 81 265.200195312 81 265.200195312 77.400390625 244.799804688 c 1,74,75
 106.200195312 280.799804688 106.200195312 280.799804688 138.599609375 280.799804688 c 0,76,77
 160.799804688 280.799804688 160.799804688 280.799804688 178.200195312 265.799804688 c 1,78,79
 201 247.799804688 201 247.799804688 201 214.799804688 c 0,80,81
 201 186 201 186 178.200195312 165.599609375 c 0,82,83
 174.599609375 162 174.599609375 162 158.400390625 152.400390625 c 1,84,-1
 138 148.200195312 l 1,85,86
 111 148.200195312 111 148.200195312 102 153.599609375 c 1,87,-1
 80.400390625 173.400390625 l 1,88,-1
 100.200195312 133.200195312 l 1,89,-1
 114 111 l 1,90,-1
 129 92.400390625 l 1,91,92
 177.599609375 40.7998046875 177.599609375 40.7998046875 255.599609375 40.7998046875 c 0,93,94
 325.799804688 40.7998046875 325.799804688 40.7998046875 377.400390625 92.400390625 c 128,-1,95
 429 144 429 144 429 219 c 0,61,62
EndSplineSet
Ligature2: "'clig' Contextual Ligatures lookup 7 subtable" u1010 u103C
Ligature2: "'clig' Contextual Ligatures lookup 5 subtable" u1010 u1031
MultipleSubs2: "Multiple Substitution lookup 2 subtable" guard u103C u1010
MultipleSubs2: "Multiple Substitution lookup 1 subtable" guard u103C.udia u1010
MultipleSubs2: "Multiple Substitution lookup 0 subtable" guard u1031 u1010
EndChar

StartChar: u1011
Encoding: 4113 4113 6
Width: 898
VWidth: 600
GlyphClass: 3
Flags: W
AnchorPoint: "Anchor-3" 648 416.4 basechar 0
AnchorPoint: "Anchor-2" 446.4 0 basechar 0
AnchorPoint: "Anchor-1" 648 0 basechar 0
LayerCount: 2
Fore
SplineSet
822 219 m 0,0,1
 822 292.799804688 822 292.799804688 768 341.400390625 c 1,2,3
 718.200195312 394.200195312 718.200195312 394.200195312 645 394.200195312 c 0,4,5
 574.799804688 394.200195312 574.799804688 394.200195312 522 341.400390625 c 128,-1,6
 469.200195312 288.599609375 469.200195312 288.599609375 469.200195312 214.799804688 c 0,7,8
 469.200195312 141.599609375 469.200195312 141.599609375 522 92.400390625 c 1,9,10
 571.799804688 40.7998046875 571.799804688 40.7998046875 647.400390625 40.7998046875 c 0,11,12
 714.599609375 40.7998046875 714.599609375 40.7998046875 768.299804688 92.7001953125 c 128,-1,13
 822 144.599609375 822 144.599609375 822 219 c 0,0,1
450 309.599609375 m 1,14,15
 456.599609375 326.400390625 456.599609375 326.400390625 478.799804688 355.799804688 c 1,16,17
 490.200195312 369 490.200195312 369 526.200195312 398.400390625 c 1,18,19
 586.799804688 435 586.799804688 435 645 435 c 0,20,21
 727.799804688 435 727.799804688 435 795.299804688 373.5 c 128,-1,22
 862.799804688 312 862.799804688 312 862.799804688 219 c 0,23,24
 862.799804688 134.400390625 862.799804688 134.400390625 801 67.2001953125 c 128,-1,25
 739.200195312 0 739.200195312 0 647.400390625 0 c 0,26,27
 618.599609375 0 618.599609375 0 585.900390625 7.2001953125 c 128,-1,28
 553.200195312 14.400390625 553.200195312 14.400390625 528.599609375 31.7998046875 c 1,29,30
 489 56.400390625 489 56.400390625 450 124.200195312 c 1,31,32
 424.799804688 72 424.799804688 72 368.400390625 34.2001953125 c 1,33,34
 312.599609375 0 312.599609375 0 255.599609375 0 c 0,35,36
 171 0 171 0 103.200195312 61.5 c 128,-1,37
 35.400390625 123 35.400390625 123 35.400390625 214.799804688 c 0,38,39
 35.400390625 293.400390625 35.400390625 293.400390625 98.400390625 364.200195312 c 128,-1,40
 161.400390625 435 161.400390625 435 252 435 c 0,41,42
 309.599609375 435 309.599609375 435 361.5 402.299804688 c 128,-1,43
 413.400390625 369.599609375 413.400390625 369.599609375 450 309.599609375 c 1,14,15
84.599609375 266.400390625 m 1,44,-1
 105.599609375 283.200195312 l 1,45,46
 118.799804688 291.599609375 118.799804688 291.599609375 135 291.599609375 c 0,47,48
 153 291.599609375 153 291.599609375 177.299804688 269.700195312 c 128,-1,49
 201.599609375 247.799804688 201.599609375 247.799804688 201.599609375 216 c 0,50,51
 201.599609375 186.599609375 201.599609375 186.599609375 179.700195312 163.5 c 128,-1,52
 157.799804688 140.400390625 157.799804688 140.400390625 136.799804688 140.400390625 c 0,53,54
 109.200195312 140.400390625 109.200195312 140.400390625 104.400390625 145.200195312 c 2,55,-1
 86.400390625 163.799804688 l 1,56,-1
 97.2001953125 138 l 1,57,58
 116.400390625 104.400390625 116.400390625 104.400390625 129 92.400390625 c 1,59,60
 177.599609375 40.7998046875 177.599609375 40.7998046875 255.599609375 40.7998046875 c 0,61,62
 325.799804688 40.7998046875 325.799804688 40.7998046875 377.400390625 92.400390625 c 128,-1,63
 429 144 429 144 429 219 c 0,64,65
 429 288.599609375 429 288.599609375 376.200195312 341.400390625 c 0,66,67
 348.599609375 369 348.599609375 369 319.200195312 381 c 1,68,-1
 287.400390625 390.599609375 l 1,69,70
 271.200195312 394.200195312 271.200195312 394.200195312 252 394.200195312 c 0,71,72
 181.799804688 394.200195312 181.799804688 394.200195312 129 341.400390625 c 0,73,74
 102.599609375 315 102.599609375 315 84.599609375 266.400390625 c 1,44,-1
EndSplineSet
Ligature2: "'clig' Contextual Ligatures lookup 7 subtable" u1011 u103C
Ligature2: "'clig' Contextual Ligatures lookup 5 subtable" u1011 u1031
MultipleSubs2: "Multiple Substitution lookup 2 subtable" guard u103C u1011
MultipleSubs2: "Multiple Substitution lookup 1 subtable" guard u103C.udia u1011
MultipleSubs2: "Multiple Substitution lookup 0 subtable" guard u1031 u1011
EndChar

StartChar: u1015
Encoding: 4117 4117 7
Width: 556
VWidth: 600
GlyphClass: 3
Flags: W
AnchorPoint: "Anchor-3" 280.8 416.4 basechar 0
AnchorPoint: "Anchor-2" 282.6 0 basechar 0
AnchorPoint: "Anchor-1" 282.6 0 basechar 0
AnchorPoint: "Anchor-0" 451.8 0 basechar 0
LayerCount: 2
Fore
SplineSet
138.599609375 406.799804688 m 1,0,-1
 159 412.799804688 l 1,1,2
 175.799804688 412.799804688 175.799804688 412.799804688 199.200195312 400.200195312 c 1,3,4
 222 384 222 384 222 354.599609375 c 0,5,6
 222 333 222 333 199.799804688 310.200195312 c 1,7,8
 180.599609375 294.599609375 180.599609375 294.599609375 159 294.599609375 c 0,9,10
 133.200195312 294.599609375 133.200195312 294.599609375 128.400390625 299.400390625 c 2,11,-1
 111 316.799804688 l 1,12,13
 86.400390625 269.400390625 86.400390625 269.400390625 86.400390625 214.799804688 c 0,14,15
 86.400390625 174.599609375 86.400390625 174.599609375 98.099609375 145.799804688 c 128,-1,16
 109.799804688 117 109.799804688 117 140.400390625 91.2001953125 c 1,17,-1
 169.799804688 72 l 1,18,-1
 205.200195312 54 l 1,19,-1
 247.200195312 45.599609375 l 1,20,21
 268.799804688 42 268.799804688 42 282.599609375 42 c 0,22,23
 322.799804688 42 322.799804688 42 353.400390625 53.400390625 c 0,24,25
 372 60 372 60 384.599609375 68.400390625 c 1,26,-1
 415.200195312 92.400390625 l 1,27,28
 438.599609375 114 438.599609375 114 455.400390625 144 c 1,29,-1
 468.599609375 175.200195312 l 1,30,-1
 472.200195312 192.599609375 l 1,31,-1
 473.400390625 212.400390625 l 1,32,33
 473.400390625 275.400390625 473.400390625 275.400390625 443.400390625 322.200195312 c 1,34,35
 433.799804688 342.599609375 433.799804688 342.599609375 420.599609375 352.799804688 c 1,36,-1
 390.599609375 378.599609375 l 1,37,-1
 381.599609375 387 l 1,38,-1
 375.599609375 399.599609375 l 1,39,-1
 376.799804688 405.599609375 l 1,40,41
 381.599609375 412.799804688 381.599609375 412.799804688 390.599609375 416.400390625 c 1,42,-1
 409.799804688 416.400390625 l 1,43,-1
 446.400390625 384.599609375 l 1,44,-1
 460.799804688 367.799804688 l 1,45,-1
 481.200195312 343.799804688 l 1,46,-1
 493.799804688 318 l 1,47,-1
 509.400390625 280.200195312 l 1,48,-1
 516 247.200195312 l 1,49,-1
 518.400390625 223.799804688 l 1,50,-1
 519 212.400390625 l 1,51,52
 519 133.200195312 519 133.200195312 447.599609375 63.599609375 c 0,53,54
 417 33.599609375 417 33.599609375 375 16.7998046875 c 1,55,56
 355.200195312 9.599609375 355.200195312 9.599609375 331.799804688 4.2001953125 c 1,57,-1
 309 1.2001953125 l 1,58,-1
 282.599609375 0 l 1,59,60
 232.799804688 0 232.799804688 0 193.200195312 15 c 1,61,62
 167.400390625 22.2001953125 167.400390625 22.2001953125 153.599609375 31.7998046875 c 1,63,-1
 136.799804688 42.599609375 l 1,64,-1
 116.400390625 57.599609375 l 1,65,-1
 86.400390625 87 l 1,66,-1
 60.599609375 125.400390625 l 1,67,-1
 45 168.599609375 l 1,68,-1
 39 214.799804688 l 1,69,70
 39 250.799804688 39 250.799804688 44.400390625 281.099609375 c 128,-1,71
 49.7998046875 311.400390625 49.7998046875 311.400390625 68.400390625 336 c 2,72,-1
 108 390 l 1,73,-1
 138.599609375 406.799804688 l 1,0,-1
EndSplineSet
Ligature2: "'clig' Contextual Ligatures lookup 7 subtable" u1015 u103C
Ligature2: "'clig' Contextual Ligatures lookup 5 subtable" u1015 u1031
MultipleSubs2: "Multiple Substitution lookup 2 subtable" guard u103C.nar u1015
MultipleSubs2: "Multiple Substitution lookup 1 subtable" guard u103C.nar.udia u1015
MultipleSubs2: "Multiple Substitution lookup 0 subtable" guard u1031 u1015
EndChar

StartChar: u101A
Encoding: 4122 4122 8
Width: 898
VWidth: 600
GlyphClass: 3
Flags: W
AnchorPoint: "Anchor-3" 621.6 416.4 basechar 0
AnchorPoint: "Anchor-2" 451.2 0 basechar 0
AnchorPoint: "Anchor-1" 645.6 0 basechar 0
LayerCount: 2
Fore
SplineSet
765.599609375 430.200195312 m 1,0,1
 749.400390625 436.200195312 749.400390625 436.200195312 729 436.200195312 c 128,-1,2
 708.599609375 436.200195312 708.599609375 436.200195312 688.799804688 418.799804688 c 0,3,4
 666 399 666 399 666 369.599609375 c 0,5,6
 666 336.599609375 666 336.599609375 688.799804688 319.200195312 c 0,7,8
 706.799804688 304.799804688 706.799804688 304.799804688 729 304.799804688 c 1,9,-1
 747 306.599609375 l 1,10,11
 756.599609375 308.400390625 756.599609375 308.400390625 762 313.200195312 c 1,12,13
 770.400390625 317.400390625 770.400390625 317.400390625 788.400390625 339 c 1,14,15
 802.799804688 313.799804688 802.799804688 313.799804688 810 285 c 1,16,-1
 814.799804688 261.599609375 l 1,17,-1
 814.799804688 221.400390625 l 2,18,19
 814.799804688 147.599609375 814.799804688 147.599609375 762 94.7998046875 c 128,-1,20
 709.200195312 42 709.200195312 42 640.200195312 42 c 0,21,22
 607.799804688 42 607.799804688 42 580.799804688 52.7998046875 c 1,23,-1
 553.200195312 67.2001953125 l 1,24,-1
 520.200195312 88.7998046875 l 1,25,26
 483 117 483 117 469.799804688 207 c 0,27,28
 462.599609375 255.599609375 462.599609375 255.599609375 462.599609375 337.200195312 c 1,29,-1
 441.599609375 337.200195312 l 1,30,-1
 443.400390625 336.599609375 l 1,31,-1
 437.400390625 335.400390625 l 1,32,-1
 435.599609375 267.599609375 l 1,33,-1
 435 246 l 1,34,-1
 429.599609375 211.799804688 l 2,35,36
 415.200195312 122.400390625 415.200195312 122.400390625 374.400390625 88.7998046875 c 0,37,38
 349.799804688 67.7998046875 349.799804688 67.7998046875 317.400390625 49.7998046875 c 1,39,40
 300 43.2001953125 300 43.2001953125 283.799804688 39 c 1,41,42
 274.200195312 37.2001953125 274.200195312 37.2001953125 267 36 c 128,-1,43
 259.799804688 34.7998046875 259.799804688 34.7998046875 252 34.7998046875 c 0,44,45
 187.799804688 34.7998046875 187.799804688 34.7998046875 130.200195312 87 c 1,46,47
 105 113.400390625 105 113.400390625 90.599609375 144.599609375 c 1,48,-1
 81.599609375 176.400390625 l 1,49,50
 79.7998046875 186.599609375 79.7998046875 186.599609375 78.599609375 195.599609375 c 128,-1,51
 77.400390625 204.599609375 77.400390625 204.599609375 77.400390625 214.200195312 c 2,52,-1
 77.400390625 254.400390625 l 1,53,-1
 82.2001953125 277.799804688 l 1,54,-1
 91.2001953125 300 l 1,55,-1
 106.200195312 322.799804688 l 1,56,-1
 131.400390625 306 l 1,57,58
 146.400390625 297.599609375 146.400390625 297.599609375 156.599609375 297.599609375 c 0,59,60
 172.200195312 297.599609375 172.200195312 297.599609375 196.799804688 312 c 1,61,62
 219.599609375 330 219.599609375 330 219.599609375 362.400390625 c 0,63,64
 219.599609375 391.200195312 219.599609375 391.200195312 196.799804688 411.599609375 c 0,65,66
 187.799804688 420 187.799804688 420 177 424.200195312 c 1,67,-1
 166.799804688 426.599609375 l 1,68,-1
 156.599609375 429 l 1,69,70
 129.599609375 429 129.599609375 429 120.599609375 423.599609375 c 1,71,-1
 99 403.799804688 l 1,72,73
 93.599609375 400.200195312 93.599609375 400.200195312 82.7998046875 382.200195312 c 2,74,-1
 70.2001953125 361.200195312 l 1,75,76
 55.7998046875 340.200195312 55.7998046875 340.200195312 44.400390625 291.599609375 c 1,77,-1
 37.7998046875 252 l 1,78,-1
 35.400390625 214.200195312 l 1,79,80
 35.400390625 135 35.400390625 135 98.400390625 64.5 c 128,-1,81
 161.400390625 -6 161.400390625 -6 252 -6 c 0,82,83
 309.599609375 -6 309.599609375 -6 362.099609375 26.7001953125 c 128,-1,84
 414.599609375 59.400390625 414.599609375 59.400390625 450 119.400390625 c 1,85,86
 451.799804688 114.599609375 451.799804688 114.599609375 455.099609375 107.099609375 c 128,-1,87
 458.400390625 99.599609375 458.400390625 99.599609375 461.400390625 94.2001953125 c 0,88,89
 466.799804688 84 466.799804688 84 478.200195312 72 c 1,90,-1
 499.200195312 51.599609375 l 1,91,-1
 526.200195312 30.599609375 l 1,92,-1
 585 9 l 1,93,94
 597 6.599609375 597 6.599609375 615 3.900390625 c 128,-1,95
 633 1.2001953125 633 1.2001953125 640.200195312 1.2001953125 c 0,96,97
 726.599609375 1.2001953125 726.599609375 1.2001953125 791.400390625 69.599609375 c 128,-1,98
 856.200195312 138 856.200195312 138 856.200195312 221.400390625 c 1,99,-1
 853.799804688 259.200195312 l 1,100,-1
 847.799804688 298.799804688 l 1,101,102
 837.599609375 342.599609375 837.599609375 342.599609375 822 369 c 1,103,104
 802.200195312 399.599609375 802.200195312 399.599609375 787.799804688 410.400390625 c 1,105,-1
 765.599609375 430.200195312 l 1,0,1
EndSplineSet
Ligature2: "'clig' Contextual Ligatures lookup 7 subtable" u101A u103C
Ligature2: "'clig' Contextual Ligatures lookup 5 subtable" u101A u1031
MultipleSubs2: "Multiple Substitution lookup 2 subtable" guard u103C u101A
MultipleSubs2: "Multiple Substitution lookup 1 subtable" guard u103C.udia u101A
MultipleSubs2: "Multiple Substitution lookup 0 subtable" guard u1031 u101A
EndChar

StartChar: u101C
Encoding: 4124 4124 9
Width: 898
VWidth: 600
GlyphClass: 3
Flags: W
AnchorPoint: "Anchor-3" 655.2 416.4 basechar 0
AnchorPoint: "Anchor-2" 446.4 0 basechar 0
AnchorPoint: "Anchor-1" 648 0 basechar 0
LayerCount: 2
Fore
SplineSet
692.400390625 388.799804688 m 1,0,-1
 697.799804688 369.599609375 l 1,1,2
 697.799804688 363.599609375 697.799804688 363.599609375 695.700195312 357 c 128,-1,3
 693.599609375 350.400390625 693.599609375 350.400390625 685.200195312 339.599609375 c 1,4,5
 678 328.799804688 678 328.799804688 662.400390625 319.200195312 c 1,6,7
 646.799804688 310.799804688 646.799804688 310.799804688 628.200195312 310.799804688 c 0,8,9
 612 310.799804688 612 310.799804688 596.099609375 319.799804688 c 128,-1,10
 580.200195312 328.799804688 580.200195312 328.799804688 572.400390625 342.599609375 c 1,11,-1
 567.599609375 354 l 1,12,-1
 564.599609375 372.599609375 l 1,13,-1
 566.400390625 389.400390625 l 1,14,15
 568.200195312 399 568.200195312 399 573 404.400390625 c 1,16,17
 576.599609375 411 576.599609375 411 597.599609375 420.599609375 c 2,18,-1
 628.799804688 435.599609375 l 1,19,-1
 645 435 l 1,20,21
 727.799804688 435 727.799804688 435 795.299804688 373.5 c 128,-1,22
 862.799804688 312 862.799804688 312 862.799804688 219 c 0,23,24
 862.799804688 134.400390625 862.799804688 134.400390625 801 67.2001953125 c 128,-1,25
 739.200195312 0 739.200195312 0 647.400390625 0 c 0,26,27
 571.799804688 0 571.799804688 0 507.599609375 52.7998046875 c 0,28,29
 472.799804688 81 472.799804688 81 452.099609375 121.5 c 128,-1,30
 431.400390625 162 431.400390625 162 431.400390625 210 c 0,31,32
 431.400390625 286.200195312 431.400390625 286.200195312 378.599609375 340.200195312 c 128,-1,33
 325.799804688 394.200195312 325.799804688 394.200195312 252 394.200195312 c 0,34,35
 182.400390625 394.200195312 182.400390625 394.200195312 129.900390625 341.700195312 c 128,-1,36
 77.400390625 289.200195312 77.400390625 289.200195312 77.400390625 214.799804688 c 0,37,38
 77.400390625 184.200195312 77.400390625 184.200195312 88.2001953125 150 c 1,39,40
 99.599609375 120.599609375 99.599609375 120.599609375 129 92.400390625 c 0,41,42
 135 87 135 87 172.200195312 64.2001953125 c 1,43,44
 192.599609375 57 192.599609375 57 222 51.599609375 c 1,45,46
 222 77.400390625 222 77.400390625 234 94.7998046875 c 1,47,48
 242.400390625 108.599609375 242.400390625 108.599609375 255.299804688 117 c 128,-1,49
 268.200195312 125.400390625 268.200195312 125.400390625 287.400390625 125.400390625 c 0,50,51
 301.799804688 125.400390625 301.799804688 125.400390625 316.200195312 118.200195312 c 1,52,-1
 339 93.599609375 l 1,53,-1
 345 77.400390625 l 1,54,-1
 346.799804688 61.7998046875 l 1,55,56
 346.799804688 43.2001953125 346.799804688 43.2001953125 338.400390625 28.7998046875 c 1,57,58
 331.200195312 14.400390625 331.200195312 14.400390625 320.400390625 7.2001953125 c 1,59,-1
 310.200195312 1.7998046875 l 1,60,-1
 297 -3 l 1,61,-1
 288.599609375 -4.2001953125 l 1,62,-1
 277.200195312 -6 l 1,63,-1
 261 -4.2001953125 l 1,64,-1
 249.599609375 -2.400390625 l 1,65,-1
 230.400390625 -1.7998046875 l 2,66,67
 220.799804688 -1.7998046875 220.799804688 -1.7998046875 213 0.599609375 c 1,68,-1
 189 5.400390625 l 1,69,-1
 170.400390625 13.2001953125 l 2,70,71
 161.400390625 16.7998046875 161.400390625 16.7998046875 135 33 c 1,72,-1
 118.200195312 45.599609375 l 1,73,-1
 100.799804688 61.2001953125 l 1,74,75
 35.400390625 123 35.400390625 123 35.400390625 214.799804688 c 0,76,77
 35.400390625 293.400390625 35.400390625 293.400390625 98.400390625 364.200195312 c 128,-1,78
 161.400390625 435 161.400390625 435 252 435 c 0,79,80
 321.599609375 435 321.599609375 435 393 384.599609375 c 1,81,82
 469.200195312 321 469.200195312 321 469.200195312 214.799804688 c 0,83,84
 469.200195312 147 469.200195312 147 522 92.400390625 c 1,85,86
 577.200195312 40.7998046875 577.200195312 40.7998046875 647.400390625 40.7998046875 c 0,87,88
 714.599609375 40.7998046875 714.599609375 40.7998046875 768.299804688 92.7001953125 c 128,-1,89
 822 144.599609375 822 144.599609375 822 219 c 0,90,91
 822 292.799804688 822 292.799804688 768 341.400390625 c 1,92,93
 755.400390625 355.799804688 755.400390625 355.799804688 733.200195312 369 c 1,94,95
 714 382.200195312 714 382.200195312 692.400390625 388.799804688 c 1,0,-1
EndSplineSet
Ligature2: "'clig' Contextual Ligatures lookup 7 subtable" u101C u103C
Ligature2: "'clig' Contextual Ligatures lookup 5 subtable" u101C u1031
MultipleSubs2: "Multiple Substitution lookup 2 subtable" guard u103C u101C
MultipleSubs2: "Multiple Substitution lookup 1 subtable" guard u103C.udia u101C
MultipleSubs2: "Multiple Substitution lookup 0 subtable" guard u1031 u101C
EndChar

StartChar: u101D
Encoding: 4125 4125 10
Width: 506
VWidth: 600
GlyphClass: 3
Flags: W
AnchorPoint: "Anchor-3" 255.6 416.4 basechar 0
AnchorPoint: "Anchor-2" 256.8 0 basechar 0
AnchorPoint: "Anchor-1" 255.6 0 basechar 0
LayerCount: 2
Fore
SplineSet
472.799804688 219 m 0,0,1
 472.799804688 174 472.799804688 174 458.400390625 136.200195312 c 128,-1,2
 444 98.400390625 444 98.400390625 409.200195312 63.599609375 c 1,3,4
 343.799804688 0 343.799804688 0 254.400390625 0 c 0,5,6
 166.799804688 0 166.799804688 0 101.700195312 63.900390625 c 128,-1,7
 36.599609375 127.799804688 36.599609375 127.799804688 36.599609375 219 c 0,8,9
 36.599609375 307.799804688 36.599609375 307.799804688 100.5 372 c 128,-1,10
 164.400390625 436.200195312 164.400390625 436.200195312 254.400390625 436.200195312 c 0,11,12
 340.799804688 436.200195312 340.799804688 436.200195312 406.799804688 372.900390625 c 128,-1,13
 472.799804688 309.599609375 472.799804688 309.599609375 472.799804688 219 c 0,0,1
84.599609375 261 m 1,14,-1
 111.599609375 280.200195312 l 1,15,16
 119.400390625 285 119.400390625 285 138.599609375 291.599609375 c 1,17,18
 160.200195312 291.599609375 160.200195312 291.599609375 184.200195312 273 c 1,19,20
 212.400390625 250.200195312 212.400390625 250.200195312 212.400390625 217.799804688 c 0,21,22
 212.400390625 196.200195312 212.400390625 196.200195312 185.400390625 168 c 1,23,24
 176.400390625 160.799804688 176.400390625 160.799804688 162 153.599609375 c 1,25,-1
 139.799804688 147.599609375 l 1,26,27
 132 147.599609375 132 147.599609375 130.799804688 146.400390625 c 1,28,-1
 124.799804688 146.400390625 l 1,29,-1
 111 150 l 1,30,-1
 86.400390625 163.799804688 l 1,31,-1
 93.599609375 145.200195312 l 1,32,-1
 103.799804688 127.799804688 l 2,33,34
 115.200195312 109.200195312 115.200195312 109.200195312 130.200195312 94.7998046875 c 1,35,36
 178.799804688 43.2001953125 178.799804688 43.2001953125 254.400390625 43.2001953125 c 0,37,38
 325.200195312 43.2001953125 325.200195312 43.2001953125 377.700195312 94.7998046875 c 128,-1,39
 430.200195312 146.400390625 430.200195312 146.400390625 430.200195312 219 c 0,40,41
 430.200195312 288 430.200195312 288 378.599609375 340.5 c 128,-1,42
 327 393 327 393 254.400390625 393 c 256,43,44
 181.799804688 393 181.799804688 393 130.200195312 341.400390625 c 1,45,-1
 118.799804688 327 l 1,46,-1
 103.799804688 303.599609375 l 1,47,-1
 94.2001953125 285.599609375 l 1,48,-1
 84.599609375 261 l 1,14,-1
EndSplineSet
Ligature2: "'clig' Contextual Ligatures lookup 7 subtable" u101D u103C
Ligature2: "'clig' Contextual Ligatures lookup 5 subtable" u101D u1031
MultipleSubs2: "Multiple Substitution lookup 2 subtable" guard u103C.nar u101D
MultipleSubs2: "Multiple Substitution lookup 1 subtable" guard u103C.nar.udia u101D
MultipleSubs2: "Multiple Substitution lookup 0 subtable" guard u1031 u101D
EndChar

StartChar: u1022
Encoding: 4130 4130 11
Width: 1080
VWidth: 600
GlyphClass: 3
Flags: W
AnchorPoint: "Anchor-3" 832.8 416.4 basechar 0
AnchorPoint: "Anchor-2" 544.8 0 basechar 0
AnchorPoint: "Anchor-1" 895.2 0 basechar 0
LayerCount: 2
Fore
SplineSet
908.400390625 1.2001953125 m 1,0,1
 897 1.2001953125 897 1.2001953125 891.599609375 4.2001953125 c 2,2,-1
 880.799804688 9 l 1,3,-1
 871.799804688 16.7998046875 l 2,4,5
 850.799804688 34.7998046875 850.799804688 34.7998046875 850.799804688 60.599609375 c 0,6,7
 850.799804688 89.400390625 850.799804688 89.400390625 871.200195312 105.599609375 c 0,8,9
 888 118.799804688 888 118.799804688 907.799804688 118.799804688 c 1,10,-1
 931.799804688 116.400390625 l 2,11,12
 945 114.599609375 945 114.599609375 951.599609375 110.400390625 c 2,13,-1
 960.599609375 105.599609375 l 2,14,15
 969 101.400390625 969 101.400390625 973.200195312 97.2001953125 c 1,16,17
 988.799804688 126.599609375 988.799804688 126.599609375 998.700195312 162 c 128,-1,18
 1008.59960938 197.400390625 1008.59960938 197.400390625 1008.59960938 220.200195312 c 0,19,20
 1008.59960938 290.400390625 1008.59960938 290.400390625 954 342.900390625 c 128,-1,21
 899.400390625 395.400390625 899.400390625 395.400390625 831.599609375 395.400390625 c 0,22,23
 776.400390625 395.400390625 776.400390625 395.400390625 730.200195312 361.200195312 c 128,-1,24
 684 327 684 327 669.599609375 274.200195312 c 2,25,-1
 651 208.799804688 l 1,26,-1
 647.400390625 168.599609375 l 1,27,-1
 639 131.400390625 l 1,28,29
 630 97.7998046875 630 97.7998046875 602.400390625 62.400390625 c 1,30,31
 567 13.7998046875 567 13.7998046875 510 -7.2001953125 c 1,32,33
 486.599609375 -7.2001953125 486.599609375 -7.2001953125 486.599609375 12 c 1,34,35
 488.400390625 22.7998046875 488.400390625 22.7998046875 502.799804688 33 c 1,36,37
 551.400390625 57.599609375 551.400390625 57.599609375 581.400390625 102 c 1,38,39
 610.799804688 164.400390625 610.799804688 164.400390625 610.799804688 212.400390625 c 0,40,41
 610.799804688 282.599609375 610.799804688 282.599609375 554.400390625 335.400390625 c 128,-1,42
 498 388.200195312 498 388.200195312 433.799804688 388.200195312 c 0,43,44
 379.200195312 388.200195312 379.200195312 388.200195312 333.599609375 354.299804688 c 128,-1,45
 288 320.400390625 288 320.400390625 271.799804688 266.400390625 c 2,46,-1
 270 260.400390625 l 1,47,-1
 269.400390625 247.200195312 l 1,48,49
 266.400390625 244.200195312 266.400390625 244.200195312 248.400390625 179.400390625 c 1,50,-1
 232.200195312 105.599609375 l 1,51,-1
 232.200195312 97.7998046875 l 1,52,-1
 231 86.400390625 l 1,53,54
 231 79.2001953125 231 79.2001953125 225.599609375 70.2001953125 c 1,55,56
 219 55.2001953125 219 55.2001953125 205.200195312 39.599609375 c 1,57,58
 177.599609375 4.7998046875 177.599609375 4.7998046875 133.799804688 4.7998046875 c 1,59,60
 96 8.400390625 96 8.400390625 67.7998046875 33 c 1,61,62
 36.599609375 66 36.599609375 66 36.599609375 100.799804688 c 0,63,64
 36.599609375 115.200195312 36.599609375 115.200195312 43.7998046875 134.700195312 c 128,-1,65
 51 154.200195312 51 154.200195312 66 171.599609375 c 1,66,-1
 85.7998046875 184.799804688 l 2,67,68
 96.599609375 191.400390625 96.599609375 191.400390625 106.200195312 192 c 1,69,70
 122.400390625 192 122.400390625 192 138 180.599609375 c 1,71,72
 156.599609375 165.599609375 156.599609375 165.599609375 156.599609375 140.400390625 c 0,73,74
 156.599609375 124.200195312 156.599609375 124.200195312 138.599609375 101.400390625 c 1,75,76
 123 87 123 87 106.799804688 87 c 1,77,-1
 90 92.400390625 l 1,78,-1
 77.400390625 104.400390625 l 1,79,80
 81 82.2001953125 81 82.2001953125 97.2001953125 62.400390625 c 1,81,82
 111 46.7998046875 111 46.7998046875 136.200195312 46.7998046875 c 0,83,84
 156 46.7998046875 156 46.7998046875 175.799804688 66.599609375 c 1,85,86
 187.799804688 87.599609375 187.799804688 87.599609375 187.799804688 103.200195312 c 1,87,88
 193.200195312 150 193.200195312 150 198.599609375 177.599609375 c 0,89,90
 209.400390625 227.400390625 209.400390625 227.400390625 222.599609375 243.599609375 c 1,91,-1
 224.400390625 249.599609375 l 1,92,-1
 225 262.799804688 l 1,93,-1
 228.599609375 276.599609375 l 1,94,95
 261 354.599609375 261 354.599609375 310.200195312 391.799804688 c 128,-1,96
 359.400390625 429 359.400390625 429 433.799804688 429 c 0,97,98
 501 429 501 429 553.200195312 395.400390625 c 1,99,100
 568.799804688 387 568.799804688 387 598.799804688 354 c 0,101,102
 614.400390625 336 614.400390625 336 634.200195312 302.400390625 c 1,103,-1
 640.200195312 313.200195312 l 1,104,105
 652.799804688 340.799804688 652.799804688 340.799804688 662.400390625 357.599609375 c 1,106,-1
 670.200195312 368.400390625 l 1,107,-1
 678.599609375 376.799804688 l 1,108,-1
 708 399.599609375 l 1,109,110
 757.200195312 436.200195312 757.200195312 436.200195312 831.599609375 436.200195312 c 0,111,112
 900.599609375 436.200195312 900.599609375 436.200195312 952.5 403.5 c 128,-1,113
 1004.40039062 370.799804688 1004.40039062 370.799804688 1029.59960938 310.799804688 c 1,114,115
 1042.20019531 285.599609375 1042.20019531 285.599609375 1045.79980469 265.200195312 c 1,116,-1
 1049.40039062 216 l 1,117,-1
 1045.79980469 175.799804688 l 1,118,-1
 1037.40039062 138.599609375 l 1,119,-1
 1030.20019531 116.400390625 l 1,120,-1
 1026 106.200195312 l 1,121,-1
 1021.79980469 96.599609375 l 2,122,123
 1014.59960938 79.2001953125 1014.59960938 79.2001953125 998.099609375 56.400390625 c 128,-1,124
 981.599609375 33.599609375 981.599609375 33.599609375 958.799804688 17.400390625 c 1,125,126
 940.799804688 6.599609375 940.799804688 6.599609375 908.400390625 1.2001953125 c 1,0,1
EndSplineSet
Ligature2: "'clig' Contextual Ligatures lookup 7 subtable" u1022 u103C
Ligature2: "'clig' Contextual Ligatures lookup 5 subtable" u1022 u1031
MultipleSubs2: "Multiple Substitution lookup 2 subtable" guard u103C u1022
MultipleSubs2: "Multiple Substitution lookup 1 subtable" guard u103C.udia u1022
MultipleSubs2: "Multiple Substitution lookup 0 subtable" guard u1031 u1022
EndChar

StartChar: u102D
Encoding: 4141 4141 12
Width: 0
VWidth: 600
GlyphClass: 4
Flags: W
AnchorPoint: "Anchor-3" -246.6 394.2 mark 0
LayerCount: 2
Fore
SplineSet
-69.599609375 605.400390625 m 0,0,1
 -69.599609375 538.200195312 -69.599609375 538.200195312 -121.799804688 482.700195312 c 128,-1,2
 -174 427.200195312 -174 427.200195312 -247.799804688 427.200195312 c 256,3,4
 -321.599609375 427.200195312 -321.599609375 427.200195312 -373.200195312 478.799804688 c 128,-1,5
 -424.799804688 530.400390625 -424.799804688 530.400390625 -424.799804688 605.400390625 c 0,6,7
 -424.799804688 679.200195312 -424.799804688 679.200195312 -374.099609375 730.799804688 c 128,-1,8
 -323.400390625 782.400390625 -323.400390625 782.400390625 -247.799804688 782.400390625 c 0,9,10
 -181.200195312 782.400390625 -181.200195312 782.400390625 -122.400390625 730.200195312 c 1,11,12
 -96 703.799804688 -96 703.799804688 -82.7998046875 673.200195312 c 1,13,-1
 -73.2001953125 640.799804688 l 1,14,15
 -69.599609375 624.599609375 -69.599609375 624.599609375 -69.599609375 605.400390625 c 0,0,1
-112.799804688 605.400390625 m 0,16,17
 -112.799804688 655.799804688 -112.799804688 655.799804688 -152.400390625 697.799804688 c 128,-1,18
 -192 739.799804688 -192 739.799804688 -247.799804688 739.799804688 c 0,19,20
 -297.599609375 739.799804688 -297.599609375 739.799804688 -342 700.200195312 c 1,21,22
 -355.200195312 687 -355.200195312 687 -372 657 c 1,23,24
 -382.200195312 633 -382.200195312 633 -382.200195312 605.400390625 c 0,25,26
 -382.200195312 558 -382.200195312 558 -342.599609375 511.200195312 c 1,27,28
 -324.599609375 491.400390625 -324.599609375 491.400390625 -299.400390625 480.900390625 c 128,-1,29
 -274.200195312 470.400390625 -274.200195312 470.400390625 -247.799804688 470.400390625 c 0,30,31
 -232.200195312 470.400390625 -232.200195312 470.400390625 -220.200195312 472.200195312 c 128,-1,32
 -208.200195312 474 -208.200195312 474 -196.799804688 478.799804688 c 0,33,34
 -176.400390625 487.799804688 -176.400390625 487.799804688 -152.400390625 510 c 1,35,36
 -112.799804688 551.400390625 -112.799804688 551.400390625 -112.799804688 605.400390625 c 0,16,17
EndSplineSet
EndChar

StartChar: u102E
Encoding: 4142 4142 13
Width: 0
VWidth: 600
GlyphClass: 4
Flags: W
AnchorPoint: "Anchor-3" -248.4 394.2 mark 0
LayerCount: 2
Fore
SplineSet
-71.400390625 605.400390625 m 0,0,1
 -71.400390625 531 -71.400390625 531 -123 479.099609375 c 128,-1,2
 -174.599609375 427.200195312 -174.599609375 427.200195312 -249.599609375 427.200195312 c 0,3,4
 -316.799804688 427.200195312 -316.799804688 427.200195312 -371.700195312 479.700195312 c 128,-1,5
 -426.599609375 532.200195312 -426.599609375 532.200195312 -426.599609375 605.400390625 c 0,6,7
 -426.599609375 679.200195312 -426.599609375 679.200195312 -375 730.799804688 c 128,-1,8
 -323.400390625 782.400390625 -323.400390625 782.400390625 -249.599609375 782.400390625 c 0,9,10
 -181.799804688 782.400390625 -181.799804688 782.400390625 -124.200195312 730.200195312 c 1,11,12
 -97.7998046875 703.799804688 -97.7998046875 703.799804688 -84.599609375 673.200195312 c 1,13,-1
 -75 640.799804688 l 1,14,15
 -71.400390625 624.599609375 -71.400390625 624.599609375 -71.400390625 605.400390625 c 0,0,1
-130.200195312 543 m 1,16,-1
 -125.400390625 553.799804688 l 1,17,-1
 -118.200195312 573.599609375 l 1,18,-1
 -115.200195312 589.799804688 l 1,19,-1
 -114 605.400390625 l 1,20,21
 -114 655.799804688 -114 655.799804688 -153.599609375 697.799804688 c 128,-1,22
 -193.200195312 739.799804688 -193.200195312 739.799804688 -249.599609375 739.799804688 c 0,23,24
 -301.799804688 739.799804688 -301.799804688 739.799804688 -343.200195312 700.200195312 c 0,25,26
 -356.400390625 687 -356.400390625 687 -373.200195312 657 c 1,27,28
 -383.400390625 633 -383.400390625 633 -383.400390625 605.400390625 c 0,29,30
 -383.400390625 574.200195312 -383.400390625 574.200195312 -368.400390625 544.200195312 c 1,31,32
 -353.400390625 563.400390625 -353.400390625 563.400390625 -314.400390625 586.200195312 c 1,33,34
 -282.599609375 600.599609375 -282.599609375 600.599609375 -249.599609375 600.599609375 c 1,35,-1
 -229.799804688 600 l 2,36,37
 -220.200195312 600 -220.200195312 600 -213 597.599609375 c 1,38,39
 -198.599609375 595.799804688 -198.599609375 595.799804688 -182.400390625 586.799804688 c 1,40,41
 -153 573 -153 573 -130.200195312 543 c 1,16,-1
-350.400390625 517.200195312 m 1,42,43
 -309 470.400390625 -309 470.400390625 -249.599609375 470.400390625 c 0,44,45
 -190.799804688 470.400390625 -190.799804688 470.400390625 -148.799804688 516 c 1,46,47
 -184.200195312 570 -184.200195312 570 -249.599609375 570 c 0,48,49
 -272.400390625 570 -272.400390625 570 -278.400390625 567 c 1,50,51
 -282.599609375 565.799804688 -282.599609375 565.799804688 -290.099609375 563.099609375 c 128,-1,52
 -297.599609375 560.400390625 -297.599609375 560.400390625 -309 555 c 1,53,54
 -330.599609375 546 -330.599609375 546 -350.400390625 517.200195312 c 1,42,43
EndSplineSet
EndChar

StartChar: u102F
Encoding: 4143 4143 14
Width: 0
VWidth: 600
GlyphClass: 4
Flags: W
AnchorPoint: "Anchor-1" -163.2 0 mark 0
LayerCount: 2
Fore
SplineSet
-48.599609375 -383.400390625 m 2,0,-1
 -127.200195312 -383.400390625 l 2,1,2
 -146.400390625 -383.400390625 -146.400390625 -383.400390625 -166.799804688 -364.799804688 c 1,3,4
 -185.400390625 -346.200195312 -185.400390625 -346.200195312 -185.400390625 -324.599609375 c 2,5,-1
 -185.400390625 -19.7998046875 l 2,6,7
 -185.400390625 1.2001953125 -185.400390625 1.2001953125 -163.200195312 1.2001953125 c 0,8,9
 -142.200195312 1.2001953125 -142.200195312 1.2001953125 -142.200195312 -19.7998046875 c 2,10,-1
 -142.799804688 -286.200195312 l 1,11,-1
 -140.400390625 -303.599609375 l 2,12,13
 -138.599609375 -318.599609375 -138.599609375 -318.599609375 -135.599609375 -322.200195312 c 2,14,-1
 -126.599609375 -331.799804688 l 1,15,-1
 -121.200195312 -336 l 1,16,-1
 -117.599609375 -338.400390625 l 1,17,-1
 -43.7998046875 -338.400390625 l 1,18,-1
 -13.2001953125 -331.200195312 l 1,19,20
 44.400390625 -316.799804688 44.400390625 -316.799804688 46.2001953125 -318.599609375 c 1,21,-1
 47.400390625 -324 l 1,22,-1
 48 -331.200195312 l 1,23,24
 48 -340.200195312 48 -340.200195312 6.599609375 -361.799804688 c 128,-1,25
 -34.7998046875 -383.400390625 -34.7998046875 -383.400390625 -48.599609375 -383.400390625 c 2,0,-1
EndSplineSet
EndChar

StartChar: u1030
Encoding: 4144 4144 15
Width: 0
VWidth: 600
GlyphClass: 4
Flags: W
AnchorPoint: "Anchor-1" -208.8 0 mark 0
LayerCount: 2
Fore
SplineSet
59.400390625 -333.599609375 m 1,0,1
 59.400390625 -342.599609375 59.400390625 -342.599609375 18 -364.200195312 c 128,-1,2
 -23.400390625 -385.799804688 -23.400390625 -385.799804688 -37.2001953125 -385.799804688 c 2,3,-1
 -115.799804688 -385.799804688 l 2,4,5
 -135 -385.799804688 -135 -385.799804688 -155.400390625 -367.200195312 c 1,6,7
 -174 -348.599609375 -174 -348.599609375 -174 -327 c 2,8,-1
 -174 -22.2001953125 l 2,9,10
 -174 -1.2001953125 -174 -1.2001953125 -151.799804688 -1.2001953125 c 0,11,12
 -130.799804688 -1.2001953125 -130.799804688 -1.2001953125 -130.799804688 -22.2001953125 c 2,13,-1
 -131.400390625 -288.599609375 l 1,14,-1
 -129 -306 l 2,15,16
 -127.200195312 -321 -127.200195312 -321 -124.200195312 -324.599609375 c 2,17,-1
 -115.200195312 -334.200195312 l 1,18,-1
 -109.799804688 -338.400390625 l 1,19,-1
 -106.200195312 -340.799804688 l 1,20,-1
 -32.400390625 -340.799804688 l 1,21,-1
 -1.7998046875 -333.599609375 l 1,22,23
 55.7998046875 -319.200195312 55.7998046875 -319.200195312 57.599609375 -321 c 1,24,-1
 58.7998046875 -326.400390625 l 1,25,-1
 59.400390625 -333.599609375 l 1,0,1
-181.799804688 -349.799804688 m 1,26,-1
 -240.599609375 -348.599609375 l 2,27,28
 -250.799804688 -348.599609375 -250.799804688 -348.599609375 -255.599609375 -345.599609375 c 2,29,-1
 -269.400390625 -335.400390625 l 1,30,31
 -282 -321 -282 -321 -282 -306 c 2,32,-1
 -282 -40.2001953125 l 2,33,34
 -282 -22.2001953125 -282 -22.2001953125 -262.200195312 -20.400390625 c 1,35,36
 -241.200195312 -20.400390625 -241.200195312 -20.400390625 -241.200195312 -40.2001953125 c 2,37,-1
 -241.200195312 -283.200195312 l 1,38,-1
 -240.599609375 -293.400390625 l 1,39,-1
 -239.400390625 -300 l 1,40,41
 -234 -306.599609375 -234 -306.599609375 -231.599609375 -307.200195312 c 1,42,-1
 -207 -324.599609375 l 1,43,-1
 -181.799804688 -349.799804688 l 1,26,-1
EndSplineSet
EndChar

StartChar: u1031
Encoding: 4145 4145 16
Width: 403
VWidth: 600
GlyphClass: 3
Flags: W
LayerCount: 2
Fore
SplineSet
372.599609375 397.799804688 m 1,0,-1
 373.799804688 390.599609375 l 1,1,2
 373.799804688 385.200195312 373.799804688 385.200195312 367.200195312 378.599609375 c 1,3,4
 356.400390625 370.200195312 356.400390625 370.200195312 354.599609375 367.200195312 c 1,5,6
 343.200195312 373.799804688 343.200195312 373.799804688 310.799804688 385.799804688 c 1,7,8
 285.599609375 391.200195312 285.599609375 391.200195312 256.799804688 391.200195312 c 0,9,10
 181.200195312 391.200195312 181.200195312 391.200195312 129 340.799804688 c 1,11,12
 77.400390625 283.799804688 77.400390625 283.799804688 77.400390625 218.400390625 c 2,13,-1
 77.400390625 201 l 1,14,-1
 77.400390625 190.200195312 l 1,15,-1
 80.400390625 174 l 1,16,17
 80.400390625 168.599609375 80.400390625 168.599609375 89.400390625 147.599609375 c 0,18,19
 102 117 102 117 118.799804688 117 c 0,20,21
 122.400390625 117 122.400390625 117 134.400390625 131.099609375 c 128,-1,22
 146.400390625 145.200195312 146.400390625 145.200195312 158.400390625 148.799804688 c 128,-1,23
 170.400390625 152.400390625 170.400390625 152.400390625 183.599609375 152.400390625 c 0,24,25
 211.799804688 152.400390625 211.799804688 152.400390625 237 141.299804688 c 128,-1,26
 262.200195312 130.200195312 262.200195312 130.200195312 276.599609375 106.200195312 c 1,27,-1
 283.799804688 89.400390625 l 1,28,-1
 286.200195312 72.599609375 l 1,29,30
 286.200195312 45.599609375 286.200195312 45.599609375 264 24.2998046875 c 128,-1,31
 241.799804688 3 241.799804688 3 216 3 c 1,32,-1
 195 2.400390625 l 1,33,-1
 175.799804688 2.400390625 l 1,34,-1
 155.400390625 3 l 1,35,36
 145.799804688 4.2001953125 145.799804688 4.2001953125 135.599609375 9 c 0,37,38
 120.599609375 15.599609375 120.599609375 15.599609375 99 39 c 0,39,40
 70.2001953125 69.599609375 70.2001953125 69.599609375 52.2001953125 120 c 1,41,-1
 39.599609375 169.799804688 l 1,42,-1
 36.599609375 193.799804688 l 1,43,-1
 35.400390625 218.400390625 l 1,44,45
 35.400390625 304.200195312 35.400390625 304.200195312 102.299804688 368.099609375 c 128,-1,46
 169.200195312 432 169.200195312 432 256.799804688 432 c 1,47,-1
 289.799804688 429.599609375 l 1,48,-1
 318 423.599609375 l 1,49,-1
 350.400390625 415.799804688 l 1,50,51
 362.400390625 410.400390625 362.400390625 410.400390625 372.599609375 397.799804688 c 1,0,-1
EndSplineSet
Ligature2: "'clig' Contextual Ligatures lookup 8 subtable" guard u1031
EndChar

StartChar: u1036
Encoding: 4150 4150 17
Width: 19
VWidth: 600
GlyphClass: 4
Flags: W
AnchorPoint: "Anchor-3" -154.8 442.2 mark 0
LayerCount: 2
Fore
SplineSet
-75 579 m 1,0,1
 -75 571.799804688 -75 571.799804688 -80.400390625 554.400390625 c 1,2,3
 -86.400390625 543 -86.400390625 543 -99 529.200195312 c 1,4,-1
 -126 512.400390625 l 1,5,-1
 -154.799804688 506.400390625 l 1,6,7
 -163.200195312 506.400390625 -163.200195312 506.400390625 -179.400390625 511.799804688 c 1,8,9
 -186 515.400390625 -186 515.400390625 -205.799804688 530.400390625 c 1,10,11
 -215.400390625 543.599609375 -215.400390625 543.599609375 -220.200195312 556.799804688 c 1,12,-1
 -224.400390625 570.599609375 l 1,13,-1
 -226.200195312 586.200195312 l 1,14,15
 -226.200195312 615 -226.200195312 615 -202.200195312 637.200195312 c 0,16,17
 -193.200195312 645.599609375 -193.200195312 645.599609375 -175.200195312 651.599609375 c 1,18,19
 -158.400390625 658.200195312 -158.400390625 658.200195312 -147.599609375 658.200195312 c 0,20,21
 -135.599609375 658.200195312 -135.599609375 658.200195312 -123 652.5 c 128,-1,22
 -110.400390625 646.799804688 -110.400390625 646.799804688 -97.7998046875 636 c 1,23,-1
 -81 608.400390625 l 1,24,-1
 -76.7998046875 594.599609375 l 1,25,-1
 -75 579 l 1,0,1
-109.200195312 581.400390625 m 1,26,27
 -109.200195312 589.799804688 -109.200195312 589.799804688 -118.200195312 607.799804688 c 1,28,-1
 -130.799804688 616.799804688 l 1,29,-1
 -150 624.599609375 l 1,30,31
 -154.799804688 624.599609375 -154.799804688 624.599609375 -174 613.799804688 c 1,32,33
 -178.200195312 609.599609375 -178.200195312 609.599609375 -183 600.599609375 c 2,34,-1
 -191.400390625 585 l 1,35,36
 -191.400390625 568.799804688 -191.400390625 568.799804688 -181.200195312 555 c 0,37,38
 -177.599609375 549.599609375 -177.599609375 549.599609375 -169.799804688 545.400390625 c 1,39,-1
 -153 541.799804688 l 1,40,41
 -147 541.799804688 -147 541.799804688 -136.799804688 546 c 2,42,-1
 -122.400390625 552.599609375 l 1,43,-1
 -114 567 l 1,44,-1
 -109.200195312 581.400390625 l 1,26,27
EndSplineSet
EndChar

StartChar: u103A
Encoding: 4154 4154 18
Width: 22
VWidth: 600
GlyphClass: 4
Flags: W
AnchorPoint: "Anchor-3" -150 394.2 mark 0
LayerCount: 2
Fore
SplineSet
70.7998046875 661.200195312 m 1,0,-1
 70.7998046875 654 l 1,1,-1
 66.599609375 648.599609375 l 1,2,-1
 58.7998046875 649.799804688 l 1,3,-1
 50.400390625 651 l 1,4,-1
 42.599609375 652.799804688 l 1,5,-1
 35.400390625 654 l 1,6,-1
 28.7998046875 655.200195312 l 1,7,-1
 8.400390625 658.799804688 l 1,8,-1
 -13.7998046875 663 l 1,9,-1
 -20.400390625 664.200195312 l 1,10,-1
 -47.400390625 666.599609375 l 1,11,12
 -79.7998046875 666.599609375 -79.7998046875 666.599609375 -124.200195312 646.799804688 c 1,13,14
 -171 623.400390625 -171 623.400390625 -190.799804688 576 c 1,15,-1
 -195.599609375 563.400390625 l 1,16,-1
 -201 550.200195312 l 1,17,-1
 -201.599609375 534.599609375 l 1,18,-1
 -203.400390625 526.799804688 l 1,19,-1
 -205.200195312 518.400390625 l 1,20,-1
 -206.400390625 508.200195312 l 1,21,22
 -207.599609375 504.599609375 -207.599609375 504.599609375 -204 498.599609375 c 1,23,-1
 -186 505.200195312 l 1,24,-1
 -172.799804688 507 l 1,25,26
 -158.400390625 505.200195312 -158.400390625 505.200195312 -149.400390625 494.400390625 c 1,27,28
 -139.799804688 484.799804688 -139.799804688 484.799804688 -139.799804688 469.200195312 c 1,29,-1
 -140.400390625 460.200195312 l 1,30,31
 -144 444 -144 444 -159 432.599609375 c 1,32,-1
 -172.799804688 427.200195312 l 1,33,-1
 -186.599609375 426 l 1,34,-1
 -199.799804688 429 l 1,35,-1
 -208.200195312 433.200195312 l 1,36,-1
 -218.400390625 446.400390625 l 1,37,-1
 -228 462.599609375 l 1,38,-1
 -234 484.200195312 l 1,39,-1
 -237.599609375 503.400390625 l 1,40,-1
 -238.200195312 531.599609375 l 1,41,-1
 -232.200195312 556.799804688 l 1,42,-1
 -225 582 l 1,43,44
 -213.599609375 611.400390625 -213.599609375 611.400390625 -193.200195312 630.599609375 c 1,45,46
 -183.599609375 642 -183.599609375 642 -171 650.400390625 c 2,47,-1
 -141 670.200195312 l 1,48,49
 -127.799804688 678 -127.799804688 678 -112.799804688 682.799804688 c 1,50,-1
 -95.400390625 687.599609375 l 1,51,-1
 -78 693 l 1,52,-1
 -47.400390625 695.400390625 l 1,53,54
 -33 695.400390625 -33 695.400390625 -11.400390625 691.799804688 c 2,55,-1
 18 686.400390625 l 1,56,-1
 24 684.599609375 l 1,57,58
 27.599609375 684.599609375 27.599609375 684.599609375 36 680.400390625 c 1,59,60
 55.2001953125 675 55.2001953125 675 70.7998046875 661.200195312 c 1,0,-1
EndSplineSet
EndChar

StartChar: u103B
Encoding: 4155 4155 19
Width: 109
VWidth: 600
GlyphClass: 4
Flags: W
AnchorPoint: "Anchor-0" -52.2002 10.7998 mark 0
LayerCount: 2
Fore
SplineSet
-59.400390625 -300.599609375 m 1,0,-1
 -39.599609375 -309.599609375 l 1,1,2
 -12.599609375 -320.400390625 -12.599609375 -320.400390625 4.2001953125 -320.400390625 c 0,3,4
 25.7998046875 -320.400390625 25.7998046875 -320.400390625 33 -303 c 1,5,-1
 36 -283.799804688 l 1,6,-1
 38.400390625 -261 l 1,7,-1
 39 -238.799804688 l 1,8,-1
 39.599609375 271.799804688 l 1,9,-1
 39.599609375 358.200195312 l 2,10,11
 39.599609375 381.599609375 39.599609375 381.599609375 62.400390625 381.599609375 c 0,12,13
 83.400390625 381.599609375 83.400390625 381.599609375 83.400390625 360.599609375 c 2,14,-1
 83.400390625 279.599609375 l 1,15,-1
 83.400390625 273 l 1,16,-1
 83.400390625 259.799804688 l 1,17,-1
 83.400390625 215.400390625 l 1,18,-1
 83.400390625 161.400390625 l 1,19,-1
 83.400390625 106.799804688 l 1,20,-1
 83.400390625 55.2001953125 l 1,21,-1
 83.400390625 9 l 1,22,-1
 83.400390625 -30.599609375 l 1,23,-1
 83.400390625 -64.7998046875 l 1,24,-1
 83.400390625 -93 l 1,25,-1
 83.400390625 -116.400390625 l 1,26,-1
 83.400390625 -135.599609375 l 1,27,-1
 83.400390625 -151.200195312 l 1,28,-1
 83.400390625 -163.799804688 l 1,29,-1
 83.400390625 -174 l 1,30,-1
 83.400390625 -182.400390625 l 1,31,-1
 83.400390625 -189 l 1,32,-1
 82.7998046875 -205.799804688 l 1,33,-1
 82.7998046875 -219.599609375 l 1,34,-1
 81 -280.799804688 l 1,35,36
 77.400390625 -317.400390625 77.400390625 -317.400390625 71.7001953125 -330 c 128,-1,37
 66 -342.599609375 66 -342.599609375 54 -351 c 1,38,-1
 37.7998046875 -357 l 1,39,-1
 15 -359.400390625 l 1,40,41
 -16.2001953125 -359.400390625 -16.2001953125 -359.400390625 -39 -351.599609375 c 1,42,43
 -68.400390625 -344.400390625 -68.400390625 -344.400390625 -95.400390625 -329.400390625 c 0,44,45
 -112.200195312 -319.799804688 -112.200195312 -319.799804688 -129.900390625 -301.799804688 c 128,-1,46
 -147.599609375 -283.799804688 -147.599609375 -283.799804688 -154.799804688 -269.400390625 c 1,47,-1
 -163.200195312 -246 l 1,48,-1
 -168 -197.400390625 l 1,49,-1
 -166.799804688 -130.200195312 l 1,50,-1
 -165.599609375 -62.400390625 l 1,51,-1
 -164.400390625 -25.7998046875 l 1,52,-1
 -163.200195312 12 l 1,53,54
 -163.200195312 33 -163.200195312 33 -141.599609375 33 c 0,55,56
 -120.599609375 33 -120.599609375 33 -120.599609375 12 c 1,57,-1
 -126 -36 l 1,58,59
 -131.400390625 -93.599609375 -131.400390625 -93.599609375 -131.400390625 -141.599609375 c 1,60,-1
 -130.799804688 -174 l 1,61,-1
 -130.200195312 -190.799804688 l 1,62,-1
 -130.200195312 -198 l 1,63,-1
 -127.799804688 -210.599609375 l 1,64,-1
 -126 -228.599609375 l 1,65,-1
 -123 -238.799804688 l 1,66,-1
 -117.599609375 -252 l 1,67,68
 -110.400390625 -271.200195312 -110.400390625 -271.200195312 -89.400390625 -285 c 1,69,-1
 -59.400390625 -300.599609375 l 1,0,-1
EndSplineSet
Ligature2: "'clig' Contextual Ligatures lookup 7 subtable" u103B u103C
Ligature2: "'clig' Contextual Ligatures lookup 5 subtable" u103B u1031
EndChar

StartChar: u103C
Encoding: 4156 4156 20
Width: 123
VWidth: 600
GlyphClass: 3
Flags: W
LayerCount: 2
Fore
SplineSet
697.799804688 -45 m 1,0,-1
 701.400390625 -59.400390625 l 1,1,-1
 702.599609375 -74.400390625 l 1,2,3
 702.599609375 -99 702.599609375 -99 672 -133.200195312 c 1,4,5
 658.200195312 -145.200195312 658.200195312 -145.200195312 588.599609375 -189.599609375 c 1,6,-1
 550.799804688 -211.200195312 l 1,7,-1
 517.200195312 -228.599609375 l 1,8,9
 493.200195312 -240 493.200195312 -240 471.599609375 -246.599609375 c 2,10,-1
 424.200195312 -260.400390625 l 1,11,-1
 400.799804688 -263.400390625 l 1,12,-1
 375 -264.599609375 l 1,13,-1
 367.799804688 -264.599609375 l 1,14,-1
 344.400390625 -264 l 2,15,16
 332.400390625 -264 332.400390625 -264 322.799804688 -261.599609375 c 1,17,-1
 305.400390625 -259.200195312 l 1,18,19
 298.799804688 -259.200195312 298.799804688 -259.200195312 288.599609375 -255.599609375 c 1,20,-1
 277.200195312 -253.200195312 l 1,21,-1
 264.599609375 -249 l 1,22,23
 211.799804688 -233.400390625 211.799804688 -233.400390625 176.400390625 -197.400390625 c 2,24,-1
 135.599609375 -156.599609375 l 1,25,-1
 119.400390625 -139.799804688 l 1,26,-1
 106.799804688 -124.799804688 l 1,27,-1
 100.200195312 -114.599609375 l 1,28,-1
 92.400390625 -98.400390625 l 1,29,-1
 66 -40.2001953125 l 2,30,31
 58.7998046875 -24 58.7998046875 -24 53.400390625 -2.400390625 c 2,32,-1
 48.599609375 18.599609375 l 1,33,-1
 43.7998046875 44.400390625 l 1,34,35
 36.599609375 94.2001953125 36.599609375 94.2001953125 36.599609375 153 c 1,36,-1
 37.7998046875 189.599609375 l 1,37,-1
 39 226.799804688 l 1,38,-1
 40.7998046875 261 l 1,39,-1
 43.2001953125 285 l 1,40,-1
 46.7998046875 301.200195312 l 1,41,42
 57 374.400390625 57 374.400390625 70.2001953125 412.799804688 c 1,43,44
 91.7998046875 470.400390625 91.7998046875 470.400390625 113.400390625 505.200195312 c 1,45,46
 138.599609375 537.599609375 138.599609375 537.599609375 199.200195312 575.099609375 c 128,-1,47
 259.799804688 612.599609375 259.799804688 612.599609375 344.400390625 634.200195312 c 1,48,-1
 381 641.400390625 l 1,49,-1
 425.400390625 648 l 1,50,51
 443.400390625 649.799804688 443.400390625 649.799804688 504.599609375 633.599609375 c 2,52,-1
 585 612 l 1,53,54
 604.799804688 608.400390625 604.799804688 608.400390625 616.200195312 608.400390625 c 0,55,56
 633.599609375 608.400390625 633.599609375 608.400390625 651 624 c 0,57,58
 661.799804688 633 661.799804688 633 664.200195312 650.400390625 c 1,59,-1
 669.599609375 681.599609375 l 1,60,-1
 687.599609375 736.200195312 l 1,61,-1
 723.599609375 844.799804688 l 2,62,63
 732 871.799804688 732 871.799804688 742.799804688 883.799804688 c 1,64,65
 751.799804688 896.400390625 751.799804688 896.400390625 760.200195312 897 c 1,66,-1
 763.799804688 893.400390625 l 1,67,-1
 768.599609375 885.599609375 l 1,68,-1
 769.799804688 873.599609375 l 1,69,-1
 769.799804688 867 l 1,70,-1
 768.599609375 859.200195312 l 1,71,-1
 766.799804688 852 l 1,72,-1
 764.400390625 843 l 1,73,-1
 735 741 l 1,74,-1
 725.400390625 685.200195312 l 1,75,76
 712.799804688 625.799804688 712.799804688 625.799804688 698.400390625 602.400390625 c 128,-1,77
 684 579 684 579 656.400390625 566.400390625 c 0,78,79
 633 555.599609375 633 555.599609375 603.599609375 555.599609375 c 1,80,-1
 591 556.200195312 l 1,81,-1
 582 558 l 1,82,-1
 390 600 l 1,83,84
 375 600 375 600 373.799804688 598.799804688 c 1,85,86
 307.799804688 585 307.799804688 585 249 553.200195312 c 0,87,88
 203.400390625 528.599609375 203.400390625 528.599609375 165 493.799804688 c 1,89,90
 152.400390625 478.799804688 152.400390625 478.799804688 117 411 c 1,91,92
 109.799804688 391.200195312 109.799804688 391.200195312 96 305.400390625 c 1,93,-1
 88.7998046875 231.599609375 l 1,94,-1
 86.400390625 160.799804688 l 1,95,96
 86.400390625 93.599609375 86.400390625 93.599609375 93.599609375 35.400390625 c 128,-1,97
 100.799804688 -22.7998046875 100.799804688 -22.7998046875 117 -57 c 1,98,99
 144 -105.599609375 144 -105.599609375 174 -132 c 1,100,-1
 252 -184.799804688 l 1,101,102
 279.599609375 -202.200195312 279.599609375 -202.200195312 308.700195312 -212.099609375 c 128,-1,103
 337.799804688 -222 337.799804688 -222 363 -222 c 0,104,105
 395.400390625 -222 395.400390625 -222 433.5 -209.700195312 c 128,-1,106
 471.599609375 -197.400390625 471.599609375 -197.400390625 520.200195312 -171 c 1,107,-1
 570.599609375 -154.200195312 l 2,108,109
 598.799804688 -145.200195312 598.799804688 -145.200195312 617.400390625 -123 c 1,110,111
 594 -123 594 -123 579 -106.200195312 c 128,-1,112
 564 -89.400390625 564 -89.400390625 564 -61.7998046875 c 0,113,114
 564 -33 564 -33 590.400390625 -16.2001953125 c 1,115,-1
 610.799804688 -6.599609375 l 1,116,117
 621.599609375 -3 621.599609375 -3 633 -3 c 1,118,119
 646.799804688 -4.7998046875 646.799804688 -4.7998046875 667.799804688 -17.099609375 c 128,-1,120
 688.799804688 -29.400390625 688.799804688 -29.400390625 697.799804688 -45 c 1,0,-1
EndSplineSet
Ligature2: "'clig' Contextual Ligatures lookup 8 subtable" guard u103C
Ligature2: "'clig' Contextual Ligatures lookup 5 subtable" u103C u1031
EndChar

StartChar: u103D
Encoding: 4157 4157 21
Width: 0
VWidth: 600
GlyphClass: 4
Flags: W
AnchorPoint: "Anchor-1" -192 0 mark 0
LayerCount: 2
Fore
SplineSet
-41.400390625 -201 m 2,0,-1
 -41.400390625 -226.200195312 l 1,1,-1
 -44.400390625 -248.400390625 l 1,2,-1
 -46.2001953125 -262.200195312 l 1,3,-1
 -51.599609375 -278.400390625 l 1,4,5
 -62.400390625 -315 -62.400390625 -315 -84.599609375 -346.799804688 c 1,6,7
 -102 -368.400390625 -102 -368.400390625 -131.400390625 -390 c 1,8,9
 -156.599609375 -406.200195312 -156.599609375 -406.200195312 -190.799804688 -406.200195312 c 0,10,11
 -243.599609375 -406.200195312 -243.599609375 -406.200195312 -295.799804688 -346.799804688 c 1,12,13
 -314.400390625 -322.200195312 -314.400390625 -322.200195312 -326.400390625 -282.599609375 c 1,14,-1
 -331.200195312 -264 l 1,15,-1
 -336 -243 l 1,16,17
 -339.599609375 -223.799804688 -339.599609375 -223.799804688 -339.599609375 -201 c 0,18,19
 -339.599609375 -120.599609375 -339.599609375 -120.599609375 -297.599609375 -58.7998046875 c 128,-1,20
 -255.599609375 3 -255.599609375 3 -190.799804688 3 c 0,21,22
 -133.799804688 3 -133.799804688 3 -87.599609375 -54 c 128,-1,23
 -41.400390625 -111 -41.400390625 -111 -41.400390625 -201 c 2,0,-1
-75 -201 m 0,24,25
 -75 -136.200195312 -75 -136.200195312 -108 -88.7998046875 c 1,26,27
 -126 -67.2001953125 -126 -67.2001953125 -146.400390625 -54 c 1,28,29
 -174 -42.599609375 -174 -42.599609375 -190.799804688 -42.599609375 c 0,30,31
 -211.200195312 -42.599609375 -211.200195312 -42.599609375 -231.599609375 -53.099609375 c 128,-1,32
 -252 -63.599609375 -252 -63.599609375 -271.200195312 -87.599609375 c 1,33,34
 -306 -133.200195312 -306 -133.200195312 -306 -201 c 0,35,36
 -306 -264.599609375 -306 -264.599609375 -272.400390625 -313.200195312 c 1,37,38
 -242.400390625 -358.799804688 -242.400390625 -358.799804688 -190.799804688 -358.799804688 c 0,39,40
 -144 -358.799804688 -144 -358.799804688 -109.5 -313.5 c 128,-1,41
 -75 -268.200195312 -75 -268.200195312 -75 -201 c 0,24,25
EndSplineSet
EndChar

StartChar: u105E
Encoding: 4190 4190 22
Width: 19
VWidth: 600
GlyphClass: 4
Flags: W
AnchorPoint: "Anchor-1" -240 0 mark 0
LayerCount: 2
Fore
SplineSet
-382.799804688 -194.400390625 m 0,0,1
 -381.599609375 -201 -381.599609375 -201 -374.400390625 -205.200195312 c 1,2,-1
 -351.599609375 -214.200195312 l 1,3,-1
 -344.400390625 -214.799804688 l 1,4,-1
 -320.400390625 -213 l 1,5,-1
 -285 -207 l 1,6,7
 -229.200195312 -196.799804688 -229.200195312 -196.799804688 -229.200195312 -189.599609375 c 256,8,9
 -229.200195312 -182.400390625 -229.200195312 -182.400390625 -279 -169.200195312 c 1,10,-1
 -328.799804688 -158.400390625 l 1,11,-1
 -333 -157.799804688 l 1,12,-1
 -339.599609375 -157.799804688 l 1,13,-1
 -352.799804688 -158.400390625 l 2,14,15
 -358.200195312 -158.400390625 -358.200195312 -158.400390625 -363 -162.599609375 c 1,16,17
 -374.400390625 -169.200195312 -374.400390625 -169.200195312 -379.5 -176.400390625 c 128,-1,18
 -384.599609375 -183.599609375 -384.599609375 -183.599609375 -382.799804688 -194.400390625 c 0,0,1
-174 -201.599609375 m 1,19,-1
 -214.799804688 -214.799804688 l 1,20,-1
 -229.799804688 -220.200195312 l 1,21,-1
 -258 -229.200195312 l 1,22,23
 -299.400390625 -240 -299.400390625 -240 -337.799804688 -240 c 0,24,25
 -355.799804688 -240 -355.799804688 -240 -368.400390625 -236.400390625 c 2,26,-1
 -383.400390625 -231.599609375 l 2,27,28
 -391.200195312 -228.599609375 -391.200195312 -228.599609375 -396 -223.200195312 c 0,29,30
 -406.799804688 -212.400390625 -406.799804688 -212.400390625 -406.799804688 -196.799804688 c 0,31,32
 -406.799804688 -180.599609375 -406.799804688 -180.599609375 -396.299804688 -164.700195312 c 128,-1,33
 -385.799804688 -148.799804688 -385.799804688 -148.799804688 -369.599609375 -140.400390625 c 1,34,-1
 -356.400390625 -136.799804688 l 1,35,-1
 -340.799804688 -135.599609375 l 1,36,-1
 -330 -135.599609375 l 1,37,-1
 -322.200195312 -136.799804688 l 1,38,-1
 -258 -151.200195312 l 1,39,-1
 -201 -165.599609375 l 1,40,-1
 -188.400390625 -169.200195312 l 1,41,-1
 -177.599609375 -170.400390625 l 1,42,-1
 -159.599609375 -166.799804688 l 2,43,44
 -147.599609375 -163.799804688 -147.599609375 -163.799804688 -140.400390625 -158.400390625 c 0,45,46
 -118.799804688 -142.200195312 -118.799804688 -142.200195312 -111 -115.799804688 c 1,47,-1
 -110.400390625 -105 l 1,48,49
 -110.400390625 -85.2001953125 -110.400390625 -85.2001953125 -123 -65.400390625 c 2,50,-1
 -126 -60.599609375 l 1,51,-1
 -132 -55.7998046875 l 1,52,53
 -133.799804688 -62.400390625 -133.799804688 -62.400390625 -138.599609375 -65.7001953125 c 128,-1,54
 -143.400390625 -69 -143.400390625 -69 -156 -70.7998046875 c 1,55,56
 -167.400390625 -70.7998046875 -167.400390625 -70.7998046875 -174.599609375 -66 c 0,57,58
 -184.200195312 -59.400390625 -184.200195312 -59.400390625 -184.200195312 -44.400390625 c 0,59,60
 -184.200195312 -14.400390625 -184.200195312 -14.400390625 -159.599609375 -14.400390625 c 1,61,-1
 -145.200195312 -15.599609375 l 2,62,63
 -142.200195312 -15.599609375 -142.200195312 -15.599609375 -124.799804688 -24.599609375 c 0,64,65
 -115.799804688 -29.400390625 -115.799804688 -29.400390625 -99.2998046875 -52.7998046875 c 128,-1,66
 -82.7998046875 -76.2001953125 -82.7998046875 -76.2001953125 -82.7998046875 -103.799804688 c 1,67,-1
 -84.599609375 -121.200195312 l 2,68,69
 -86.400390625 -138 -86.400390625 -138 -101.400390625 -153 c 128,-1,70
 -116.400390625 -168 -116.400390625 -168 -140.400390625 -178.200195312 c 1,71,-1
 -55.7998046875 -196.200195312 l 1,72,-1
 18.599609375 -216 l 1,73,-1
 37.7998046875 -222 l 1,74,-1
 57 -232.799804688 l 1,75,-1
 61.2001953125 -240 l 1,76,77
 64.7998046875 -249.599609375 64.7998046875 -249.599609375 54.599609375 -249.599609375 c 0,78,79
 46.7998046875 -249.599609375 46.7998046875 -249.599609375 44.400390625 -248.400390625 c 2,80,-1
 31.2001953125 -244.799804688 l 1,81,-1
 3 -235.799804688 l 1,82,-1
 -33.599609375 -228 l 1,83,-1
 -57.599609375 -223.200195312 l 1,84,-1
 -123.599609375 -211.799804688 l 1,85,-1
 -153 -207 l 1,86,-1
 -174 -201.599609375 l 1,19,-1
EndSplineSet
Ligature2: "'clig' Contextual Ligatures lookup 7 subtable" u105E u103C
Ligature2: "'clig' Contextual Ligatures lookup 5 subtable" u105E u1031
EndChar

StartChar: u1075
Encoding: 4213 4213 23
Width: 705
VWidth: 600
GlyphClass: 3
Flags: W
AnchorPoint: "Anchor-3" 462 416.4 basechar 0
AnchorPoint: "Anchor-2" 322.2 0 basechar 0
AnchorPoint: "Anchor-1" 527.4 0 basechar 0
AnchorPoint: "Anchor-0" 619.8 0 basechar 0
LayerCount: 2
Fore
SplineSet
544.200195312 -3.599609375 m 2,0,-1
 537.599609375 -3.599609375 l 2,1,2
 528 -3.599609375 528 -3.599609375 517.200195312 0 c 1,3,4
 512.400390625 2.400390625 512.400390625 2.400390625 498 20.400390625 c 1,5,6
 493.200195312 28.7998046875 493.200195312 28.7998046875 493.200195312 41.400390625 c 0,7,8
 493.200195312 49.7998046875 493.200195312 49.7998046875 498.599609375 63 c 128,-1,9
 504 76.2001953125 504 76.2001953125 517.799804688 86.400390625 c 1,10,-1
 529.200195312 91.2001953125 l 1,11,-1
 541.200195312 93 l 1,12,13
 553.799804688 93 553.799804688 93 568.200195312 84 c 1,14,15
 578.400390625 76.2001953125 578.400390625 76.2001953125 582.599609375 68.400390625 c 1,16,-1
 595.799804688 84.599609375 l 1,17,-1
 608.400390625 102 l 1,18,19
 637.799804688 164.400390625 637.799804688 164.400390625 637.799804688 212.400390625 c 0,20,21
 637.799804688 282.599609375 637.799804688 282.599609375 581.400390625 335.400390625 c 128,-1,22
 525 388.200195312 525 388.200195312 460.799804688 388.200195312 c 0,23,24
 406.200195312 388.200195312 406.200195312 388.200195312 360.599609375 354.299804688 c 128,-1,25
 315 320.400390625 315 320.400390625 298.799804688 266.400390625 c 2,26,-1
 297 260.400390625 l 1,27,-1
 296.400390625 247.200195312 l 1,28,29
 293.400390625 244.200195312 293.400390625 244.200195312 275.400390625 179.400390625 c 1,30,-1
 259.200195312 105.599609375 l 1,31,-1
 259.200195312 97.7998046875 l 1,32,-1
 258 86.400390625 l 1,33,34
 258 79.2001953125 258 79.2001953125 252.599609375 70.2001953125 c 1,35,36
 246 55.2001953125 246 55.2001953125 232.200195312 39.599609375 c 1,37,38
 204.599609375 4.7998046875 204.599609375 4.7998046875 160.799804688 4.7998046875 c 1,39,-1
 148.200195312 6.599609375 l 1,40,-1
 136.799804688 12 l 1,41,-1
 105 39 l 1,42,-1
 87.599609375 58.7998046875 l 1,43,-1
 71.400390625 79.2001953125 l 2,44,45
 44.400390625 113.400390625 44.400390625 113.400390625 33 147 c 1,46,-1
 27.599609375 166.200195312 l 1,47,-1
 22.7998046875 189 l 1,48,-1
 19.7998046875 215.400390625 l 1,49,-1
 19.2001953125 237.599609375 l 1,50,-1
 19.7998046875 262.200195312 l 1,51,-1
 19.7998046875 274.799804688 l 2,52,53
 19.7998046875 280.799804688 19.7998046875 280.799804688 22.7998046875 285.599609375 c 1,54,55
 25.7998046875 300.599609375 25.7998046875 300.599609375 40.2001953125 316.200195312 c 2,56,-1
 58.7998046875 336.599609375 l 1,57,58
 69.599609375 345.599609375 69.599609375 345.599609375 86.400390625 345.599609375 c 0,59,60
 104.400390625 345.599609375 104.400390625 345.599609375 114.599609375 339.900390625 c 128,-1,61
 124.799804688 334.200195312 124.799804688 334.200195312 134.400390625 313.200195312 c 1,62,-1
 136.200195312 300.599609375 l 1,63,-1
 136.200195312 294 l 2,64,65
 136.200195312 289.200195312 136.200195312 289.200195312 135 288 c 1,66,67
 135 282 135 282 129 271.799804688 c 2,68,-1
 123.599609375 262.200195312 l 1,69,-1
 117 255.599609375 l 1,70,-1
 106.200195312 249 l 1,71,-1
 92.400390625 246.599609375 l 1,72,-1
 82.7998046875 247.799804688 l 1,73,-1
 69.599609375 249 l 1,74,75
 60.599609375 249 60.599609375 249 60.599609375 233.400390625 c 0,76,77
 60.599609375 216.599609375 60.599609375 216.599609375 61.7998046875 214.200195312 c 1,78,-1
 67.2001953125 189.599609375 l 1,79,-1
 75.599609375 154.200195312 l 1,80,-1
 82.7998046875 134.400390625 l 1,81,-1
 94.7998046875 113.400390625 l 1,82,83
 100.200195312 102 100.200195312 102 126 78 c 1,84,-1
 141.599609375 58.7998046875 l 1,85,86
 152.400390625 46.7998046875 152.400390625 46.7998046875 163.200195312 46.7998046875 c 0,87,88
 183 46.7998046875 183 46.7998046875 202.799804688 66.599609375 c 1,89,90
 214.799804688 87.599609375 214.799804688 87.599609375 214.799804688 103.200195312 c 1,91,92
 220.200195312 150 220.200195312 150 225.599609375 177.599609375 c 0,93,94
 236.400390625 227.400390625 236.400390625 227.400390625 249.599609375 243.599609375 c 1,95,-1
 251.400390625 249.599609375 l 1,96,-1
 252 262.799804688 l 1,97,-1
 255.599609375 276.599609375 l 1,98,99
 288 354.599609375 288 354.599609375 337.200195312 391.799804688 c 128,-1,100
 386.400390625 429 386.400390625 429 460.799804688 429 c 0,101,102
 528 429 528 429 579.900390625 396.299804688 c 128,-1,103
 631.799804688 363.599609375 631.799804688 363.599609375 658.799804688 303.599609375 c 1,104,-1
 667.799804688 280.200195312 l 1,105,-1
 674.400390625 258 l 1,106,-1
 678 208.799804688 l 1,107,-1
 674.400390625 168.599609375 l 1,108,-1
 666 131.400390625 l 1,109,110
 656.400390625 99.599609375 656.400390625 99.599609375 632.400390625 65.7001953125 c 128,-1,111
 608.400390625 31.7998046875 608.400390625 31.7998046875 589.799804688 15.599609375 c 0,112,113
 567.599609375 -3.599609375 567.599609375 -3.599609375 544.200195312 -3.599609375 c 2,0,-1
EndSplineSet
Ligature2: "'clig' Contextual Ligatures lookup 7 subtable" u1075 u103C
Ligature2: "'clig' Contextual Ligatures lookup 5 subtable" u1075 u1031
MultipleSubs2: "Multiple Substitution lookup 2 subtable" guard u103C.nar u1075
MultipleSubs2: "Multiple Substitution lookup 1 subtable" guard u103C.nar.udia u1075
MultipleSubs2: "Multiple Substitution lookup 0 subtable" guard u1031 u1075
EndChar

StartChar: u1078
Encoding: 4216 4216 24
Width: 898
VWidth: 600
GlyphClass: 3
Flags: W
AnchorPoint: "Anchor-3" 633.6 416.4 basechar 0
AnchorPoint: "Anchor-2" 427.2 0 basechar 0
AnchorPoint: "Anchor-1" 640.8 0 basechar 0
AnchorPoint: "Anchor-0" 772.8 0 basechar 0
LayerCount: 2
Fore
SplineSet
460.799804688 282.599609375 m 1,0,-1
 481.799804688 297.599609375 l 2,1,2
 493.799804688 306 493.799804688 306 517.200195312 306 c 256,3,4
 540.599609375 306 540.599609375 306 567.599609375 282.599609375 c 1,5,6
 597 254.400390625 597 254.400390625 597 215.400390625 c 0,7,8
 597 180.599609375 597 180.599609375 570.599609375 152.700195312 c 128,-1,9
 544.200195312 124.799804688 544.200195312 124.799804688 519 124.799804688 c 0,10,11
 486.599609375 124.799804688 486.599609375 124.799804688 480.599609375 130.799804688 c 2,12,-1
 459 153 l 1,13,-1
 460.799804688 135.599609375 l 1,14,15
 469.200195312 115.799804688 469.200195312 115.799804688 480.599609375 105 c 1,16,-1
 502.200195312 90 l 1,17,-1
 537 67.7998046875 l 1,18,-1
 574.200195312 49.2001953125 l 1,19,-1
 603.599609375 40.7998046875 l 1,20,-1
 627.599609375 37.7998046875 l 1,21,22
 661.200195312 37.7998046875 661.200195312 37.7998046875 713.700195312 64.2001953125 c 128,-1,23
 766.200195312 90.599609375 766.200195312 90.599609375 781.799804688 117 c 1,24,-1
 792.599609375 141 l 1,25,-1
 802.799804688 170.400390625 l 1,26,-1
 808.200195312 199.799804688 l 1,27,-1
 810.599609375 226.200195312 l 1,28,29
 810.599609375 296.400390625 810.599609375 296.400390625 756 348.900390625 c 128,-1,30
 701.400390625 401.400390625 701.400390625 401.400390625 633.599609375 401.400390625 c 0,31,32
 575.400390625 401.400390625 575.400390625 401.400390625 529.200195312 366 c 0,33,34
 516 356.400390625 516 356.400390625 507.599609375 345.599609375 c 1,35,-1
 496.799804688 335.400390625 l 1,36,-1
 484.799804688 321.599609375 l 1,37,-1
 475.799804688 307.799804688 l 1,38,-1
 460.799804688 282.599609375 l 1,0,-1
412.799804688 218.400390625 m 1,39,-1
 412.200195312 236.400390625 l 2,40,41
 412.200195312 242.400390625 412.200195312 242.400390625 408 258.599609375 c 1,42,43
 406.200195312 271.799804688 406.200195312 271.799804688 395.400390625 295.200195312 c 1,44,45
 378 337.200195312 378 337.200195312 358.200195312 357 c 1,46,47
 351 365.400390625 351 365.400390625 336.599609375 373.200195312 c 1,48,49
 327.599609375 380.400390625 327.599609375 380.400390625 308.400390625 384.599609375 c 1,50,-1
 292.799804688 386.400390625 l 1,51,-1
 286.799804688 386.400390625 l 1,52,-1
 263.400390625 386.400390625 l 1,53,-1
 243.599609375 383.400390625 l 1,54,55
 237.599609375 383.400390625 237.599609375 383.400390625 229.799804688 381 c 2,56,-1
 208.799804688 374.400390625 l 1,57,58
 167.400390625 363.599609375 167.400390625 363.599609375 145.200195312 341.400390625 c 1,59,60
 124.200195312 324 124.200195312 324 104.400390625 286.799804688 c 1,61,-1
 94.7998046875 254.400390625 l 1,62,63
 91.2001953125 238.200195312 91.2001953125 238.200195312 91.2001953125 219 c 0,64,65
 91.2001953125 161.400390625 91.2001953125 161.400390625 96.2998046875 144 c 128,-1,66
 101.400390625 126.599609375 101.400390625 126.599609375 126 102 c 1,67,-1
 150 120 l 1,68,69
 154.799804688 124.799804688 154.799804688 124.799804688 174 132 c 1,70,71
 194.400390625 132 194.400390625 132 208.799804688 120 c 0,72,73
 228 104.400390625 228 104.400390625 228 75 c 2,74,-1
 228 53.400390625 l 2,75,76
 228 30 228 30 222 21.599609375 c 0,77,78
 213 9 213 9 186 9 c 0,79,80
 171 9 171 9 155.400390625 12.599609375 c 128,-1,81
 139.799804688 16.2001953125 139.799804688 16.2001953125 117 39 c 1,82,83
 82.7998046875 62.400390625 82.7998046875 62.400390625 64.2001953125 120.599609375 c 1,84,-1
 58.7998046875 140.400390625 l 1,85,-1
 53.400390625 172.799804688 l 1,86,-1
 51 194.400390625 l 1,87,-1
 50.400390625 219 l 1,88,89
 50.400390625 304.799804688 50.400390625 304.799804688 117 372.599609375 c 1,90,91
 147.599609375 401.400390625 147.599609375 401.400390625 200.400390625 417.599609375 c 0,92,93
 228 426 228 426 252 430.200195312 c 1,94,-1
 276.599609375 433.200195312 l 1,95,-1
 302.400390625 434.400390625 l 1,96,-1
 316.799804688 433.799804688 l 2,97,98
 324.599609375 433.799804688 324.599609375 433.799804688 332.400390625 430.799804688 c 2,99,-1
 342 427.200195312 l 1,100,101
 349.799804688 425.400390625 349.799804688 425.400390625 354.599609375 420.599609375 c 1,102,103
 371.400390625 411.599609375 371.400390625 411.599609375 383.400390625 396.599609375 c 1,104,105
 400.200195312 377.400390625 400.200195312 377.400390625 417.599609375 343.799804688 c 2,106,-1
 436.200195312 308.400390625 l 1,107,-1
 442.200195312 319.200195312 l 1,108,109
 456.599609375 357.599609375 456.599609375 357.599609375 465 364.200195312 c 1,110,-1
 481.200195312 382.799804688 l 1,111,-1
 510 405.599609375 l 1,112,113
 559.200195312 442.200195312 559.200195312 442.200195312 633.599609375 442.200195312 c 0,114,115
 702.599609375 442.200195312 702.599609375 442.200195312 754.5 409.5 c 128,-1,116
 806.400390625 376.799804688 806.400390625 376.799804688 831.599609375 316.799804688 c 1,117,118
 844.200195312 291.599609375 844.200195312 291.599609375 847.799804688 271.200195312 c 1,119,-1
 851.400390625 222 l 1,120,-1
 847.799804688 181.799804688 l 1,121,-1
 839.400390625 144.599609375 l 2,122,123
 837 135 837 135 825 111 c 1,124,-1
 819.599609375 101.400390625 l 1,125,-1
 814.799804688 93 l 1,126,-1
 802.200195312 76.2001953125 l 1,127,128
 783 51.599609375 783 51.599609375 734.700195312 27 c 128,-1,129
 686.400390625 2.400390625 686.400390625 2.400390625 642.599609375 2.400390625 c 2,130,-1
 635.400390625 2.400390625 l 2,131,132
 608.400390625 2.400390625 608.400390625 2.400390625 595.5 4.2001953125 c 128,-1,133
 582.599609375 6 582.599609375 6 573.900390625 7.7998046875 c 128,-1,134
 565.200195312 9.599609375 565.200195312 9.599609375 553.200195312 14.400390625 c 1,135,136
 504 28.7998046875 504 28.7998046875 474 58.7998046875 c 1,137,-1
 458.400390625 75 l 1,138,-1
 445.799804688 91.2001953125 l 1,139,-1
 428.400390625 114 l 1,140,-1
 420.599609375 151.799804688 l 1,141,-1
 415.799804688 187.200195312 l 1,142,-1
 412.799804688 218.400390625 l 1,39,-1
EndSplineSet
Ligature2: "'clig' Contextual Ligatures lookup 7 subtable" u1078 u103C
Ligature2: "'clig' Contextual Ligatures lookup 5 subtable" u1078 u1031
MultipleSubs2: "Multiple Substitution lookup 2 subtable" guard u103C u1078
MultipleSubs2: "Multiple Substitution lookup 1 subtable" guard u103C.udia u1078
MultipleSubs2: "Multiple Substitution lookup 0 subtable" guard u1031 u1078
EndChar

StartChar: u107A
Encoding: 4218 4218 25
Width: 930
VWidth: 600
GlyphClass: 3
Flags: W
AnchorPoint: "Anchor-3" 698.4 416.4 basechar 0
AnchorPoint: "Anchor-2" 494.4 0 basechar 0
AnchorPoint: "Anchor-1" 760.8 0 basechar 0
LayerCount: 2
Fore
SplineSet
466.799804688 99 m 1,0,-1
 492 156 l 1,1,2
 504 189 504 189 504 212.400390625 c 0,3,4
 504 285 504 285 452.400390625 337.5 c 128,-1,5
 400.799804688 390 400.799804688 390 342.599609375 390 c 0,6,7
 330.599609375 390 330.599609375 390 316.200195312 382.799804688 c 1,8,-1
 299.400390625 366 l 1,9,10
 279.599609375 348 279.599609375 348 265.799804688 321.900390625 c 128,-1,11
 252 295.799804688 252 295.799804688 244.799804688 266.400390625 c 1,12,-1
 243 260.400390625 l 1,13,-1
 242.400390625 247.200195312 l 1,14,-1
 231.599609375 177 l 2,15,16
 228 153 228 153 222.599609375 134.400390625 c 1,17,-1
 213.599609375 112.799804688 l 1,18,-1
 208.799804688 98.400390625 l 1,19,20
 208.799804688 87 208.799804688 87 202.200195312 80.400390625 c 2,21,-1
 193.799804688 71.400390625 l 1,22,-1
 180.599609375 60 l 1,23,-1
 162.599609375 48.599609375 l 1,24,-1
 147 40.7998046875 l 1,25,-1
 133.200195312 37.2001953125 l 1,26,-1
 118.799804688 36 l 1,27,28
 106.799804688 36 106.799804688 36 87 41.400390625 c 1,29,-1
 59.400390625 54 l 2,30,31
 51.599609375 57.599609375 51.599609375 57.599609375 41.400390625 80.400390625 c 1,32,-1
 34.2001953125 97.7998046875 l 1,33,-1
 24 123.599609375 l 1,34,-1
 20.400390625 143.400390625 l 1,35,-1
 18.599609375 175.799804688 l 1,36,-1
 16.7998046875 259.799804688 l 2,37,38
 16.7998046875 280.200195312 16.7998046875 280.200195312 23.099609375 296.099609375 c 128,-1,39
 29.400390625 312 29.400390625 312 43.2001953125 330.599609375 c 1,40,-1
 61.2001953125 343.799804688 l 2,41,42
 70.2001953125 350.400390625 70.2001953125 350.400390625 79.2001953125 351 c 1,43,44
 94.2001953125 351 94.2001953125 351 108 339.599609375 c 1,45,46
 124.799804688 324.599609375 124.799804688 324.599609375 124.799804688 299.400390625 c 0,47,48
 124.799804688 283.200195312 124.799804688 283.200195312 108.599609375 260.400390625 c 1,49,50
 94.7998046875 246 94.7998046875 246 79.7998046875 246 c 1,51,-1
 64.7998046875 251.400390625 l 1,52,-1
 53.400390625 263.400390625 l 1,53,-1
 53.400390625 252 l 1,54,-1
 52.7998046875 220.200195312 l 1,55,-1
 52.7998046875 193.200195312 l 1,56,-1
 53.400390625 148.799804688 l 2,57,58
 53.400390625 131.400390625 53.400390625 131.400390625 56.400390625 125.400390625 c 1,59,60
 61.7998046875 106.799804688 61.7998046875 106.799804688 72 93.599609375 c 2,61,-1
 80.400390625 83.400390625 l 1,62,-1
 86.400390625 78 l 1,63,-1
 99.599609375 72.599609375 l 1,64,-1
 122.400390625 70.2001953125 l 1,65,-1
 129.599609375 70.2001953125 l 2,66,67
 146.400390625 70.2001953125 146.400390625 70.2001953125 153 72.599609375 c 1,68,69
 160.799804688 74.400390625 160.799804688 74.400390625 167.400390625 90 c 1,70,-1
 172.799804688 112.799804688 l 1,71,72
 176.400390625 130.799804688 176.400390625 130.799804688 178.799804688 133.799804688 c 1,73,-1
 190.799804688 210 l 2,74,75
 194.400390625 235.200195312 194.400390625 235.200195312 200.400390625 243.599609375 c 1,76,-1
 202.200195312 249.599609375 l 1,77,-1
 202.200195312 262.799804688 l 1,78,-1
 205.799804688 276.599609375 l 1,79,80
 220.200195312 318 220.200195312 318 236.400390625 347.099609375 c 128,-1,81
 252.599609375 376.200195312 252.599609375 376.200195312 275.400390625 396 c 2,82,-1
 304.200195312 421.799804688 l 1,83,84
 315 429 315 429 344.400390625 429 c 0,85,86
 405 429 405 429 451.799804688 395.400390625 c 1,87,88
 469.200195312 384.599609375 469.200195312 384.599609375 493.200195312 354 c 1,89,-1
 525 302.400390625 l 1,90,-1
 530.400390625 313.200195312 l 1,91,92
 536.400390625 335.400390625 536.400390625 335.400390625 550.200195312 357.599609375 c 1,93,-1
 557.400390625 368.400390625 l 1,94,-1
 564.599609375 376.799804688 l 1,95,-1
 591 399.599609375 l 2,96,97
 612 417 612 417 642 426.599609375 c 1,98,-1
 672 433.799804688 l 1,99,-1
 702.599609375 436.200195312 l 1,100,101
 763.799804688 436.200195312 763.799804688 436.200195312 810.900390625 403.799804688 c 128,-1,102
 858 371.400390625 858 371.400390625 880.799804688 310.799804688 c 2,103,-1
 889.799804688 286.799804688 l 1,104,-1
 895.200195312 265.200195312 l 1,105,-1
 898.799804688 216 l 1,106,-1
 895.200195312 175.799804688 l 1,107,-1
 888 138.599609375 l 1,108,-1
 881.400390625 116.400390625 l 1,109,-1
 877.200195312 104.400390625 l 1,110,-1
 873.599609375 96.599609375 l 1,111,-1
 864 75.599609375 l 1,112,-1
 852.599609375 56.400390625 l 1,113,114
 834.599609375 31.2001953125 834.599609375 31.2001953125 817.200195312 17.400390625 c 1,115,116
 799.799804688 6.599609375 799.799804688 6.599609375 771.599609375 1.2001953125 c 1,117,-1
 754.799804688 4.7998046875 l 1,118,-1
 747 9.599609375 l 1,119,-1
 738.599609375 16.7998046875 l 1,120,121
 720 35.400390625 720 35.400390625 720 60.599609375 c 0,122,123
 720 89.400390625 720 89.400390625 738 105.599609375 c 0,124,125
 753 118.799804688 753 118.799804688 771 118.799804688 c 1,126,-1
 792.599609375 116.400390625 l 1,127,128
 810.599609375 112.799804688 810.599609375 112.799804688 829.799804688 97.2001953125 c 1,129,130
 841.799804688 123 841.799804688 123 851.700195312 160.200195312 c 128,-1,131
 861.599609375 197.400390625 861.599609375 197.400390625 861.599609375 220.200195312 c 0,132,133
 861.599609375 291.599609375 861.599609375 291.599609375 812.700195312 343.5 c 128,-1,134
 763.799804688 395.400390625 763.799804688 395.400390625 702.599609375 395.400390625 c 0,135,136
 654 395.400390625 654 395.400390625 609 359.400390625 c 1,137,138
 567.599609375 325.200195312 567.599609375 325.200195312 556.799804688 274.200195312 c 1,139,-1
 540 208.799804688 l 1,140,-1
 537 168.599609375 l 1,141,-1
 529.200195312 131.400390625 l 1,142,143
 525.599609375 118.799804688 525.599609375 118.799804688 483.900390625 59.099609375 c 128,-1,144
 442.200195312 -0.599609375 442.200195312 -0.599609375 429 -12 c 1,145,-1
 410.400390625 -31.2001953125 l 1,146,-1
 387.599609375 -57.599609375 l 1,147,148
 337.200195312 -118.799804688 337.200195312 -118.799804688 329.400390625 -123 c 1,149,150
 329.400390625 -130.200195312 329.400390625 -130.200195312 295.200195312 -165 c 128,-1,151
 261 -199.799804688 261 -199.799804688 245.400390625 -209.400390625 c 1,152,-1
 242.400390625 -212.400390625 l 1,153,-1
 224.400390625 -234.599609375 l 1,154,-1
 207.599609375 -262.200195312 l 1,155,-1
 208.200195312 -298.799804688 l 1,156,-1
 208.799804688 -311.400390625 l 1,157,-1
 212.400390625 -324.599609375 l 1,158,159
 214.200195312 -340.799804688 214.200195312 -340.799804688 222.599609375 -351 c 1,160,-1
 237 -355.799804688 l 1,161,-1
 250.200195312 -357.599609375 l 1,162,-1
 261 -360.599609375 l 1,163,-1
 261.599609375 -352.200195312 l 1,164,-1
 261 -345 l 1,165,-1
 257.400390625 -334.200195312 l 1,166,167
 257.400390625 -324 257.400390625 -324 261.599609375 -319.799804688 c 1,168,169
 270.599609375 -306 270.599609375 -306 283.799804688 -306 c 1,170,-1
 291 -305.400390625 l 1,171,-1
 303 -306 l 2,172,173
 310.200195312 -306 310.200195312 -306 315.599609375 -309 c 2,174,-1
 322.200195312 -312 l 1,175,-1
 331.799804688 -319.200195312 l 1,176,-1
 339.599609375 -333 l 1,177,-1
 344.400390625 -351.599609375 l 1,178,-1
 345.599609375 -366 l 1,179,-1
 342 -379.799804688 l 2,180,181
 340.799804688 -384 340.799804688 -384 339 -385.799804688 c 2,182,-1
 333.599609375 -394.200195312 l 1,183,-1
 326.400390625 -401.400390625 l 1,184,-1
 313.799804688 -409.799804688 l 1,185,-1
 303 -410.400390625 l 1,186,-1
 289.200195312 -411 l 1,187,-1
 282 -411 l 1,188,-1
 276 -411 l 1,189,-1
 270 -409.799804688 l 1,190,-1
 252.599609375 -407.400390625 l 1,191,-1
 232.200195312 -401.400390625 l 2,192,193
 220.799804688 -397.799804688 220.799804688 -397.799804688 213 -391.799804688 c 1,194,-1
 205.799804688 -382.200195312 l 1,195,-1
 198.599609375 -367.200195312 l 1,196,-1
 193.799804688 -355.200195312 l 1,197,-1
 190.200195312 -342.599609375 l 1,198,-1
 181.799804688 -310.200195312 l 1,199,-1
 177 -274.200195312 l 1,200,-1
 175.799804688 -231.599609375 l 1,201,-1
 222.599609375 -170.400390625 l 2,202,203
 232.200195312 -157.200195312 232.200195312 -157.200195312 253.799804688 -138 c 1,204,-1
 298.200195312 -102.599609375 l 1,205,206
 298.200195312 -99 298.200195312 -99 324 -67.7998046875 c 1,207,-1
 375 -9 l 1,208,-1
 428.400390625 49.7998046875 l 2,209,210
 454.200195312 78 454.200195312 78 466.799804688 99 c 1,0,-1
EndSplineSet
Ligature2: "'clig' Contextual Ligatures lookup 7 subtable" u107A u103C
Ligature2: "'clig' Contextual Ligatures lookup 5 subtable" u107A u1031
MultipleSubs2: "Multiple Substitution lookup 2 subtable" guard u103C u107A
MultipleSubs2: "Multiple Substitution lookup 1 subtable" guard u103C.udia u107A
MultipleSubs2: "Multiple Substitution lookup 0 subtable" guard u1031 u107A
EndChar

StartChar: u1083
Encoding: 4227 4227 26
Width: 379
VWidth: 600
GlyphClass: 2
Flags: W
LayerCount: 2
Fore
SplineSet
321 -333.599609375 m 1,0,-1
 311.400390625 -334.799804688 l 1,1,-1
 303.599609375 -334.799804688 l 2,2,3
 284.400390625 -334.799804688 284.400390625 -334.799804688 254.400390625 -324 c 1,4,5
 236.400390625 -316.799804688 236.400390625 -316.799804688 211.200195312 -297 c 1,6,7
 165.599609375 -267.599609375 165.599609375 -267.599609375 165.599609375 -201 c 2,8,-1
 165.599609375 338.400390625 l 2,9,10
 165.599609375 374.400390625 165.599609375 374.400390625 129.599609375 403.200195312 c 0,11,12
 114 415.200195312 114 415.200195312 92.400390625 423.299804688 c 128,-1,13
 70.7998046875 431.400390625 70.7998046875 431.400390625 51.599609375 431.400390625 c 0,14,15
 30 431.400390625 30 431.400390625 10.2001953125 426 c 1,16,-1
 -9 418.200195312 l 2,17,18
 -18.599609375 414.599609375 -18.599609375 414.599609375 -29.400390625 406.799804688 c 1,19,20
 -42 396 -42 396 -51.599609375 373.799804688 c 1,21,-1
 -57.599609375 355.200195312 l 1,22,-1
 -62.400390625 336 l 1,23,24
 -62.400390625 313.799804688 -62.400390625 313.799804688 -85.7998046875 313.799804688 c 0,25,26
 -105.599609375 313.799804688 -105.599609375 313.799804688 -105.599609375 336 c 0,27,28
 -105.599609375 360 -105.599609375 360 -92.400390625 386.400390625 c 1,29,30
 -83.400390625 408.599609375 -83.400390625 408.599609375 -60 432 c 1,31,32
 -38.400390625 449.400390625 -38.400390625 449.400390625 -9 459 c 1,33,-1
 19.7998046875 466.200195312 l 1,34,-1
 51.599609375 468.599609375 l 1,35,36
 114.599609375 468.599609375 114.599609375 468.599609375 163.200195312 434.400390625 c 0,37,38
 186.599609375 418.200195312 186.599609375 418.200195312 198.299804688 393.900390625 c 128,-1,39
 210 369.599609375 210 369.599609375 210 338.400390625 c 2,40,-1
 208.799804688 -203.400390625 l 2,41,42
 208.799804688 -237 208.799804688 -237 244.799804688 -268.799804688 c 1,43,44
 258.599609375 -279.599609375 258.599609375 -279.599609375 297.599609375 -286.799804688 c 128,-1,45
 336.599609375 -294 336.599609375 -294 360 -294 c 2,46,-1
 379.799804688 -294 l 2,47,48
 391.799804688 -294 391.799804688 -294 399.599609375 -295.799804688 c 128,-1,49
 407.400390625 -297.599609375 407.400390625 -297.599609375 408 -306 c 1,50,-1
 404.400390625 -307.799804688 l 1,51,-1
 378.599609375 -319.799804688 l 1,52,-1
 352.799804688 -327 l 1,53,-1
 321 -333.599609375 l 1,0,-1
EndSplineSet
EndChar

StartChar: u109C
Encoding: 4252 4252 27
Width: 244
VWidth: 600
GlyphClass: 2
Flags: W
LayerCount: 2
Fore
SplineSet
37.7998046875 295.200195312 m 1,0,1
 49.7998046875 295.200195312 49.7998046875 295.200195312 60.599609375 299.400390625 c 1,2,3
 73.7998046875 303 73.7998046875 303 78.599609375 309.599609375 c 1,4,5
 91.2001953125 323.400390625 91.2001953125 323.400390625 91.2001953125 343.200195312 c 0,6,7
 91.2001953125 352.799804688 91.2001953125 352.799804688 87 359.400390625 c 0,8,9
 78.599609375 375 78.599609375 375 78.599609375 379.799804688 c 0,10,11
 78.599609375 383.400390625 78.599609375 383.400390625 84 387 c 128,-1,12
 89.400390625 390.599609375 89.400390625 390.599609375 96 390.599609375 c 0,13,14
 130.200195312 390.599609375 130.200195312 390.599609375 160.5 366.900390625 c 128,-1,15
 190.799804688 343.200195312 190.799804688 343.200195312 207 297 c 1,16,-1
 225.599609375 297 l 1,17,18
 202.200195312 364.200195312 202.200195312 364.200195312 163.799804688 394.799804688 c 128,-1,19
 125.400390625 425.400390625 125.400390625 425.400390625 83.400390625 425.400390625 c 0,20,21
 61.7998046875 425.400390625 61.7998046875 425.400390625 47.400390625 420 c 1,22,-1
 30 412.200195312 l 1,23,-1
 18 402.599609375 l 1,24,25
 -7.2001953125 381.599609375 -7.2001953125 381.599609375 -7.2001953125 352.799804688 c 1,26,-1
 -6.599609375 338.400390625 l 2,27,28
 -6.599609375 330.599609375 -6.599609375 330.599609375 -4.2001953125 323.400390625 c 1,29,-1
 1.7998046875 312 l 1,30,31
 7.2001953125 304.799804688 7.2001953125 304.799804688 16.7998046875 298.799804688 c 1,32,-1
 28.7998046875 296.400390625 l 1,33,-1
 37.7998046875 295.200195312 l 1,0,1
48 331.200195312 m 0,34,35
 46.2001953125 329.400390625 46.2001953125 329.400390625 42.599609375 329.400390625 c 1,36,-1
 33 331.799804688 l 1,37,38
 27.599609375 334.799804688 27.599609375 334.799804688 22.2001953125 344.400390625 c 1,39,40
 20.400390625 349.799804688 20.400390625 349.799804688 27 360 c 1,41,42
 34.2001953125 369 34.2001953125 369 38.400390625 369.599609375 c 1,43,-1
 48.599609375 367.799804688 l 1,44,45
 52.2001953125 367.799804688 52.2001953125 367.799804688 60 358.200195312 c 0,46,47
 63 354.599609375 63 354.599609375 59.400390625 345.900390625 c 128,-1,48
 55.7998046875 337.200195312 55.7998046875 337.200195312 48 331.200195312 c 0,34,35
33.599609375 -3.599609375 m 1,49,-1
 44.400390625 -3 l 1,50,-1
 55.7998046875 0.599609375 l 2,51,52
 69 4.2001953125 69 4.2001953125 73.7998046875 10.7998046875 c 1,53,54
 87 24 87 24 87 44.400390625 c 0,55,56
 87 54.599609375 87 54.599609375 82.7998046875 60.599609375 c 1,57,58
 73.7998046875 78 73.7998046875 78 73.7998046875 82.2001953125 c 1,59,-1
 75.599609375 85.2001953125 l 1,60,-1
 79.7998046875 87.599609375 l 1,61,-1
 92.400390625 91.7998046875 l 1,62,63
 125.400390625 91.7998046875 125.400390625 91.7998046875 155.099609375 68.400390625 c 128,-1,64
 184.799804688 45 184.799804688 45 202.799804688 -1.2001953125 c 1,65,-1
 221.400390625 -1.2001953125 l 1,66,67
 199.799804688 65.400390625 199.799804688 65.400390625 160.200195312 96 c 1,68,69
 123.599609375 127.200195312 123.599609375 127.200195312 79.2001953125 127.200195312 c 0,70,71
 61.2001953125 127.200195312 61.2001953125 127.200195312 43.5 121.799804688 c 128,-1,72
 25.7998046875 116.400390625 25.7998046875 116.400390625 13.7998046875 104.400390625 c 1,73,74
 -10.7998046875 84.599609375 -10.7998046875 84.599609375 -10.7998046875 54 c 1,75,-1
 -11.400390625 40.2001953125 l 2,76,77
 -11.400390625 32.400390625 -11.400390625 32.400390625 -8.400390625 27 c 2,78,-1
 -1.2001953125 12.599609375 l 1,79,-1
 12.599609375 0.599609375 l 1,80,-1
 25.2001953125 -2.400390625 l 1,81,-1
 33.599609375 -3.599609375 l 1,49,-1
43.7998046875 33 m 0,82,83
 42 31.2001953125 42 31.2001953125 38.400390625 31.2001953125 c 1,84,-1
 29.400390625 34.2001953125 l 2,85,86
 22.2001953125 36 22.2001953125 36 18 46.2001953125 c 1,87,88
 16.2001953125 52.2001953125 16.2001953125 52.2001953125 22.7998046875 62.400390625 c 1,89,90
 30 71.400390625 30 71.400390625 34.7998046875 72 c 1,91,92
 42 72 42 72 45.599609375 70.2001953125 c 128,-1,93
 49.2001953125 68.400390625 49.2001953125 68.400390625 55.2001953125 60.599609375 c 0,94,95
 58.2001953125 57 58.2001953125 57 54.599609375 49.2001953125 c 1,96,97
 52.2001953125 42 52.2001953125 42 43.7998046875 33 c 0,82,83
EndSplineSet
EndChar

StartChar: u109D
Encoding: 4253 4253 28
Width: 4
VWidth: 600
GlyphClass: 4
Flags: W
AnchorPoint: "Anchor-3" -243 394.2 mark 0
LayerCount: 2
Fore
SplineSet
-109.799804688 559.799804688 m 1,0,1
 -120 628.200195312 -120 628.200195312 -164.400390625 666 c 1,2,-1
 -177.599609375 676.799804688 l 1,3,-1
 -192 686.400390625 l 2,4,5
 -203.400390625 694.200195312 -203.400390625 694.200195312 -220.200195312 699 c 1,6,-1
 -236.400390625 701.400390625 l 1,7,8
 -252 701.400390625 -252 701.400390625 -258 698.400390625 c 1,9,10
 -267 696.599609375 -267 696.599609375 -270 691.799804688 c 1,11,-1
 -270 676.200195312 l 1,12,-1
 -268.200195312 665.400390625 l 1,13,-1
 -268.799804688 658.799804688 l 1,14,-1
 -270.599609375 654.599609375 l 1,15,-1
 -280.200195312 639 l 1,16,-1
 -294.599609375 625.200195312 l 1,17,-1
 -313.200195312 613.799804688 l 1,18,19
 -324 608.400390625 -324 608.400390625 -339 608.400390625 c 1,20,-1
 -348.599609375 609 l 1,21,22
 -356.400390625 610.200195312 -356.400390625 610.200195312 -361.200195312 613.200195312 c 1,23,-1
 -366.599609375 615.599609375 l 1,24,-1
 -372 619.799804688 l 2,25,26
 -388.200195312 632.400390625 -388.200195312 632.400390625 -388.200195312 654 c 0,27,28
 -388.200195312 676.200195312 -388.200195312 676.200195312 -378 690.599609375 c 1,29,-1
 -368.400390625 702 l 1,30,-1
 -359.400390625 713.400390625 l 1,31,-1
 -349.799804688 723.599609375 l 1,32,-1
 -343.799804688 727.799804688 l 1,33,34
 -340.200195312 731.400390625 -340.200195312 731.400390625 -337.200195312 732 c 1,35,-1
 -316.200195312 742.799804688 l 1,36,-1
 -298.200195312 747 l 1,37,-1
 -283.200195312 747 l 1,38,-1
 -267.599609375 747.599609375 l 1,39,-1
 -241.799804688 745.799804688 l 1,40,-1
 -217.799804688 740.400390625 l 1,41,42
 -196.200195312 731.400390625 -196.200195312 731.400390625 -176.400390625 720.599609375 c 1,43,-1
 -157.799804688 708.599609375 l 1,44,-1
 -139.799804688 695.400390625 l 1,45,46
 -114 673.200195312 -114 673.200195312 -93.599609375 631.200195312 c 0,47,48
 -90 622.799804688 -90 622.799804688 -85.7998046875 611.400390625 c 1,49,50
 -85.7998046875 611.400390625 -85.7998046875 611.400390625 -79.7998046875 591 c 1,51,52
 -75 570 -75 570 -75 549.599609375 c 0,53,54
 -75 523.200195312 -75 523.200195312 -80.400390625 466.799804688 c 128,-1,55
 -85.7998046875 410.400390625 -85.7998046875 410.400390625 -94.7998046875 380.400390625 c 0,56,57
 -98.400390625 369.599609375 -98.400390625 369.599609375 -105.599609375 358.799804688 c 0,58,59
 -115.799804688 344.400390625 -115.799804688 344.400390625 -121.799804688 348 c 0,60,61
 -124.799804688 349.799804688 -124.799804688 349.799804688 -124.799804688 369 c 0,62,63
 -124.799804688 405 -124.799804688 405 -120.599609375 440.400390625 c 1,64,-1
 -109.799804688 559.799804688 l 1,0,1
EndSplineSet
EndChar

StartChar: uAA61
Encoding: 43617 43617 29
Width: 953
VWidth: 600
GlyphClass: 3
Flags: W
AnchorPoint: "Anchor-3" 732 416.4 basechar 0
AnchorPoint: "Anchor-2" 504 0 basechar 0
AnchorPoint: "Anchor-1" 715.2 0 basechar 0
AnchorPoint: "Anchor-0" 859.8 0 basechar 0
LayerCount: 2
Fore
SplineSet
552.599609375 280.799804688 m 1,0,-1
 571.799804688 291.599609375 l 1,1,2
 585 300 585 300 607.200195312 300 c 0,3,4
 630.599609375 300 630.599609375 300 657.599609375 276.599609375 c 1,5,6
 687 247.200195312 687 247.200195312 687 209.400390625 c 0,7,8
 687 174.599609375 687 174.599609375 660.599609375 146.700195312 c 128,-1,9
 634.200195312 118.799804688 634.200195312 118.799804688 609 118.799804688 c 0,10,11
 580.799804688 118.799804688 580.799804688 118.799804688 570.599609375 124.200195312 c 1,12,-1
 549 147 l 1,13,-1
 550.799804688 129.599609375 l 1,14,15
 555 118.200195312 555 118.200195312 572.400390625 99.599609375 c 1,16,-1
 593.400390625 83.400390625 l 1,17,18
 643.799804688 31.7998046875 643.799804688 31.7998046875 717.599609375 31.7998046875 c 0,19,20
 751.200195312 31.7998046875 751.200195312 31.7998046875 803.700195312 58.2001953125 c 128,-1,21
 856.200195312 84.599609375 856.200195312 84.599609375 871.799804688 111 c 1,22,-1
 882.599609375 135 l 1,23,-1
 892.799804688 164.400390625 l 1,24,-1
 898.200195312 193.799804688 l 1,25,-1
 900.599609375 220.200195312 l 1,26,27
 900.599609375 290.400390625 900.599609375 290.400390625 846 342.900390625 c 128,-1,28
 791.400390625 395.400390625 791.400390625 395.400390625 723.599609375 395.400390625 c 0,29,30
 665.400390625 395.400390625 665.400390625 395.400390625 619.200195312 360 c 0,31,32
 606 350.400390625 606 350.400390625 597.599609375 339.599609375 c 1,33,-1
 588.599609375 330 l 1,34,-1
 577.799804688 318.599609375 l 1,35,-1
 564.599609375 304.799804688 l 2,36,37
 561.599609375 301.799804688 561.599609375 301.799804688 552.599609375 280.799804688 c 1,0,-1
502.799804688 212.400390625 m 1,38,-1
 502.200195312 230.400390625 l 2,39,40
 502.200195312 236.400390625 502.200195312 236.400390625 498 252.599609375 c 1,41,42
 496.200195312 265.799804688 496.200195312 265.799804688 485.400390625 289.200195312 c 1,43,44
 468 331.200195312 468 331.200195312 448.200195312 351 c 0,45,46
 445.799804688 354 445.799804688 354 428.400390625 366.599609375 c 1,47,-1
 399 378.599609375 l 1,48,-1
 382.200195312 380.400390625 l 1,49,50
 362.400390625 380.400390625 362.400390625 380.400390625 351.599609375 369.599609375 c 128,-1,51
 340.799804688 358.799804688 340.799804688 358.799804688 335.400390625 339 c 1,52,-1
 330.599609375 307.799804688 l 1,53,-1
 329.400390625 283.799804688 l 1,54,-1
 327.599609375 256.200195312 l 1,55,-1
 320.400390625 221.400390625 l 1,56,57
 309.599609375 177.599609375 309.599609375 177.599609375 291 132 c 1,58,-1
 272.400390625 90.599609375 l 1,59,-1
 262.799804688 72 l 1,60,-1
 251.400390625 54.599609375 l 1,61,62
 241.799804688 38.400390625 241.799804688 38.400390625 215.700195312 21.900390625 c 128,-1,63
 189.599609375 5.400390625 189.599609375 5.400390625 172.799804688 5.400390625 c 0,64,65
 161.400390625 5.400390625 161.400390625 5.400390625 150 12 c 1,66,-1
 138 19.7998046875 l 1,67,-1
 121.200195312 34.2001953125 l 1,68,69
 88.7998046875 63 88.7998046875 63 72 105 c 0,70,71
 60 135 60 135 54 170.400390625 c 1,72,-1
 49.7998046875 203.400390625 l 1,73,-1
 48 234 l 1,74,-1
 48 259.200195312 l 1,75,-1
 48 271.799804688 l 1,76,-1
 50.400390625 289.200195312 l 2,77,78
 53.400390625 309 53.400390625 309 69.599609375 326.400390625 c 1,79,-1
 82.2001953125 334.799804688 l 1,80,-1
 97.7998046875 337.799804688 l 1,81,-1
 111 336.599609375 l 1,82,-1
 120 336 l 2,83,84
 139.799804688 334.200195312 139.799804688 334.200195312 150.900390625 321 c 128,-1,85
 162 307.799804688 162 307.799804688 162 276 c 0,86,87
 162 252.599609375 162 252.599609375 153.299804688 242.099609375 c 128,-1,88
 144.599609375 231.599609375 144.599609375 231.599609375 126.599609375 231.599609375 c 2,89,-1
 114 231.599609375 l 1,90,-1
 105 234 l 1,91,-1
 104.400390625 205.799804688 l 1,92,-1
 104.400390625 196.200195312 l 1,93,-1
 104.400390625 188.400390625 l 1,94,-1
 103.200195312 180 l 1,95,-1
 103.799804688 157.799804688 l 1,96,-1
 108 138 l 2,97,98
 115.200195312 106.799804688 115.200195312 106.799804688 136.5 81.900390625 c 128,-1,99
 157.799804688 57 157.799804688 57 174 57 c 0,100,101
 193.200195312 57 193.200195312 57 230.400390625 114.599609375 c 1,102,103
 257.400390625 159 257.400390625 159 276 231 c 1,104,-1
 280.799804688 258.599609375 l 1,105,-1
 286.200195312 299.400390625 l 1,106,-1
 286.799804688 317.400390625 l 2,107,108
 286.799804688 330 286.799804688 330 289.799804688 339 c 1,109,110
 291.599609375 348.599609375 291.599609375 348.599609375 297 363.599609375 c 1,111,112
 302.400390625 387 302.400390625 387 330.299804688 407.700195312 c 128,-1,113
 358.200195312 428.400390625 358.200195312 428.400390625 386.400390625 428.400390625 c 2,114,-1
 392.400390625 428.400390625 l 1,115,-1
 406.799804688 427.799804688 l 2,116,117
 414.599609375 427.799804688 414.599609375 427.799804688 422.400390625 424.799804688 c 2,118,-1
 432 421.200195312 l 1,119,120
 439.799804688 419.400390625 439.799804688 419.400390625 444.599609375 414.599609375 c 1,121,122
 461.400390625 405.599609375 461.400390625 405.599609375 473.400390625 390.599609375 c 1,123,124
 490.200195312 371.400390625 490.200195312 371.400390625 507.599609375 337.799804688 c 2,125,-1
 526.200195312 302.400390625 l 1,126,-1
 532.200195312 313.200195312 l 1,127,128
 546.599609375 351.599609375 546.599609375 351.599609375 555 358.200195312 c 1,129,-1
 571.200195312 376.799804688 l 1,130,-1
 600 399.599609375 l 1,131,132
 649.200195312 436.200195312 649.200195312 436.200195312 723.599609375 436.200195312 c 0,133,134
 792.599609375 436.200195312 792.599609375 436.200195312 844.5 403.5 c 128,-1,135
 896.400390625 370.799804688 896.400390625 370.799804688 921.599609375 310.799804688 c 1,136,137
 934.200195312 285.599609375 934.200195312 285.599609375 937.799804688 265.200195312 c 1,138,-1
 941.400390625 216 l 1,139,-1
 937.799804688 175.799804688 l 1,140,-1
 929.400390625 138.599609375 l 2,141,142
 927 129 927 129 915 105 c 1,143,-1
 909.599609375 95.400390625 l 1,144,-1
 904.799804688 87 l 1,145,-1
 892.200195312 70.2001953125 l 1,146,147
 873 45.599609375 873 45.599609375 824.700195312 21 c 128,-1,148
 776.400390625 -3.599609375 776.400390625 -3.599609375 732.599609375 -3.599609375 c 2,149,-1
 725.400390625 -3.599609375 l 2,150,151
 698.400390625 -3.599609375 698.400390625 -3.599609375 685.5 -1.7998046875 c 128,-1,152
 672.599609375 0 672.599609375 0 663.900390625 1.7998046875 c 128,-1,153
 655.200195312 3.599609375 655.200195312 3.599609375 643.200195312 8.400390625 c 1,154,155
 594 22.7998046875 594 22.7998046875 564 52.7998046875 c 1,156,-1
 548.400390625 69 l 1,157,-1
 535.799804688 85.2001953125 l 1,158,-1
 518.400390625 108 l 1,159,-1
 518.400390625 115.200195312 l 2,160,161
 518.400390625 120 518.400390625 120 517.200195312 124.799804688 c 1,162,163
 517.200195312 130.799804688 517.200195312 130.799804688 514.200195312 136.799804688 c 1,164,-1
 510 161.400390625 l 1,165,-1
 502.799804688 212.400390625 l 1,38,-1
EndSplineSet
Ligature2: "'clig' Contextual Ligatures lookup 7 subtable" uAA61 u103C
Ligature2: "'clig' Contextual Ligatures lookup 5 subtable" uAA61 u1031
MultipleSubs2: "Multiple Substitution lookup 2 subtable" guard u103C uAA61
MultipleSubs2: "Multiple Substitution lookup 1 subtable" guard u103C.udia uAA61
MultipleSubs2: "Multiple Substitution lookup 0 subtable" guard u1031 uAA61
EndChar

StartChar: uAA62
Encoding: 43618 43618 30
Width: 898
VWidth: 600
GlyphClass: 3
Flags: W
AnchorPoint: "Anchor-3" 657.6 416.4 basechar 0
AnchorPoint: "Anchor-2" 446.4 0 basechar 0
AnchorPoint: "Anchor-1" 645.6 0 basechar 0
AnchorPoint: "Anchor-0" 780 0 basechar 0
LayerCount: 2
Fore
SplineSet
123 413.400390625 m 2,0,1
 114 408 114 408 104.400390625 398.400390625 c 1,2,3
 97.2001953125 393 97.2001953125 393 88.2001953125 382.200195312 c 1,4,-1
 70.2001953125 356.400390625 l 1,5,-1
 57 326.400390625 l 1,6,-1
 44.400390625 286.200195312 l 1,7,-1
 37.7998046875 247.200195312 l 1,8,-1
 35.400390625 208.799804688 l 1,9,10
 35.400390625 124.799804688 35.400390625 124.799804688 98.099609375 57 c 128,-1,11
 160.799804688 -10.7998046875 160.799804688 -10.7998046875 252 -10.7998046875 c 0,12,13
 310.799804688 -10.7998046875 310.799804688 -10.7998046875 363.599609375 22.2001953125 c 1,14,15
 390.599609375 36.599609375 390.599609375 36.599609375 398.400390625 46.2001953125 c 1,16,17
 420.599609375 70.2001953125 420.599609375 70.2001953125 420.599609375 112.799804688 c 1,18,-1
 420 127.200195312 l 2,19,20
 420 136.799804688 420 136.799804688 417 148.799804688 c 1,21,22
 414.599609375 165 414.599609375 165 405 196.200195312 c 128,-1,23
 395.400390625 227.400390625 395.400390625 227.400390625 395.400390625 244.200195312 c 0,24,25
 395.400390625 291 395.400390625 291 448.799804688 296.400390625 c 1,26,27
 474.599609375 291 474.599609375 291 492.599609375 278.400390625 c 1,28,29
 506.400390625 267.599609375 506.400390625 267.599609375 506.400390625 247.799804688 c 2,30,-1
 506.400390625 236.400390625 l 1,31,-1
 504 226.200195312 l 1,32,-1
 501.599609375 215.400390625 l 1,33,-1
 497.400390625 200.400390625 l 2,34,35
 489 171 489 171 485.099609375 147.599609375 c 128,-1,36
 481.200195312 124.200195312 481.200195312 124.200195312 481.200195312 105 c 0,37,38
 481.200195312 76.2001953125 481.200195312 76.2001953125 490.799804688 57.599609375 c 0,39,40
 496.200195312 46.7998046875 496.200195312 46.7998046875 526.200195312 25.7998046875 c 1,41,-1
 555 13.2001953125 l 1,42,-1
 583.200195312 4.2001953125 l 1,43,-1
 611.400390625 -1.2001953125 l 1,44,-1
 640.200195312 -3.599609375 l 1,45,46
 726.599609375 -3.599609375 726.599609375 -3.599609375 791.400390625 64.7998046875 c 128,-1,47
 856.200195312 133.200195312 856.200195312 133.200195312 856.200195312 216 c 1,48,-1
 853.799804688 254.400390625 l 1,49,-1
 847.799804688 293.400390625 l 1,50,51
 844.200195312 312.599609375 844.200195312 312.599609375 837 329.400390625 c 2,52,-1
 829.799804688 347.400390625 l 1,53,54
 828 355.200195312 828 355.200195312 822 363.599609375 c 1,55,56
 808.799804688 388.200195312 808.799804688 388.200195312 787.799804688 405.599609375 c 2,57,-1
 780 412.200195312 l 1,58,-1
 769.799804688 418.200195312 l 1,59,-1
 759 423.599609375 l 1,60,-1
 743.400390625 430.200195312 l 1,61,62
 725.400390625 430.200195312 725.400390625 430.200195312 720 426.599609375 c 1,63,64
 714 418.799804688 714 418.799804688 714 409.200195312 c 1,65,66
 718.200195312 400.799804688 718.200195312 400.799804688 727.200195312 391.799804688 c 1,67,-1
 749.400390625 379.799804688 l 1,68,-1
 763.200195312 369.599609375 l 1,69,-1
 777.599609375 351 l 1,70,-1
 789 334.200195312 l 1,71,-1
 796.200195312 319.200195312 l 1,72,-1
 801 307.200195312 l 1,73,-1
 810 280.200195312 l 1,74,-1
 814.799804688 256.799804688 l 1,75,-1
 814.799804688 216 l 2,76,77
 814.799804688 142.200195312 814.799804688 142.200195312 762 89.400390625 c 128,-1,78
 709.200195312 36.599609375 709.200195312 36.599609375 640.200195312 36.599609375 c 0,79,80
 606.599609375 36.599609375 606.599609375 36.599609375 578.400390625 45.599609375 c 128,-1,81
 550.200195312 54.599609375 550.200195312 54.599609375 522 82.2001953125 c 0,82,83
 514.799804688 89.400390625 514.799804688 89.400390625 514.799804688 107.400390625 c 1,84,-1
 515.400390625 117 l 1,85,-1
 519 134.400390625 l 1,86,-1
 531.599609375 193.799804688 l 1,87,88
 540.599609375 231.599609375 540.599609375 231.599609375 540.599609375 251.400390625 c 0,89,90
 540.599609375 267 540.599609375 267 533.400390625 285 c 1,91,92
 525.599609375 300 525.599609375 300 508.799804688 312 c 1,93,94
 477.599609375 327.599609375 477.599609375 327.599609375 450 327.599609375 c 1,95,-1
 438 327 l 2,96,97
 431.400390625 327 431.400390625 327 424.799804688 324.599609375 c 2,98,-1
 406.200195312 319.200195312 l 1,99,-1
 391.200195312 312 l 1,100,101
 376.200195312 303.599609375 376.200195312 303.599609375 366 287.400390625 c 1,102,103
 358.799804688 271.799804688 358.799804688 271.799804688 358.799804688 249.599609375 c 0,104,105
 358.799804688 230.400390625 358.799804688 230.400390625 371.400390625 179.099609375 c 128,-1,106
 384 127.799804688 384 127.799804688 384 107.400390625 c 0,107,108
 384 90.599609375 384 90.599609375 376.200195312 82.2001953125 c 0,109,110
 349.799804688 56.400390625 349.799804688 56.400390625 319.200195312 42.599609375 c 1,111,-1
 286.799804688 33 l 1,112,113
 270.599609375 29.400390625 270.599609375 29.400390625 252 29.400390625 c 0,114,115
 181.799804688 29.400390625 181.799804688 29.400390625 129.599609375 81.599609375 c 128,-1,116
 77.400390625 133.799804688 77.400390625 133.799804688 77.400390625 208.799804688 c 2,117,-1
 77.400390625 249.599609375 l 1,118,-1
 82.2001953125 273 l 1,119,120
 84 294.599609375 84 294.599609375 88.7998046875 300 c 1,121,-1
 92.400390625 309.599609375 l 1,122,-1
 102.599609375 327.599609375 l 1,123,-1
 118.799804688 301.200195312 l 1,124,125
 130.200195312 291.599609375 130.200195312 291.599609375 156.599609375 291.599609375 c 0,126,127
 177 291.599609375 177 291.599609375 196.799804688 309 c 0,128,129
 219.599609375 328.799804688 219.599609375 328.799804688 219.599609375 358.200195312 c 0,130,131
 219.599609375 389.400390625 219.599609375 389.400390625 202.200195312 407.099609375 c 128,-1,132
 184.799804688 424.799804688 184.799804688 424.799804688 159 424.799804688 c 0,133,134
 145.799804688 424.799804688 145.799804688 424.799804688 144.599609375 423.599609375 c 1,135,-1
 133.799804688 419.400390625 l 1,136,-1
 123 413.400390625 l 2,0,1
EndSplineSet
Ligature2: "'clig' Contextual Ligatures lookup 7 subtable" uAA62 u103C
Ligature2: "'clig' Contextual Ligatures lookup 5 subtable" uAA62 u1031
MultipleSubs2: "Multiple Substitution lookup 2 subtable" guard u103C uAA62
MultipleSubs2: "Multiple Substitution lookup 1 subtable" guard u103C.udia uAA62
MultipleSubs2: "Multiple Substitution lookup 0 subtable" guard u1031 uAA62
EndChar

StartChar: uAA6B
Encoding: 43627 43627 31
Width: 567
VWidth: 600
GlyphClass: 3
Flags: W
AnchorPoint: "Anchor-3" 297 416.4 basechar 0
AnchorPoint: "Anchor-2" 295.2 0 basechar 0
AnchorPoint: "Anchor-1" 385.2 0 basechar 0
LayerCount: 2
Fore
SplineSet
258 316.200195312 m 1,0,-1
 261 262.799804688 l 1,1,-1
 260.400390625 241.799804688 l 1,2,-1
 259.799804688 230.400390625 l 2,3,4
 259.799804688 225 259.799804688 225 257.400390625 218.400390625 c 1,5,6
 257.400390625 208.200195312 257.400390625 208.200195312 254.400390625 203.400390625 c 1,7,-1
 247.200195312 184.799804688 l 1,8,9
 223.799804688 137.400390625 223.799804688 137.400390625 192.599609375 99 c 1,10,-1
 184.200195312 90.599609375 l 1,11,-1
 171 75.599609375 l 1,12,-1
 153 60 l 1,13,-1
 109.200195312 46.7998046875 l 1,14,-1
 85.2001953125 42.599609375 l 1,15,-1
 88.7998046875 45 l 1,16,-1
 99.599609375 51.599609375 l 1,17,-1
 149.400390625 74.400390625 l 1,18,-1
 170.400390625 69.599609375 l 1,19,20
 190.799804688 64.2001953125 190.799804688 64.2001953125 203.700195312 58.5 c 128,-1,21
 216.599609375 52.7998046875 216.599609375 52.7998046875 228.900390625 41.7001953125 c 128,-1,22
 241.200195312 30.599609375 241.200195312 30.599609375 241.200195312 22.7998046875 c 2,23,-1
 240.599609375 10.7998046875 l 2,24,25
 240.599609375 7.2001953125 240.599609375 7.2001953125 236.099609375 2.7001953125 c 128,-1,26
 231.599609375 -1.7998046875 231.599609375 -1.7998046875 217.799804688 -1.7998046875 c 1,27,-1
 213 0 l 1,28,-1
 206.400390625 3.599609375 l 1,29,-1
 180 21.599609375 l 1,30,31
 167.400390625 28.7998046875 167.400390625 28.7998046875 127.799804688 41.400390625 c 2,32,-1
 94.2001953125 52.2001953125 l 1,33,-1
 87.599609375 57.599609375 l 1,34,-1
 84 60.599609375 l 1,35,-1
 81.599609375 64.2001953125 l 1,36,37
 81.599609375 72 81.599609375 72 82.7998046875 74.400390625 c 2,38,-1
 86.400390625 82.2001953125 l 1,39,-1
 96.599609375 88.2001953125 l 1,40,-1
 105.599609375 88.2001953125 l 1,41,-1
 115.200195312 89.400390625 l 1,42,-1
 117.599609375 91.7998046875 l 1,43,-1
 120.599609375 93 l 1,44,-1
 124.200195312 94.7998046875 l 1,45,-1
 133.799804688 101.400390625 l 1,46,-1
 148.200195312 114.599609375 l 1,47,-1
 161.400390625 130.200195312 l 1,48,49
 172.799804688 141.599609375 172.799804688 141.599609375 187.799804688 162 c 1,50,-1
 196.799804688 178.200195312 l 1,51,-1
 202.799804688 192 l 1,52,-1
 208.799804688 203.400390625 l 1,53,54
 225 232.200195312 225 232.200195312 225 264 c 0,55,56
 225 279 225 279 217.799804688 307.799804688 c 1,57,-1
 209.400390625 328.200195312 l 1,58,-1
 206.400390625 334.200195312 l 1,59,-1
 199.200195312 344.400390625 l 1,60,61
 193.799804688 353.400390625 193.799804688 353.400390625 179.099609375 360.599609375 c 128,-1,62
 164.400390625 367.799804688 164.400390625 367.799804688 147.599609375 367.799804688 c 1,63,-1
 141 352.799804688 l 1,64,-1
 133.799804688 340.799804688 l 1,65,-1
 126.599609375 330.599609375 l 1,66,-1
 117.599609375 321.599609375 l 1,67,68
 110.400390625 318 110.400390625 318 96.599609375 318 c 2,69,-1
 82.7998046875 318.599609375 l 2,70,71
 78.599609375 318.599609375 78.599609375 318.599609375 70.2001953125 323.400390625 c 128,-1,72
 61.7998046875 328.200195312 61.7998046875 328.200195312 51.599609375 347.400390625 c 1,73,-1
 47.400390625 367.799804688 l 1,74,75
 47.400390625 381 47.400390625 381 54.599609375 395.400390625 c 1,76,77
 61.7998046875 406.799804688 61.7998046875 406.799804688 75.599609375 416.400390625 c 1,78,-1
 88.7998046875 420.599609375 l 1,79,-1
 103.200195312 424.799804688 l 1,80,-1
 114.599609375 423 l 1,81,-1
 128.400390625 420.599609375 l 1,82,83
 135.599609375 420.599609375 135.599609375 420.599609375 169.200195312 413.400390625 c 0,84,85
 196.200195312 408 196.200195312 408 204 398.400390625 c 1,86,-1
 238.799804688 366 l 1,87,88
 249 353.400390625 249 353.400390625 258 316.200195312 c 1,0,-1
383.400390625 402 m 1,89,-1
 402.599609375 402 l 2,90,91
 413.400390625 402 413.400390625 402 417 400.200195312 c 2,92,-1
 426 397.200195312 l 1,93,94
 433.799804688 396 433.799804688 396 440.400390625 390.599609375 c 2,95,-1
 463.200195312 374.400390625 l 1,96,97
 473.400390625 365.400390625 473.400390625 365.400390625 482.400390625 355.200195312 c 1,98,-1
 495 333 l 1,99,-1
 499.799804688 321 l 1,100,-1
 506.400390625 302.400390625 l 1,101,-1
 516 268.799804688 l 1,102,-1
 522.599609375 240.599609375 l 1,103,-1
 524.400390625 223.200195312 l 1,104,-1
 525 205.200195312 l 1,105,-1
 525 193.200195312 l 1,106,-1
 525 186 l 2,107,108
 525 180 525 180 523.799804688 178.799804688 c 1,109,-1
 520.200195312 157.799804688 l 1,110,-1
 518.400390625 144.599609375 l 1,111,-1
 515.400390625 135 l 1,112,-1
 506.400390625 111.599609375 l 1,113,114
 501.599609375 93 501.599609375 93 493.200195312 76.7998046875 c 1,115,116
 487.799804688 64.2001953125 487.799804688 64.2001953125 480.599609375 55.2001953125 c 1,117,-1
 474 45.599609375 l 1,118,-1
 465 36.599609375 l 1,119,-1
 450 21.599609375 l 1,120,121
 436.799804688 12 436.799804688 12 409.799804688 12 c 0,122,123
 392.400390625 12 392.400390625 12 374.400390625 27.599609375 c 128,-1,124
 356.400390625 43.2001953125 356.400390625 43.2001953125 356.400390625 69 c 0,125,126
 356.400390625 96 356.400390625 96 375.599609375 111.599609375 c 0,127,128
 391.200195312 124.200195312 391.200195312 124.200195312 409.799804688 124.200195312 c 1,129,-1
 423.599609375 123.599609375 l 2,130,131
 427.200195312 123.599609375 427.200195312 123.599609375 435.599609375 119.400390625 c 1,132,133
 447 116.400390625 447 116.400390625 457.200195312 106.200195312 c 1,134,-1
 472.200195312 141.599609375 l 1,135,-1
 477 158.400390625 l 1,136,-1
 481.799804688 177.599609375 l 1,137,-1
 484.200195312 196.799804688 l 1,138,-1
 484.799804688 206.400390625 l 1,139,-1
 483 232.799804688 l 1,140,-1
 478.200195312 271.200195312 l 1,141,142
 474.599609375 293.400390625 474.599609375 293.400390625 466.200195312 306 c 1,143,-1
 458.400390625 322.200195312 l 2,144,145
 454.799804688 329.400390625 454.799804688 329.400390625 441.599609375 339 c 1,146,147
 435.599609375 345 435.599609375 345 414 356.400390625 c 2,148,-1
 408 359.400390625 l 1,149,-1
 399 361.799804688 l 1,150,-1
 385.799804688 361.799804688 l 1,151,-1
 376.799804688 359.400390625 l 1,152,-1
 360 302.400390625 l 1,153,-1
 355.200195312 317.400390625 l 1,154,-1
 349.200195312 336.599609375 l 1,155,-1
 349.200195312 346.799804688 l 2,156,157
 349.200195312 356.400390625 349.200195312 356.400390625 352.200195312 364.799804688 c 1,158,159
 354.599609375 374.400390625 354.599609375 374.400390625 361.799804688 384 c 0,160,161
 376.200195312 401.400390625 376.200195312 401.400390625 383.400390625 402 c 1,89,-1
EndSplineSet
Ligature2: "'clig' Contextual Ligatures lookup 7 subtable" uAA6B u103C
Ligature2: "'clig' Contextual Ligatures lookup 5 subtable" uAA6B u1031
MultipleSubs2: "Multiple Substitution lookup 2 subtable" guard u103C.nar uAA6B
MultipleSubs2: "Multiple Substitution lookup 1 subtable" guard u103C.nar.udia uAA6B
MultipleSubs2: "Multiple Substitution lookup 0 subtable" guard u1031 uAA6B
EndChar

StartChar: uAA6D
Encoding: 43629 43629 32
Width: 669
VWidth: 600
GlyphClass: 3
Flags: W
AnchorPoint: "Anchor-3" 433.8 416.4 basechar 0
AnchorPoint: "Anchor-2" 336.6 0 basechar 0
AnchorPoint: "Anchor-1" 504 0 basechar 0
LayerCount: 2
Fore
SplineSet
232.200195312 105.599609375 m 1,0,-1
 232.200195312 97.7998046875 l 1,1,-1
 231 86.400390625 l 1,2,3
 231 79.2001953125 231 79.2001953125 225.599609375 70.2001953125 c 1,4,5
 219 55.2001953125 219 55.2001953125 205.200195312 39.599609375 c 1,6,-1
 232.200195312 105.599609375 l 1,0,-1
36.599609375 100.799804688 m 1,7,8
 36.599609375 66.599609375 36.599609375 66.599609375 67.7998046875 33 c 0,9,10
 76.7998046875 24 76.7998046875 24 96 14.400390625 c 1,11,-1
 111 9 l 1,12,-1
 132.599609375 2.400390625 l 1,13,-1
 140.400390625 -24 l 1,14,15
 145.799804688 -45 145.799804688 -45 150 -50.400390625 c 1,16,-1
 153.599609375 -67.7998046875 l 1,17,-1
 154.799804688 -87 l 1,18,19
 154.799804688 -109.200195312 154.799804688 -109.200195312 149.099609375 -126.900390625 c 128,-1,20
 143.400390625 -144.599609375 143.400390625 -144.599609375 129 -169.799804688 c 0,21,22
 104.400390625 -212.400390625 104.400390625 -212.400390625 57.599609375 -241.799804688 c 1,23,24
 45 -252.599609375 45 -252.599609375 16.7998046875 -256.799804688 c 2,25,-1
 -7.2001953125 -260.400390625 l 1,26,-1
 -35.400390625 -261.599609375 l 1,27,-1
 -41.400390625 -260.400390625 l 1,28,29
 -49.7998046875 -260.400390625 -49.7998046875 -260.400390625 -56.400390625 -270.599609375 c 1,30,-1
 -59.400390625 -279 l 1,31,32
 -59.400390625 -286.200195312 -59.400390625 -286.200195312 -48 -295.200195312 c 1,33,34
 -31.7998046875 -298.799804688 -31.7998046875 -298.799804688 -15.599609375 -298.799804688 c 0,35,36
 12 -298.799804688 12 -298.799804688 55.2001953125 -282.599609375 c 1,37,-1
 72 -275.400390625 l 1,38,-1
 87.599609375 -267 l 2,39,40
 102 -259.799804688 102 -259.799804688 115.799804688 -246 c 1,41,-1
 138.599609375 -220.200195312 l 1,42,-1
 159.599609375 -190.200195312 l 1,43,-1
 178.200195312 -152.400390625 l 1,44,-1
 184.200195312 -132.599609375 l 1,45,-1
 186.599609375 -109.200195312 l 1,46,-1
 186.599609375 -100.799804688 l 1,47,-1
 186.599609375 -85.7998046875 l 1,48,-1
 183.599609375 -69.599609375 l 1,49,50
 183.599609375 -63.599609375 183.599609375 -63.599609375 181.200195312 -56.400390625 c 2,51,-1
 174.599609375 -34.7998046875 l 1,52,-1
 163.200195312 7.2001953125 l 1,53,-1
 172.799804688 9.599609375 l 1,54,-1
 181.799804688 15.599609375 l 2,55,56
 190.799804688 21 190.799804688 21 204.599609375 38.400390625 c 1,57,-1
 214.799804688 52.2001953125 l 1,58,-1
 225.599609375 70.7998046875 l 1,59,-1
 230.400390625 85.7998046875 l 1,60,-1
 232.200195312 105.599609375 l 1,61,62
 232.200195312 114 232.200195312 114 248.400390625 184.799804688 c 128,-1,63
 264.599609375 255.599609375 264.599609375 255.599609375 271.799804688 266.400390625 c 1,64,65
 282.599609375 316.799804688 282.599609375 316.799804688 329.099609375 352.5 c 128,-1,66
 375.599609375 388.200195312 375.599609375 388.200195312 433.799804688 388.200195312 c 0,67,68
 499.200195312 388.200195312 499.200195312 388.200195312 555 336.599609375 c 128,-1,69
 610.799804688 285 610.799804688 285 610.799804688 212.400390625 c 1,70,-1
 610.200195312 194.400390625 l 2,71,72
 610.200195312 178.799804688 610.200195312 178.799804688 607.200195312 172.200195312 c 1,73,-1
 603.599609375 154.799804688 l 1,74,-1
 601.200195312 146.400390625 l 1,75,-1
 597 134.400390625 l 1,76,77
 580.799804688 82.2001953125 580.799804688 82.2001953125 558 70.7998046875 c 1,78,-1
 549 79.7998046875 l 1,79,-1
 538.200195312 90 l 1,80,-1
 529.200195312 93.599609375 l 1,81,-1
 511.200195312 98.400390625 l 1,82,83
 492.599609375 98.400390625 492.599609375 98.400390625 478.799804688 87 c 0,84,85
 460.200195312 72 460.200195312 72 460.200195312 46.2001953125 c 0,86,87
 460.200195312 24.599609375 460.200195312 24.599609375 478.799804688 5.400390625 c 1,88,89
 495.599609375 -9.599609375 495.599609375 -9.599609375 512.400390625 -9.599609375 c 0,90,91
 529.799804688 -9.599609375 529.799804688 -9.599609375 556.799804688 6.599609375 c 1,92,93
 572.400390625 18.599609375 572.400390625 18.599609375 596.400390625 50.400390625 c 1,94,-1
 621 90 l 1,95,96
 633.599609375 114.599609375 633.599609375 114.599609375 639 131.400390625 c 1,97,-1
 647.400390625 168.599609375 l 1,98,-1
 651 208.799804688 l 1,99,-1
 647.400390625 258 l 1,100,-1
 642 279 l 1,101,-1
 637.799804688 290.400390625 l 1,102,-1
 631.799804688 303.599609375 l 2,103,104
 604.799804688 362.400390625 604.799804688 362.400390625 552 395.700195312 c 128,-1,105
 499.200195312 429 499.200195312 429 433.799804688 429 c 0,106,107
 361.799804688 429 361.799804688 429 313.5 393.299804688 c 128,-1,108
 265.200195312 357.599609375 265.200195312 357.599609375 228.599609375 276.599609375 c 1,109,-1
 211.200195312 206.400390625 l 1,110,-1
 189 111.599609375 l 1,111,112
 190.799804688 97.2001953125 190.799804688 97.2001953125 176.400390625 72 c 1,113,-1
 157.799804688 54.599609375 l 1,114,-1
 148.799804688 51 l 1,115,-1
 136.200195312 46.7998046875 l 1,116,117
 111 46.7998046875 111 46.7998046875 97.2001953125 62.400390625 c 1,118,-1
 36.599609375 100.799804688 l 1,7,8
136.200195312 46.7998046875 m 1,119,120
 111 46.7998046875 111 46.7998046875 97.2001953125 62.400390625 c 1,121,-1
 91.2001953125 69.599609375 l 1,122,-1
 85.2001953125 78.599609375 l 1,123,-1
 79.2001953125 100.799804688 l 1,124,-1
 89.400390625 88.2001953125 l 2,125,126
 95.400390625 80.400390625 95.400390625 80.400390625 105.599609375 80.400390625 c 1,127,-1
 111.599609375 81 l 2,128,129
 126 82.7998046875 126 82.7998046875 139.799804688 96.599609375 c 0,130,131
 156 112.799804688 156 112.799804688 156 134.400390625 c 0,132,133
 156 157.799804688 156 157.799804688 135 176.400390625 c 0,134,135
 117 192.599609375 117 192.599609375 100.799804688 192.599609375 c 1,136,-1
 91.7998046875 190.799804688 l 2,137,138
 85.7998046875 189.599609375 85.7998046875 189.599609375 81 186 c 1,139,140
 69.599609375 180 69.599609375 180 61.2001953125 172.799804688 c 0,141,142
 46.7998046875 160.200195312 46.7998046875 160.200195312 41.400390625 142.200195312 c 1,143,-1
 37.7998046875 121.799804688 l 1,144,-1
 36.599609375 100.799804688 l 1,145,146
 36.599609375 66.599609375 36.599609375 66.599609375 67.7998046875 33 c 1,147,-1
 136.200195312 46.7998046875 l 1,119,120
EndSplineSet
Ligature2: "'clig' Contextual Ligatures lookup 7 subtable" uAA6D u103C
Ligature2: "'clig' Contextual Ligatures lookup 5 subtable" uAA6D u1031
MultipleSubs2: "Multiple Substitution lookup 2 subtable" guard u103C.nar uAA6D
MultipleSubs2: "Multiple Substitution lookup 1 subtable" guard u103C.nar.udia uAA6D
MultipleSubs2: "Multiple Substitution lookup 0 subtable" guard u1031 uAA6D
EndChar

StartChar: uAA77
Encoding: 43639 43639 33
Width: 992
VWidth: 600
GlyphClass: 2
Flags: W
LayerCount: 2
Fore
SplineSet
610.200195312 446.400390625 m 0,0,1
 606.599609375 444 606.599609375 444 592.799804688 427.799804688 c 1,2,-1
 577.200195312 407.400390625 l 1,3,4
 570.599609375 409.200195312 570.599609375 409.200195312 554.400390625 424.799804688 c 1,5,6
 539.400390625 441 539.400390625 441 523.799804688 462.599609375 c 1,7,8
 504 492.599609375 504 492.599609375 498.599609375 504 c 0,9,10
 496.799804688 508.200195312 496.799804688 508.200195312 495.299804688 513.599609375 c 128,-1,11
 493.799804688 519 493.799804688 519 492 527.400390625 c 1,12,-1
 490.799804688 543.599609375 l 1,13,-1
 490.799804688 552 l 2,14,15
 490.799804688 582 490.799804688 582 499.799804688 609 c 128,-1,16
 508.799804688 636 508.799804688 636 523.5 645 c 128,-1,17
 538.200195312 654 538.200195312 654 592.799804688 664.799804688 c 2,18,-1
 703.799804688 685.799804688 l 1,19,20
 737.400390625 695.400390625 737.400390625 695.400390625 800.400390625 725.400390625 c 1,21,-1
 851.400390625 750.599609375 l 1,22,23
 889.799804688 779.400390625 889.799804688 779.400390625 906.599609375 811.799804688 c 1,24,25
 916.200195312 834 916.200195312 834 916.200195312 862.200195312 c 2,26,-1
 916.200195312 880.200195312 l 2,27,28
 916.200195312 904.799804688 916.200195312 904.799804688 914.400390625 920.400390625 c 1,29,30
 914.400390625 933.599609375 914.400390625 933.599609375 907.200195312 937.200195312 c 1,31,32
 898.200195312 942.599609375 898.200195312 942.599609375 891.599609375 925.200195312 c 1,33,-1
 888 900 l 1,34,35
 883.200195312 872.400390625 883.200195312 872.400390625 874.799804688 855 c 1,36,37
 864 829.799804688 864 829.799804688 855 817.200195312 c 0,38,39
 844.200195312 801 844.200195312 801 825.599609375 787.799804688 c 0,40,41
 813 779.400390625 813 779.400390625 767.400390625 756 c 128,-1,42
 721.799804688 732.599609375 721.799804688 732.599609375 685.799804688 720 c 1,43,-1
 597 704.400390625 l 1,44,45
 534 695.400390625 534 695.400390625 500.400390625 678.599609375 c 1,46,47
 477 666 477 666 463.799804688 636.599609375 c 1,48,49
 452.400390625 604.200195312 452.400390625 604.200195312 452.400390625 567.599609375 c 1,50,-1
 453 545.400390625 l 2,51,52
 453 533.400390625 453 533.400390625 456 520.799804688 c 1,53,54
 457.799804688 507 457.799804688 507 460.200195312 502.200195312 c 2,55,-1
 468 481.799804688 l 1,56,57
 480.599609375 454.799804688 480.599609375 454.799804688 509.400390625 420 c 1,58,-1
 543.599609375 381.599609375 l 1,59,60
 527.400390625 381.599609375 527.400390625 381.599609375 500.400390625 385.200195312 c 2,61,-1
 477 388.799804688 l 1,62,-1
 421.200195312 377.400390625 l 2,63,64
 379.799804688 368.400390625 379.799804688 368.400390625 369.599609375 360.599609375 c 1,65,66
 321.599609375 330 321.599609375 330 278.400390625 253.200195312 c 1,67,-1
 273.599609375 240 l 1,68,-1
 272.400390625 226.799804688 l 1,69,-1
 270 220.799804688 l 1,70,71
 257.400390625 210 257.400390625 210 240.599609375 157.200195312 c 1,72,-1
 232.200195312 125.400390625 l 1,73,-1
 223.200195312 84.599609375 l 1,74,75
 220.200195312 64.7998046875 220.200195312 64.7998046875 207.599609375 48.599609375 c 1,76,77
 188.400390625 32.400390625 188.400390625 32.400390625 173.400390625 32.400390625 c 0,78,79
 155.400390625 32.400390625 155.400390625 32.400390625 121.799804688 79.2001953125 c 1,80,-1
 94.2001953125 126.599609375 l 1,81,-1
 83.400390625 183 l 1,82,-1
 79.7998046875 208.200195312 l 1,83,-1
 81 226.799804688 l 1,84,85
 81 240.599609375 81 240.599609375 90.599609375 242.400390625 c 1,86,-1
 103.799804688 239.400390625 l 1,87,-1
 114 237.599609375 l 1,88,-1
 127.200195312 238.799804688 l 1,89,-1
 138.599609375 244.200195312 l 1,90,-1
 145.799804688 250.200195312 l 1,91,-1
 152.400390625 259.200195312 l 2,92,93
 159.599609375 270 159.599609375 270 159.599609375 275.400390625 c 1,94,95
 161.400390625 278.400390625 161.400390625 278.400390625 161.400390625 288 c 2,96,-1
 161.400390625 300.599609375 l 1,97,98
 154.200195312 319.799804688 154.200195312 319.799804688 144.599609375 328.799804688 c 1,99,100
 141 330.599609375 141 330.599609375 133.200195312 333.599609375 c 128,-1,101
 125.400390625 336.599609375 125.400390625 336.599609375 117 336.599609375 c 0,102,103
 103.200195312 336.599609375 103.200195312 336.599609375 99.599609375 335.400390625 c 1,104,105
 96.599609375 335.400390625 96.599609375 335.400390625 88.2001953125 330 c 1,106,-1
 67.7998046875 311.400390625 l 2,107,108
 54.599609375 299.400390625 54.599609375 299.400390625 47.400390625 282.599609375 c 1,109,-1
 43.7998046875 271.799804688 l 1,110,-1
 42.599609375 259.200195312 l 1,111,-1
 39.599609375 234.599609375 l 1,112,-1
 39 213 l 1,113,-1
 39 186 l 1,114,-1
 42 163.200195312 l 1,115,-1
 51.599609375 132.599609375 l 1,116,117
 76.7998046875 65.400390625 76.7998046875 65.400390625 108 32.400390625 c 1,118,-1
 126 14.400390625 l 1,119,120
 135 7.2001953125 135 7.2001953125 145.799804688 1.7998046875 c 1,121,122
 153.599609375 -1.2001953125 153.599609375 -1.2001953125 164.700195312 -3.599609375 c 128,-1,123
 175.799804688 -6 175.799804688 -6 183.599609375 -6 c 0,124,125
 196.200195312 -6 196.200195312 -6 202.200195312 -3 c 1,126,127
 219 2.400390625 219 2.400390625 234.599609375 19.2001953125 c 1,128,129
 252 36 252 36 260.400390625 53.400390625 c 1,130,-1
 270 84.599609375 l 1,131,-1
 279 120 l 1,132,-1
 289.200195312 152.400390625 l 1,133,134
 310.799804688 213 310.799804688 213 316.799804688 220.200195312 c 1,135,-1
 318.599609375 233.400390625 l 1,136,-1
 320.400390625 239.400390625 l 1,137,138
 338.400390625 288.599609375 338.400390625 288.599609375 387 321 c 1,139,140
 431.400390625 346.799804688 431.400390625 346.799804688 476.400390625 346.799804688 c 1,141,-1
 504 345 l 2,142,143
 510.599609375 345 510.599609375 345 522.299804688 338.400390625 c 128,-1,144
 534 331.799804688 534 331.799804688 543.599609375 320.400390625 c 0,145,146
 568.200195312 291 568.200195312 291 592.5 242.700195312 c 128,-1,147
 616.799804688 194.400390625 616.799804688 194.400390625 616.799804688 165 c 0,148,149
 616.799804688 145.799804688 616.799804688 145.799804688 608.400390625 129 c 0,150,151
 604.799804688 121.200195312 604.799804688 121.200195312 596.700195312 107.400390625 c 128,-1,152
 588.599609375 93.599609375 588.599609375 93.599609375 573.599609375 71.400390625 c 1,153,154
 565.799804688 57 565.799804688 57 563.400390625 55.2001953125 c 1,155,-1
 491.400390625 -28.2001953125 l 2,156,157
 468 -55.2001953125 468 -55.2001953125 448.200195312 -82.2001953125 c 1,158,159
 448.200195312 -82.2001953125 448.200195312 -82.2001953125 430.200195312 -109.200195312 c 0,160,161
 422.400390625 -121.799804688 422.400390625 -121.799804688 414 -137.400390625 c 0,162,163
 373.200195312 -211.799804688 373.200195312 -211.799804688 373.200195312 -270 c 0,164,165
 373.200195312 -314.400390625 373.200195312 -314.400390625 406.799804688 -374.400390625 c 1,166,-1
 420.599609375 -397.799804688 l 1,167,-1
 441 -429 l 1,168,169
 444.599609375 -443.400390625 444.599609375 -443.400390625 456.599609375 -453.599609375 c 1,170,171
 468 -465 468 -465 483 -471.599609375 c 2,172,-1
 510.599609375 -484.200195312 l 1,173,-1
 522 -486.599609375 l 1,174,-1
 534 -489 l 1,175,-1
 541.799804688 -488.400390625 l 1,176,177
 558.599609375 -484.799804688 558.599609375 -484.799804688 568.799804688 -474.599609375 c 1,178,179
 576 -468.599609375 576 -468.599609375 587.400390625 -450.599609375 c 0,180,181
 595.799804688 -438 595.799804688 -438 600 -421.200195312 c 2,182,-1
 603.599609375 -405 l 1,183,-1
 604.799804688 -387 l 1,184,-1
 604.799804688 -379.200195312 l 2,185,186
 604.799804688 -373.799804688 604.799804688 -373.799804688 603.599609375 -369 c 1,187,188
 603.599609375 -363 603.599609375 -363 599.400390625 -354 c 1,189,190
 596.400390625 -345 596.400390625 -345 589.200195312 -339 c 1,191,-1
 578.400390625 -336 l 1,192,193
 563.400390625 -336 563.400390625 -336 563.400390625 -393.599609375 c 0,194,195
 563.400390625 -451.799804688 563.400390625 -451.799804688 537 -451.799804688 c 0,196,197
 520.799804688 -451.799804688 520.799804688 -451.799804688 499.200195312 -435.599609375 c 1,198,-1
 480.599609375 -419.400390625 l 1,199,-1
 471.599609375 -406.200195312 l 1,200,-1
 462.599609375 -391.200195312 l 1,201,-1
 442.799804688 -353.400390625 l 1,202,203
 415.799804688 -298.200195312 415.799804688 -298.200195312 415.799804688 -271.799804688 c 0,204,205
 415.799804688 -242.400390625 415.799804688 -242.400390625 437.400390625 -189.599609375 c 128,-1,206
 459 -136.799804688 459 -136.799804688 492 -96.599609375 c 1,207,-1
 548.400390625 -31.7998046875 l 1,208,-1
 592.799804688 22.2001953125 l 1,209,-1
 615 56.400390625 l 1,210,-1
 640.799804688 104.400390625 l 2,211,212
 645 113.400390625 645 113.400390625 652.799804688 146.400390625 c 1,213,-1
 656.400390625 168 l 1,214,-1
 657 182.400390625 l 1,215,-1
 655.200195312 198 l 1,216,-1
 648 217.799804688 l 1,217,-1
 638.400390625 241.200195312 l 2,218,219
 635.400390625 249.599609375 635.400390625 249.599609375 633.900390625 252.599609375 c 128,-1,220
 632.400390625 255.599609375 632.400390625 255.599609375 626.400390625 264.599609375 c 1,221,-1
 601.200195312 310.799804688 l 1,222,223
 588.599609375 335.400390625 588.599609375 335.400390625 585 354 c 1,224,225
 583.200195312 367.799804688 583.200195312 367.799804688 600.299804688 390.299804688 c 128,-1,226
 617.400390625 412.799804688 617.400390625 412.799804688 628.799804688 412.799804688 c 1,227,-1
 646.200195312 409.200195312 l 2,228,229
 649.799804688 408.599609375 649.799804688 408.599609375 654 408 c 128,-1,230
 658.200195312 407.400390625 658.200195312 407.400390625 664.799804688 404.400390625 c 1,231,232
 705 393.599609375 705 393.599609375 723 379.799804688 c 1,233,234
 738 369.599609375 738 369.599609375 753 351 c 0,235,236
 762 339 762 339 777 312 c 1,237,-1
 781.200195312 296.400390625 l 1,238,-1
 782.400390625 272.400390625 l 1,239,-1
 782.400390625 251.400390625 l 1,240,241
 780.599609375 234 780.599609375 234 780 224.400390625 c 1,242,243
 780 213 780 213 777.900390625 197.099609375 c 128,-1,244
 775.799804688 181.200195312 775.799804688 181.200195312 772.200195312 160.200195312 c 1,245,-1
 768.599609375 132 l 1,246,-1
 762 96 l 1,247,248
 762 -38.400390625 762 -38.400390625 767.400390625 -86.7001953125 c 128,-1,249
 772.799804688 -135 772.799804688 -135 795 -168 c 0,250,251
 810 -190.200195312 810 -190.200195312 840 -208.200195312 c 1,252,253
 858 -217.799804688 858 -217.799804688 898.200195312 -231 c 1,254,-1
 944.400390625 -238.799804688 l 1,255,-1
 1006.79980469 -247.799804688 l 1,256,257
 1013.40039062 -247.799804688 1013.40039062 -247.799804688 1063.20019531 -230.400390625 c 1,258,-1
 1115.40039062 -208.799804688 l 1,259,260
 1104.59960938 -196.200195312 1104.59960938 -196.200195312 1088.40039062 -196.200195312 c 0,261,262
 1080.59960938 -196.200195312 1080.59960938 -196.200195312 1044.59960938 -207.599609375 c 1,263,264
 1032.59960938 -210.599609375 1032.59960938 -210.599609375 1025.70019531 -211.799804688 c 128,-1,265
 1018.79980469 -213 1018.79980469 -213 1012.20019531 -213.599609375 c 1,266,-1
 1005 -213 l 1,267,-1
 972 -210.599609375 l 1,268,-1
 957 -205.799804688 l 1,269,-1
 908.400390625 -195 l 1,270,271
 886.799804688 -191.400390625 886.799804688 -191.400390625 867 -177.599609375 c 1,272,273
 841.799804688 -163.200195312 841.799804688 -163.200195312 824.400390625 -140.400390625 c 1,274,275
 812.400390625 -123.599609375 812.400390625 -123.599609375 805.200195312 -75.599609375 c 1,276,277
 802.799804688 -51.599609375 802.799804688 -51.599609375 801.599609375 -26.400390625 c 128,-1,278
 800.400390625 -1.2001953125 800.400390625 -1.2001953125 800.400390625 31.7998046875 c 2,279,-1
 800.400390625 64.7998046875 l 1,280,-1
 801 96 l 2,281,282
 801 112.200195312 801 112.200195312 802.200195312 125.700195312 c 128,-1,283
 803.400390625 139.200195312 803.400390625 139.200195312 807 159.599609375 c 2,284,-1
 816.599609375 220.799804688 l 1,285,-1
 820.200195312 259.200195312 l 1,286,-1
 818.400390625 292.799804688 l 2,287,288
 817.799804688 300 817.799804688 300 816 309.900390625 c 128,-1,289
 814.200195312 319.799804688 814.200195312 319.799804688 811.799804688 329.400390625 c 0,290,291
 806.400390625 356.400390625 806.400390625 356.400390625 787.799804688 376.799804688 c 0,292,293
 776.400390625 388.799804688 776.400390625 388.799804688 743.400390625 414 c 1,294,295
 719.400390625 431.400390625 719.400390625 431.400390625 695.400390625 441.299804688 c 128,-1,296
 671.400390625 451.200195312 671.400390625 451.200195312 651.599609375 451.200195312 c 2,297,-1
 639 451.200195312 l 1,298,-1
 625.799804688 450 l 1,299,300
 616.799804688 450 616.799804688 450 610.200195312 446.400390625 c 0,0,1
EndSplineSet
EndChar

StartChar: uAA78
Encoding: 43640 43640 34
Width: 627
VWidth: 600
GlyphClass: 2
Flags: W
LayerCount: 2
Fore
SplineSet
645.599609375 572.400390625 m 1,0,1
 642 558 642 558 630 552.599609375 c 1,2,-1
 625.799804688 552 l 1,3,-1
 624 551.400390625 l 1,4,5
 620.400390625 551.400390625 620.400390625 551.400390625 615 555 c 2,6,-1
 598.799804688 565.200195312 l 1,7,-1
 583.200195312 572.400390625 l 1,8,-1
 573 570 l 1,9,-1
 561.599609375 566.400390625 l 1,10,-1
 556.799804688 564.599609375 l 1,11,-1
 553.799804688 562.799804688 l 2,12,13
 550.200195312 561 550.200195312 561 547.799804688 558 c 1,14,15
 539.400390625 552.599609375 539.400390625 552.599609375 537 541.200195312 c 1,16,-1
 529.799804688 520.799804688 l 1,17,-1
 531 519 l 1,18,-1
 513.599609375 481.200195312 l 1,19,-1
 483 409.200195312 l 1,20,-1
 459 335.400390625 l 1,21,-1
 430.799804688 227.400390625 l 1,22,23
 415.799804688 157.200195312 415.799804688 157.200195312 398.400390625 64.2001953125 c 1,24,-1
 387 -10.2001953125 l 1,25,-1
 384.599609375 -10.2001953125 l 1,26,27
 377.400390625 -5.400390625 377.400390625 -5.400390625 373.200195312 -4.7998046875 c 2,28,-1
 355.799804688 -2.400390625 l 1,29,-1
 347.400390625 -3.599609375 l 1,30,-1
 342.599609375 4.7998046875 l 1,31,-1
 339.599609375 15.599609375 l 1,32,33
 342.599609375 39 342.599609375 39 325.200195312 64.2001953125 c 1,34,35
 307.200195312 84 307.200195312 84 268.200195312 93.599609375 c 1,36,-1
 250.200195312 95.400390625 l 1,37,38
 235.200195312 95.400390625 235.200195312 95.400390625 228.599609375 93 c 1,39,40
 219.599609375 91.2001953125 219.599609375 91.2001953125 208.200195312 83.400390625 c 1,41,-1
 189.599609375 72.599609375 l 1,42,-1
 182.400390625 64.7998046875 l 1,43,-1
 178.799804688 60.599609375 l 1,44,45
 174 57 174 57 169.200195312 48.599609375 c 2,46,-1
 163.200195312 36.599609375 l 1,47,-1
 165.599609375 31.2001953125 l 1,48,-1
 167.400390625 16.7998046875 l 1,49,-1
 164.400390625 1.7998046875 l 1,50,-1
 151.799804688 -3.599609375 l 1,51,-1
 141 -4.2001953125 l 1,52,-1
 136.200195312 -0.599609375 l 1,53,-1
 130.200195312 5.400390625 l 1,54,-1
 124.200195312 13.7998046875 l 1,55,-1
 120.599609375 29.400390625 l 1,56,-1
 121.799804688 38.400390625 l 1,57,-1
 122.400390625 49.7998046875 l 1,58,59
 123.599609375 55.7998046875 123.599609375 55.7998046875 129 63.599609375 c 1,60,61
 132.599609375 72.599609375 132.599609375 72.599609375 141.599609375 81.599609375 c 1,62,-1
 151.200195312 93.599609375 l 1,63,-1
 166.200195312 104.400390625 l 1,64,-1
 183.599609375 115.200195312 l 1,65,66
 213 132.599609375 213 132.599609375 252.599609375 132.599609375 c 2,67,-1
 262.799804688 132.599609375 l 1,68,-1
 274.799804688 131.400390625 l 1,69,70
 298.799804688 127.799804688 298.799804688 127.799804688 316.799804688 114 c 0,71,72
 320.400390625 111.599609375 320.400390625 111.599609375 354 78 c 1,73,-1
 361.200195312 95.400390625 l 2,74,75
 370.200195312 118.200195312 370.200195312 118.200195312 372 129 c 0,76,77
 376.799804688 159 376.799804688 159 386.400390625 199.200195312 c 2,78,-1
 402.599609375 264.599609375 l 1,79,-1
 409.200195312 299.400390625 l 1,80,-1
 420 346.200195312 l 2,81,82
 426 370.200195312 426 370.200195312 439.799804688 408 c 2,83,-1
 463.799804688 472.200195312 l 1,84,-1
 490.200195312 535.799804688 l 1,85,-1
 497.400390625 558 l 1,86,-1
 508.200195312 579 l 1,87,-1
 513 584.400390625 l 1,88,-1
 522 591.599609375 l 1,89,-1
 542.400390625 603 l 1,90,-1
 564 610.799804688 l 1,91,-1
 586.799804688 613.200195312 l 1,92,93
 595.799804688 613.200195312 595.799804688 613.200195312 603 609.599609375 c 2,94,-1
 615 603 l 1,95,-1
 627.599609375 597 l 1,96,97
 633 595.200195312 633 595.200195312 636.599609375 591.599609375 c 1,98,99
 645.599609375 585 645.599609375 585 645.599609375 572.400390625 c 1,0,1
389.400390625 397.799804688 m 1,100,101
 389.400390625 381.599609375 389.400390625 381.599609375 382.200195312 367.200195312 c 1,102,103
 378.599609375 356.400390625 378.599609375 356.400390625 367.200195312 341.400390625 c 128,-1,104
 355.799804688 326.400390625 355.799804688 326.400390625 330 309 c 0,105,106
 315 298.200195312 315 298.200195312 283.799804688 292.200195312 c 1,107,-1
 271.799804688 290.400390625 l 1,108,-1
 263.400390625 290.400390625 l 2,109,110
 246 290.400390625 246 290.400390625 227.400390625 294 c 128,-1,111
 208.799804688 297.599609375 208.799804688 297.599609375 193.200195312 307.200195312 c 1,112,-1
 175.799804688 316.799804688 l 1,113,-1
 159.599609375 328.799804688 l 1,114,-1
 148.200195312 342.599609375 l 1,115,-1
 137.400390625 357.599609375 l 1,116,-1
 131.400390625 372 l 1,117,-1
 130.200195312 383.400390625 l 1,118,-1
 128.400390625 394.799804688 l 1,119,-1
 130.799804688 405.599609375 l 2,120,121
 132.599609375 411 132.599609375 411 136.799804688 415.200195312 c 2,122,-1
 142.200195312 421.200195312 l 1,123,-1
 148.200195312 425.400390625 l 1,124,-1
 158.400390625 425.400390625 l 1,125,-1
 172.200195312 423 l 1,126,-1
 173.400390625 412.200195312 l 1,127,-1
 174.599609375 405.599609375 l 1,128,-1
 173.400390625 391.200195312 l 1,129,-1
 172.200195312 384 l 1,130,-1
 177.599609375 373.799804688 l 1,131,132
 177.599609375 368.400390625 177.599609375 368.400390625 184.799804688 363 c 1,133,-1
 186.599609375 361.200195312 l 1,134,-1
 191.400390625 357 l 1,135,-1
 199.200195312 349.799804688 l 1,136,-1
 209.400390625 343.799804688 l 1,137,-1
 216 339 l 1,138,-1
 225 333.599609375 l 1,139,-1
 238.799804688 329.400390625 l 2,140,141
 246 327.599609375 246 327.599609375 259.200195312 327.599609375 c 1,142,-1
 277.200195312 329.400390625 l 1,143,144
 313.200195312 337.799804688 313.200195312 337.799804688 333.599609375 361.200195312 c 1,145,146
 348 382.200195312 348 382.200195312 348 405 c 2,147,-1
 348 412.200195312 l 1,148,-1
 349.799804688 418.799804688 l 1,149,-1
 354.599609375 428.400390625 l 1,150,-1
 364.799804688 421.799804688 l 1,151,-1
 379.200195312 418.200195312 l 1,152,-1
 389.400390625 397.799804688 l 1,100,101
163.799804688 213 m 1,153,154
 163.799804688 179.400390625 163.799804688 179.400390625 145.799804688 144 c 1,155,-1
 136.200195312 128.400390625 l 1,156,-1
 123 113.400390625 l 1,157,-1
 108 99.599609375 l 1,158,-1
 92.400390625 88.7998046875 l 1,159,-1
 79.2001953125 82.7998046875 l 1,160,-1
 67.7998046875 81.599609375 l 1,161,-1
 58.7998046875 81.599609375 l 1,162,-1
 46.2001953125 84 l 1,163,-1
 43.2001953125 85.7998046875 l 1,164,-1
 34.7998046875 91.2001953125 l 1,165,-1
 28.2001953125 97.2001953125 l 1,166,-1
 26.400390625 101.400390625 l 1,167,-1
 26.400390625 111.599609375 l 1,168,-1
 29.400390625 124.799804688 l 1,169,-1
 39.599609375 126 l 1,170,-1
 46.7998046875 127.799804688 l 1,171,-1
 60.599609375 126 l 1,172,-1
 67.2001953125 123.599609375 l 1,173,-1
 79.7998046875 130.799804688 l 1,174,175
 85.2001953125 132.599609375 85.2001953125 132.599609375 89.400390625 136.799804688 c 2,176,-1
 94.7998046875 143.400390625 l 1,177,-1
 103.799804688 151.200195312 l 1,178,-1
 114.599609375 168.599609375 l 1,179,-1
 122.400390625 189.599609375 l 1,180,-1
 126.599609375 212.400390625 l 1,181,-1
 124.799804688 229.200195312 l 1,182,183
 115.799804688 261.599609375 115.799804688 261.599609375 94.2001953125 286.200195312 c 1,184,185
 73.2001953125 301.799804688 73.2001953125 301.799804688 51.599609375 301.799804688 c 1,186,-1
 44.400390625 301.200195312 l 1,187,-1
 34.7998046875 303.599609375 l 2,188,189
 31.7998046875 304.799804688 31.7998046875 304.799804688 28.7998046875 308.400390625 c 1,190,-1
 34.2001953125 319.200195312 l 1,191,-1
 37.7998046875 331.200195312 l 1,192,-1
 58.2001953125 342.599609375 l 1,193,-1
 70.7998046875 340.799804688 l 1,194,-1
 90 333.599609375 l 1,195,-1
 105 326.400390625 l 1,196,-1
 116.400390625 318 l 1,197,198
 146.400390625 291.599609375 146.400390625 291.599609375 162.599609375 235.200195312 c 1,199,-1
 163.200195312 223.200195312 l 1,200,-1
 163.799804688 213 l 1,153,154
EndSplineSet
EndChar

StartChar: uAA79
Encoding: 43641 43641 35
Width: 506
VWidth: 600
GlyphClass: 2
Flags: W
AnchorPoint: "Anchor-3" 253.8 416.4 basechar 0
LayerCount: 2
Fore
SplineSet
301.200195312 3.599609375 m 1,0,-1
 256.799804688 1.2001953125 l 1,1,2
 216 1.2001953125 216 1.2001953125 176.099609375 15.599609375 c 128,-1,3
 136.200195312 30 136.200195312 30 100.799804688 62.400390625 c 1,4,5
 93.599609375 70.2001953125 93.599609375 70.2001953125 87.599609375 77.400390625 c 2,6,-1
 74.400390625 94.7998046875 l 1,7,8
 63 112.799804688 63 112.799804688 52.7998046875 132.599609375 c 1,9,-1
 42 172.200195312 l 1,10,-1
 36.599609375 214.799804688 l 1,11,12
 36.599609375 303 36.599609375 303 99.599609375 369.599609375 c 128,-1,13
 162.599609375 436.200195312 162.599609375 436.200195312 253.200195312 436.200195312 c 0,14,15
 339.599609375 436.200195312 339.599609375 436.200195312 405 376.200195312 c 128,-1,16
 470.400390625 316.200195312 470.400390625 316.200195312 470.400390625 226.200195312 c 2,17,-1
 471.599609375 -296.400390625 l 1,18,-1
 471.599609375 -306 l 1,19,-1
 474 -313.200195312 l 1,20,-1
 483 -331.799804688 l 1,21,22
 488.400390625 -337.200195312 488.400390625 -337.200195312 498.599609375 -339 c 1,23,-1
 524.400390625 -340.200195312 l 2,24,25
 537 -340.200195312 537 -340.200195312 537 -361.200195312 c 0,26,27
 537 -383.400390625 537 -383.400390625 524.400390625 -383.400390625 c 1,28,-1
 486.599609375 -379.799804688 l 1,29,-1
 458.400390625 -364.799804688 l 1,30,31
 430.200195312 -339.599609375 430.200195312 -339.599609375 430.200195312 -300 c 2,32,-1
 430.200195312 220.200195312 l 2,33,34
 430.200195312 289.799804688 430.200195312 289.799804688 377.400390625 342.599609375 c 0,35,36
 349.799804688 370.200195312 349.799804688 370.200195312 320.400390625 382.200195312 c 0,37,38
 306 388.200195312 306 388.200195312 288.900390625 391.799804688 c 128,-1,39
 271.799804688 395.400390625 271.799804688 395.400390625 253.200195312 395.400390625 c 0,40,41
 183.599609375 395.400390625 183.599609375 395.400390625 131.099609375 342.900390625 c 128,-1,42
 78.599609375 290.400390625 78.599609375 290.400390625 78.599609375 214.799804688 c 1,43,-1
 79.7998046875 185.400390625 l 1,44,-1
 83.400390625 172.200195312 l 1,45,-1
 91.2001953125 153.599609375 l 1,46,-1
 109.200195312 164.400390625 l 1,47,-1
 124.200195312 171 l 1,48,-1
 159.599609375 175.799804688 l 1,49,50
 205.200195312 175.799804688 205.200195312 175.799804688 260.400390625 131.400390625 c 1,51,52
 282.599609375 110.400390625 282.599609375 110.400390625 293.400390625 84.599609375 c 1,53,54
 304.799804688 63 304.799804688 63 304.799804688 30.599609375 c 1,55,-1
 301.200195312 3.599609375 l 1,0,-1
103.200195312 127.799804688 m 1,56,57
 109.200195312 118.799804688 109.200195312 118.799804688 123.599609375 104.400390625 c 0,58,59
 129.599609375 98.400390625 129.599609375 98.400390625 146.400390625 83.400390625 c 2,60,-1
 165.599609375 66.599609375 l 1,61,62
 207 40.7998046875 207 40.7998046875 255.599609375 40.7998046875 c 1,63,-1
 274.200195312 42 l 1,64,65
 270.599609375 80.400390625 270.599609375 80.400390625 234.599609375 112.799804688 c 1,66,67
 202.799804688 146.400390625 202.799804688 146.400390625 158.400390625 146.400390625 c 1,68,-1
 130.200195312 142.799804688 l 1,69,-1
 103.200195312 127.799804688 l 1,56,57
EndSplineSet
EndChar

StartChar: uAA7A
Encoding: 43642 43642 36
Width: 1017
VWidth: 600
GlyphClass: 3
Flags: W
AnchorPoint: "Anchor-3" 842.4 452.4 basechar 0
AnchorPoint: "Anchor-1" 780 0 basechar 0
LayerCount: 2
Fore
SplineSet
612 45 m 1,0,1
 583.200195312 73.7998046875 583.200195312 73.7998046875 562.799804688 121.799804688 c 1,2,3
 553.799804688 145.799804688 553.799804688 145.799804688 548.400390625 169.200195312 c 1,4,-1
 544.799804688 192 l 1,5,-1
 543.599609375 216.599609375 l 1,6,7
 543.599609375 292.799804688 543.599609375 292.799804688 490.799804688 346.799804688 c 128,-1,8
 438 400.799804688 438 400.799804688 364.200195312 400.799804688 c 0,9,10
 294.599609375 400.799804688 294.599609375 400.799804688 242.099609375 348.299804688 c 128,-1,11
 189.599609375 295.799804688 189.599609375 295.799804688 189.599609375 221.400390625 c 0,12,13
 189.599609375 190.799804688 189.599609375 190.799804688 200.400390625 156.599609375 c 1,14,15
 211.799804688 127.200195312 211.799804688 127.200195312 241.200195312 99 c 0,16,17
 247.200195312 93.599609375 247.200195312 93.599609375 284.400390625 70.7998046875 c 1,18,19
 304.799804688 63.599609375 304.799804688 63.599609375 334.200195312 58.2001953125 c 1,20,21
 334.200195312 84 334.200195312 84 346.200195312 101.400390625 c 1,22,23
 354.599609375 115.200195312 354.599609375 115.200195312 367.5 123.599609375 c 128,-1,24
 380.400390625 132 380.400390625 132 399.599609375 132 c 0,25,26
 414 132 414 132 428.400390625 124.799804688 c 1,27,-1
 451.200195312 100.200195312 l 1,28,-1
 457.200195312 84 l 1,29,-1
 459 68.400390625 l 1,30,31
 459 49.7998046875 459 49.7998046875 450.599609375 35.400390625 c 0,32,33
 448.799804688 31.2001953125 448.799804688 31.2001953125 430.799804688 12.599609375 c 1,34,-1
 409.200195312 3 l 1,35,-1
 389.400390625 0.599609375 l 1,36,-1
 373.200195312 2.400390625 l 1,37,-1
 361.799804688 4.2001953125 l 1,38,-1
 342.599609375 4.7998046875 l 2,39,40
 333 4.7998046875 333 4.7998046875 325.200195312 7.2001953125 c 1,41,-1
 301.200195312 12 l 1,42,-1
 282.599609375 19.7998046875 l 2,43,44
 273.599609375 23.400390625 273.599609375 23.400390625 247.200195312 39.599609375 c 1,45,-1
 230.400390625 52.2001953125 l 1,46,-1
 213 67.7998046875 l 1,47,48
 147.599609375 129.599609375 147.599609375 129.599609375 147.599609375 221.400390625 c 0,49,50
 147.599609375 300 147.599609375 300 210.599609375 370.799804688 c 128,-1,51
 273.599609375 441.599609375 273.599609375 441.599609375 364.200195312 441.599609375 c 0,52,53
 433.799804688 441.599609375 433.799804688 441.599609375 505.200195312 391.200195312 c 1,54,55
 581.400390625 327.599609375 581.400390625 327.599609375 581.400390625 221.400390625 c 0,56,57
 581.400390625 153.599609375 581.400390625 153.599609375 634.200195312 99 c 1,58,59
 689.400390625 47.400390625 689.400390625 47.400390625 759.599609375 47.400390625 c 0,60,61
 826.799804688 47.400390625 826.799804688 47.400390625 880.5 99.2998046875 c 128,-1,62
 934.200195312 151.200195312 934.200195312 151.200195312 934.200195312 225.599609375 c 0,63,64
 934.200195312 267.599609375 934.200195312 267.599609375 927.599609375 281.400390625 c 1,65,66
 926.400390625 288 926.400390625 288 924.599609375 291 c 2,67,-1
 919.200195312 303 l 1,68,69
 913.799804688 316.799804688 913.799804688 316.799804688 903 331.799804688 c 1,70,71
 888.599609375 357 888.599609375 357 861 382.799804688 c 1,72,-1
 843 397.799804688 l 1,73,-1
 819 417 l 1,74,-1
 818.400390625 409.200195312 l 1,75,-1
 818.400390625 402.599609375 l 2,76,77
 818.400390625 396.599609375 818.400390625 396.599609375 817.200195312 395.400390625 c 0,78,79
 813.599609375 387.599609375 813.599609375 387.599609375 795 373.799804688 c 0,80,81
 780 362.400390625 780 362.400390625 756.599609375 362.400390625 c 0,82,83
 738 362.400390625 738 362.400390625 729.299804688 366.900390625 c 128,-1,84
 720.599609375 371.400390625 720.599609375 371.400390625 706.200195312 384 c 1,85,86
 697.200195312 394.799804688 697.200195312 394.799804688 693.599609375 404.700195312 c 128,-1,87
 690 414.599609375 690 414.599609375 690 425.400390625 c 0,88,89
 690 435.599609375 690 435.599609375 695.400390625 448.799804688 c 128,-1,90
 700.799804688 462 700.799804688 462 712.200195312 473.400390625 c 0,91,92
 715.799804688 477 715.799804688 477 744 479.400390625 c 1,93,-1
 775.799804688 483 l 1,94,-1
 790.799804688 477 l 1,95,96
 856.200195312 451.799804688 856.200195312 451.799804688 891.599609375 422.400390625 c 1,97,98
 921.599609375 399 921.599609375 399 936.599609375 369.599609375 c 0,99,100
 955.799804688 331.200195312 955.799804688 331.200195312 965.400390625 297 c 0,101,102
 970.200195312 278.400390625 970.200195312 278.400390625 972.599609375 261.900390625 c 128,-1,103
 975 245.400390625 975 245.400390625 975 225.599609375 c 0,104,105
 975 141 975 141 913.200195312 73.7998046875 c 128,-1,106
 851.400390625 6.599609375 851.400390625 6.599609375 759.599609375 6.599609375 c 0,107,108
 746.400390625 6.599609375 746.400390625 6.599609375 709.200195312 12 c 128,-1,109
 672 17.400390625 672 17.400390625 648 27 c 1,110,-1
 628.200195312 -60 l 2,111,112
 613.799804688 -124.200195312 613.799804688 -124.200195312 600 -149.400390625 c 1,113,114
 587.400390625 -182.400390625 587.400390625 -182.400390625 535.799804688 -225.599609375 c 1,115,116
 478.799804688 -274.200195312 478.799804688 -274.200195312 438.599609375 -274.200195312 c 0,117,118
 336.599609375 -274.200195312 336.599609375 -274.200195312 294 -267 c 1,119,120
 231 -254.400390625 231 -254.400390625 179.400390625 -204.599609375 c 128,-1,121
 127.799804688 -154.799804688 127.799804688 -154.799804688 111 -131.400390625 c 1,122,-1
 103.799804688 -119.400390625 l 1,123,-1
 93.599609375 -100.200195312 l 1,124,-1
 66 -40.2001953125 l 2,125,126
 58.7998046875 -24 58.7998046875 -24 53.400390625 -2.400390625 c 2,127,-1
 48.599609375 18.599609375 l 1,128,-1
 43.7998046875 44.400390625 l 1,129,130
 36.599609375 94.2001953125 36.599609375 94.2001953125 36.599609375 153 c 1,131,-1
 37.7998046875 189.599609375 l 1,132,-1
 39 226.799804688 l 1,133,-1
 40.7998046875 261 l 1,134,-1
 43.2001953125 285 l 1,135,-1
 46.7998046875 301.200195312 l 1,136,137
 57 374.400390625 57 374.400390625 70.2001953125 412.799804688 c 1,138,139
 91.7998046875 470.400390625 91.7998046875 470.400390625 113.400390625 505.200195312 c 1,140,141
 140.400390625 541.200195312 140.400390625 541.200195312 201 577.799804688 c 1,142,143
 256.799804688 610.200195312 256.799804688 610.200195312 301.799804688 615.599609375 c 1,144,-1
 327 616.200195312 l 1,145,-1
 350.400390625 616.799804688 l 1,146,-1
 408 621.599609375 l 1,147,-1
 441 623.400390625 l 1,148,-1
 473.400390625 628.200195312 l 1,149,-1
 498.599609375 632.400390625 l 2,150,151
 512.400390625 634.200195312 512.400390625 634.200195312 525 638.400390625 c 1,152,153
 598.200195312 652.799804688 598.200195312 652.799804688 629.400390625 679.200195312 c 1,154,155
 669 703.799804688 669 703.799804688 684.599609375 760.200195312 c 1,156,157
 688.200195312 780.599609375 688.200195312 780.599609375 693.599609375 797.400390625 c 0,158,159
 697.200195312 808.200195312 697.200195312 808.200195312 703.200195312 810 c 1,160,161
 706.799804688 810 706.799804688 810 711 793.200195312 c 1,162,-1
 714 775.200195312 l 1,163,-1
 715.200195312 754.799804688 l 1,164,-1
 715.200195312 739.799804688 l 1,165,-1
 714 730.799804688 l 1,166,167
 714 698.400390625 714 698.400390625 684.900390625 669.599609375 c 128,-1,168
 655.799804688 640.799804688 655.799804688 640.799804688 596.400390625 615.599609375 c 1,169,-1
 550.799804688 598.799804688 l 1,170,-1
 502.799804688 585.599609375 l 1,171,172
 451.799804688 575.400390625 451.799804688 575.400390625 411.599609375 575.400390625 c 1,173,-1
 375.599609375 576 l 1,174,-1
 345.599609375 576.599609375 l 2,175,176
 318.599609375 576.599609375 318.599609375 576.599609375 293.400390625 571.200195312 c 1,177,178
 280.200195312 569.400390625 280.200195312 569.400390625 268.200195312 563.400390625 c 1,179,-1
 255.599609375 558 l 1,180,-1
 239.400390625 550.200195312 l 2,181,182
 220.799804688 541.200195312 220.799804688 541.200195312 193.799804688 523.200195312 c 1,183,184
 180 514.799804688 180 514.799804688 163.799804688 495.599609375 c 1,185,-1
 153 480.599609375 l 1,186,-1
 141 461.400390625 l 1,187,-1
 133.200195312 445.200195312 l 1,188,-1
 116.400390625 409.799804688 l 1,189,190
 103.799804688 379.200195312 103.799804688 379.200195312 95.099609375 298.200195312 c 128,-1,191
 86.400390625 217.200195312 86.400390625 217.200195312 86.400390625 160.799804688 c 0,192,193
 86.400390625 93.599609375 86.400390625 93.599609375 93.599609375 35.400390625 c 128,-1,194
 100.799804688 -22.7998046875 100.799804688 -22.7998046875 117 -57 c 1,195,196
 149.400390625 -116.400390625 149.400390625 -116.400390625 169.799804688 -138.599609375 c 0,197,198
 193.200195312 -163.799804688 193.200195312 -163.799804688 246 -195 c 2,199,-1
 271.799804688 -210 l 1,200,-1
 292.200195312 -218.400390625 l 1,201,202
 310.799804688 -225 310.799804688 -225 331.200195312 -225 c 1,203,-1
 376.200195312 -223.200195312 l 1,204,-1
 429 -222 l 1,205,206
 498.599609375 -222 498.599609375 -222 535.799804688 -165 c 1,207,-1
 561 -117 l 1,208,-1
 577.200195312 -81 l 1,209,-1
 591 -44.400390625 l 1,210,-1
 600.599609375 -7.7998046875 l 1,211,-1
 612 45 l 1,0,1
EndSplineSet
Ligature2: "'clig' Contextual Ligatures lookup 7 subtable" uAA7A u103C
Ligature2: "'clig' Contextual Ligatures lookup 5 subtable" uAA7A u1031
MultipleSubs2: "Multiple Substitution lookup 2 subtable" guard u103C uAA7A
MultipleSubs2: "Multiple Substitution lookup 1 subtable" guard u103C.udia uAA7A
MultipleSubs2: "Multiple Substitution lookup 0 subtable" guard u1031 uAA7A
EndChar

StartChar: u1019
Encoding: 4121 4121 37
Width: 506
VWidth: 600
GlyphClass: 3
Flags: W
AnchorPoint: "Anchor-3" 272.4 416.4 basechar 0
AnchorPoint: "Anchor-2" 259.2 0 basechar 0
AnchorPoint: "Anchor-1" 259.2 0 basechar 0
AnchorPoint: "Anchor-0" 420 0 basechar 0
LayerCount: 2
Fore
SplineSet
475.799804688 212.400390625 m 1,0,1
 475.799804688 169.799804688 475.799804688 169.799804688 461.099609375 134.400390625 c 128,-1,2
 446.400390625 99 446.400390625 99 409.799804688 60.599609375 c 1,3,4
 349.799804688 -4.7998046875 349.799804688 -4.7998046875 256.799804688 -4.7998046875 c 0,5,6
 231.599609375 -4.7998046875 231.599609375 -4.7998046875 211.5 -1.2001953125 c 128,-1,7
 191.400390625 2.400390625 191.400390625 2.400390625 174 10.7998046875 c 1,8,-1
 154.799804688 18.599609375 l 1,9,-1
 137.400390625 28.2001953125 l 1,10,-1
 117.599609375 42 l 1,11,-1
 102.599609375 54 l 1,12,-1
 88.2001953125 67.7998046875 l 1,13,-1
 75 84.599609375 l 1,14,15
 64.7998046875 96.599609375 64.7998046875 96.599609375 51 124.200195312 c 1,16,-1
 36.599609375 168 l 1,17,-1
 31.2001953125 214.799804688 l 1,18,19
 31.2001953125 250.799804688 31.2001953125 250.799804688 33.599609375 267.599609375 c 1,20,-1
 35.400390625 290.400390625 l 2,21,22
 35.400390625 296.400390625 35.400390625 296.400390625 37.7998046875 303.599609375 c 2,23,-1
 42 319.799804688 l 2,24,25
 46.7998046875 336 46.7998046875 336 53.099609375 350.400390625 c 128,-1,26
 59.400390625 364.799804688 59.400390625 364.799804688 69 377.400390625 c 1,27,-1
 76.7998046875 389.400390625 l 1,28,-1
 84.599609375 399 l 1,29,-1
 97.7998046875 412.799804688 l 1,30,31
 119.400390625 429 119.400390625 429 151.200195312 429 c 0,32,33
 174 429 174 429 192 415.200195312 c 1,34,35
 215.400390625 395.400390625 215.400390625 395.400390625 215.400390625 363.599609375 c 0,36,37
 215.400390625 334.799804688 215.400390625 334.799804688 192 313.200195312 c 0,38,39
 172.799804688 295.799804688 172.799804688 295.799804688 150.599609375 295.799804688 c 1,40,-1
 138 295.200195312 l 1,41,-1
 121.200195312 295.799804688 l 1,42,-1
 111 300 l 1,43,-1
 100.799804688 308.400390625 l 1,44,-1
 91.7998046875 294 l 1,45,-1
 85.7998046875 266.400390625 l 1,46,-1
 83.400390625 253.200195312 l 1,47,-1
 82.7998046875 237.599609375 l 1,48,-1
 82.7998046875 226.200195312 l 1,49,-1
 83.400390625 214.799804688 l 1,50,-1
 83.400390625 191.400390625 l 1,51,-1
 85.7998046875 174.599609375 l 1,52,-1
 88.2001953125 161.400390625 l 2,53,54
 89.400390625 156 89.400390625 156 94.2001953125 145.799804688 c 2,55,-1
 98.400390625 136.200195312 l 1,56,57
 120.599609375 160.799804688 120.599609375 160.799804688 166.200195312 186 c 1,58,-1
 186 193.799804688 l 1,59,-1
 210 201.599609375 l 1,60,61
 231.599609375 207 231.599609375 207 255.599609375 207 c 0,62,63
 345.599609375 207 345.599609375 207 406.200195312 137.400390625 c 1,64,-1
 411 147 l 1,65,66
 426 180.599609375 426 180.599609375 426 212.400390625 c 0,67,68
 426 268.200195312 426 268.200195312 399 320.400390625 c 1,69,70
 394.200195312 331.200195312 394.200195312 331.200195312 379.200195312 349.799804688 c 1,71,-1
 352.200195312 375.599609375 l 1,72,-1
 343.200195312 384 l 1,73,-1
 339 391.799804688 l 1,74,-1
 337.799804688 405 l 1,75,-1
 338.400390625 407.400390625 l 1,76,77
 342 414.599609375 342 414.599609375 354 420.599609375 c 1,78,-1
 373.799804688 420 l 1,79,-1
 408 388.200195312 l 1,80,81
 411 387 411 387 422.400390625 370.799804688 c 1,82,-1
 441 346.200195312 l 1,83,-1
 455.400390625 317.400390625 l 1,84,-1
 467.400390625 281.400390625 l 1,85,-1
 473.400390625 246.599609375 l 1,86,-1
 475.799804688 212.400390625 l 1,0,1
382.799804688 103.799804688 m 1,87,88
 364.799804688 130.200195312 364.799804688 130.200195312 327.299804688 149.099609375 c 128,-1,89
 289.799804688 168 289.799804688 168 256.799804688 168 c 0,90,91
 213 168 213 168 178.799804688 151.200195312 c 0,92,93
 148.200195312 136.799804688 148.200195312 136.799804688 122.400390625 103.799804688 c 1,94,-1
 132 94.7998046875 l 1,95,-1
 158.400390625 74.400390625 l 1,96,-1
 176.400390625 64.2001953125 l 1,97,-1
 187.799804688 58.2001953125 l 1,98,-1
 225 49.7998046875 l 1,99,100
 244.799804688 46.2001953125 244.799804688 46.2001953125 256.799804688 46.2001953125 c 0,101,102
 291 46.2001953125 291 46.2001953125 319.799804688 58.7998046875 c 128,-1,103
 348.599609375 71.400390625 348.599609375 71.400390625 374.400390625 95.400390625 c 1,104,-1
 382.799804688 103.799804688 l 1,87,88
EndSplineSet
Ligature2: "'clig' Contextual Ligatures lookup 7 subtable" u1019 u103C
Ligature2: "'clig' Contextual Ligatures lookup 5 subtable" u1019 u1031
MultipleSubs2: "Multiple Substitution lookup 2 subtable" guard u103C.nar u1019
MultipleSubs2: "Multiple Substitution lookup 1 subtable" guard u103C.nar.udia u1019
MultipleSubs2: "Multiple Substitution lookup 0 subtable" guard u1031 u1019
EndChar

StartChar: u1000.sub
Encoding: 65539 -1 38
Width: 1
VWidth: 600
GlyphClass: 4
Flags: W
AnchorPoint: "Anchor-2" -450 0 mark 0
LayerCount: 2
Fore
SplineSet
-450 -356.400390625 m 0,0,1
 -460.799804688 -356.400390625 -460.799804688 -356.400390625 -466.200195312 -330.599609375 c 1,2,-1
 -473.400390625 -289.799804688 l 1,3,-1
 -471.599609375 -246.599609375 l 1,4,-1
 -472.200195312 -235.200195312 l 1,5,-1
 -472.799804688 -219.599609375 l 1,6,-1
 -470.400390625 -199.200195312 l 1,7,8
 -470.400390625 -139.799804688 -470.400390625 -139.799804688 -512.400390625 -97.5 c 128,-1,9
 -554.400390625 -55.2001953125 -554.400390625 -55.2001953125 -614.400390625 -55.2001953125 c 0,10,11
 -664.799804688 -55.2001953125 -664.799804688 -55.2001953125 -716.400390625 -96 c 1,12,13
 -757.799804688 -141 -757.799804688 -141 -757.799804688 -199.200195312 c 0,14,15
 -757.799804688 -235.799804688 -757.799804688 -235.799804688 -735.599609375 -282.599609375 c 1,16,17
 -714.599609375 -316.799804688 -714.599609375 -316.799804688 -673.200195312 -342.599609375 c 1,18,-1
 -631.200195312 -351.599609375 l 1,19,20
 -618.599609375 -355.200195312 -618.599609375 -355.200195312 -615.599609375 -360 c 1,21,-1
 -615 -374.400390625 l 1,22,23
 -616.200195312 -380.400390625 -616.200195312 -380.400390625 -621.599609375 -385.200195312 c 0,24,25
 -623.400390625 -387 -623.400390625 -387 -639.599609375 -388.799804688 c 2,26,-1
 -658.799804688 -390.599609375 l 1,27,-1
 -690 -383.400390625 l 1,28,29
 -738.599609375 -361.799804688 -738.599609375 -361.799804688 -771.599609375 -307.200195312 c 1,30,31
 -799.799804688 -253.799804688 -799.799804688 -253.799804688 -799.799804688 -199.200195312 c 0,32,33
 -799.799804688 -125.400390625 -799.799804688 -125.400390625 -747.599609375 -69.599609375 c 128,-1,34
 -695.400390625 -13.7998046875 -695.400390625 -13.7998046875 -614.400390625 -13.7998046875 c 0,35,36
 -593.400390625 -13.7998046875 -593.400390625 -13.7998046875 -564.599609375 -19.2001953125 c 0,37,38
 -553.799804688 -21 -553.799804688 -21 -541.200195312 -26.400390625 c 1,39,40
 -526.200195312 -31.2001953125 -526.200195312 -31.2001953125 -516 -37.7998046875 c 0,41,42
 -480 -62.400390625 -480 -62.400390625 -449.400390625 -111.599609375 c 1,43,44
 -432 -73.2001953125 -432 -73.2001953125 -381.599609375 -39.599609375 c 1,45,-1
 -335.400390625 -19.7998046875 l 1,46,-1
 -300.599609375 -13.7998046875 l 1,47,-1
 -285 -13.7998046875 l 2,48,49
 -212.400390625 -13.7998046875 -212.400390625 -13.7998046875 -155.099609375 -66 c 128,-1,50
 -97.7998046875 -118.200195312 -97.7998046875 -118.200195312 -97.7998046875 -199.200195312 c 0,51,52
 -97.7998046875 -274.799804688 -97.7998046875 -274.799804688 -151.799804688 -330.599609375 c 2,53,-1
 -186 -366 l 1,54,55
 -212.400390625 -392.400390625 -212.400390625 -392.400390625 -232.200195312 -392.400390625 c 1,56,-1
 -270 -394.200195312 l 1,57,-1
 -294.599609375 -387 l 1,58,59
 -301.799804688 -384 -301.799804688 -384 -310.200195312 -367.200195312 c 1,60,61
 -310.200195312 -355.799804688 -310.200195312 -355.799804688 -304.200195312 -347.400390625 c 1,62,-1
 -288.599609375 -345 l 1,63,-1
 -239.400390625 -351.599609375 l 1,64,65
 -225 -348 -225 -348 -206.400390625 -327.599609375 c 2,66,-1
 -181.200195312 -300.599609375 l 1,67,68
 -139.799804688 -259.200195312 -139.799804688 -259.200195312 -139.799804688 -199.200195312 c 0,69,70
 -139.799804688 -141.599609375 -139.799804688 -141.599609375 -181.799804688 -97.2001953125 c 1,71,72
 -227.400390625 -55.2001953125 -227.400390625 -55.2001953125 -285 -55.2001953125 c 0,73,74
 -306 -55.2001953125 -306 -55.2001953125 -334.799804688 -64.2001953125 c 0,75,76
 -349.799804688 -69 -349.799804688 -69 -360 -75.599609375 c 1,77,-1
 -385.799804688 -96 l 1,78,79
 -427.200195312 -141 -427.200195312 -141 -427.200195312 -199.200195312 c 1,80,-1
 -426.599609375 -229.200195312 l 1,81,-1
 -426 -251.400390625 l 1,82,-1
 -426.599609375 -269.400390625 l 1,83,-1
 -430.200195312 -291.599609375 l 1,84,-1
 -431.400390625 -301.799804688 l 1,85,-1
 -431.400390625 -311.400390625 l 1,86,-1
 -431.400390625 -322.200195312 l 1,87,-1
 -432 -340.799804688 l 1,88,89
 -435 -356.400390625 -435 -356.400390625 -450 -356.400390625 c 0,0,1
EndSplineSet
Ligature2: "'clig' Contextual Ligatures lookup 7 subtable" u1000.sub u103C
Ligature2: "'clig' Contextual Ligatures lookup 5 subtable" u1000.sub u1031
Ligature2: "'clig' Contextual Ligatures lookup 3 subtable" u1039 u1000
EndChar

StartChar: u1010.sub
Encoding: 65540 -1 39
Width: 1
VWidth: 600
GlyphClass: 4
Flags: W
AnchorPoint: "Anchor-2" -463.2 0 mark 0
LayerCount: 2
Fore
SplineSet
-483.599609375 -222 m 1,0,-1
 -484.799804688 -192.599609375 l 1,1,-1
 -486.599609375 -176.400390625 l 1,2,3
 -486.599609375 -170.400390625 -486.599609375 -170.400390625 -489.599609375 -163.799804688 c 1,4,5
 -491.400390625 -156.599609375 -491.400390625 -156.599609375 -499.200195312 -141.299804688 c 128,-1,6
 -507 -126 -507 -126 -531.599609375 -103.200195312 c 1,7,8
 -575.400390625 -68.400390625 -575.400390625 -68.400390625 -628.799804688 -68.400390625 c 0,9,10
 -687.599609375 -68.400390625 -687.599609375 -68.400390625 -729.599609375 -110.400390625 c 0,11,12
 -751.799804688 -132.599609375 -751.799804688 -132.599609375 -762.299804688 -156.900390625 c 128,-1,13
 -772.799804688 -181.200195312 -772.799804688 -181.200195312 -772.799804688 -212.400390625 c 0,14,15
 -772.799804688 -268.200195312 -772.799804688 -268.200195312 -731.099609375 -312.599609375 c 128,-1,16
 -689.400390625 -357 -689.400390625 -357 -628.799804688 -357 c 0,17,18
 -600 -357 -600 -357 -575.700195312 -347.700195312 c 128,-1,19
 -551.400390625 -338.400390625 -551.400390625 -338.400390625 -526.799804688 -318 c 1,20,21
 -483.599609375 -280.200195312 -483.599609375 -280.200195312 -483.599609375 -222 c 1,0,-1
-463.200195312 -123.599609375 m 1,22,23
 -441.599609375 -80.400390625 -441.599609375 -80.400390625 -396.299804688 -53.099609375 c 128,-1,24
 -351 -25.7998046875 -351 -25.7998046875 -299.400390625 -25.7998046875 c 0,25,26
 -219.599609375 -25.7998046875 -219.599609375 -25.7998046875 -165.599609375 -79.5 c 128,-1,27
 -111.599609375 -133.200195312 -111.599609375 -133.200195312 -111.599609375 -212.400390625 c 0,28,29
 -111.599609375 -289.799804688 -111.599609375 -289.799804688 -166.799804688 -345 c 128,-1,30
 -222 -400.200195312 -222 -400.200195312 -299.400390625 -400.200195312 c 1,31,-1
 -310.200195312 -399.599609375 l 1,32,-1
 -321 -397.799804688 l 1,33,-1
 -332.400390625 -395.400390625 l 1,34,35
 -338.400390625 -395.400390625 -338.400390625 -395.400390625 -343.5 -393.299804688 c 128,-1,36
 -348.599609375 -391.200195312 -348.599609375 -391.200195312 -355.799804688 -373.200195312 c 1,37,38
 -355.799804688 -369 -355.799804688 -369 -348.599609375 -354.599609375 c 1,39,-1
 -337.799804688 -351.599609375 l 1,40,-1
 -328.799804688 -352.200195312 l 1,41,-1
 -299.400390625 -357 l 1,42,43
 -279.599609375 -357 -279.599609375 -357 -268.200195312 -355.200195312 c 128,-1,44
 -256.799804688 -353.400390625 -256.799804688 -353.400390625 -244.799804688 -347.400390625 c 0,45,46
 -225 -338.400390625 -225 -338.400390625 -197.400390625 -314.400390625 c 1,47,48
 -154.799804688 -271.799804688 -154.799804688 -271.799804688 -154.799804688 -212.400390625 c 0,49,50
 -154.799804688 -154.200195312 -154.799804688 -154.200195312 -197.400390625 -111.599609375 c 0,51,52
 -213 -96 -213 -96 -244.200195312 -78.599609375 c 1,53,54
 -270 -68.400390625 -270 -68.400390625 -299.400390625 -68.400390625 c 0,55,56
 -352.799804688 -68.400390625 -352.799804688 -68.400390625 -393.900390625 -104.099609375 c 128,-1,57
 -435 -139.799804688 -435 -139.799804688 -442.200195312 -192.599609375 c 1,58,-1
 -441 -212.400390625 l 1,59,60
 -441 -289.799804688 -441 -289.799804688 -496.200195312 -345 c 128,-1,61
 -551.400390625 -400.200195312 -551.400390625 -400.200195312 -628.799804688 -400.200195312 c 0,62,63
 -703.200195312 -400.200195312 -703.200195312 -400.200195312 -759.299804688 -345.299804688 c 128,-1,64
 -815.400390625 -290.400390625 -815.400390625 -290.400390625 -815.400390625 -212.400390625 c 0,65,66
 -815.400390625 -135 -815.400390625 -135 -760.799804688 -80.400390625 c 128,-1,67
 -706.200195312 -25.7998046875 -706.200195312 -25.7998046875 -628.799804688 -25.7998046875 c 0,68,69
 -576.599609375 -25.7998046875 -576.599609375 -25.7998046875 -531.599609375 -52.7998046875 c 1,70,71
 -488.400390625 -77.400390625 -488.400390625 -77.400390625 -463.200195312 -123.599609375 c 1,22,23
EndSplineSet
Ligature2: "'clig' Contextual Ligatures lookup 7 subtable" u1010.sub u103C
Ligature2: "'clig' Contextual Ligatures lookup 5 subtable" u1010.sub u1031
Ligature2: "'clig' Contextual Ligatures lookup 3 subtable" u1039 u1010
EndChar

StartChar: uAA61.sub
Encoding: 65541 -1 40
Width: 0
VWidth: 600
GlyphClass: 4
Flags: W
AnchorPoint: "Anchor-2" -432 0 mark 0
LayerCount: 2
Fore
SplineSet
-396.599609375 -134.400390625 m 1,0,-1
 -379.200195312 -126 l 2,1,2
 -367.200195312 -120 -367.200195312 -120 -347.400390625 -120 c 0,3,4
 -327 -120 -327 -120 -302.400390625 -137.400390625 c 1,5,6
 -276 -159 -276 -159 -276 -187.799804688 c 0,7,8
 -276 -214.200195312 -276 -214.200195312 -299.700195312 -234.900390625 c 128,-1,9
 -323.400390625 -255.599609375 -323.400390625 -255.599609375 -346.200195312 -255.599609375 c 0,10,11
 -371.400390625 -255.599609375 -371.400390625 -255.599609375 -380.400390625 -252 c 1,12,-1
 -400.200195312 -234.599609375 l 1,13,-1
 -398.400390625 -247.799804688 l 1,14,15
 -393.599609375 -257.400390625 -393.599609375 -257.400390625 -378.599609375 -270 c 1,16,-1
 -360 -282.599609375 l 1,17,18
 -314.400390625 -321 -314.400390625 -321 -248.400390625 -321 c 0,19,20
 -216.599609375 -321 -216.599609375 -321 -170.400390625 -301.200195312 c 0,21,22
 -149.400390625 -292.799804688 -149.400390625 -292.799804688 -141.599609375 -288.599609375 c 0,23,24
 -123 -279.599609375 -123 -279.599609375 -109.200195312 -261.599609375 c 0,25,26
 -97.7998046875 -247.200195312 -97.7998046875 -247.200195312 -93.599609375 -234.900390625 c 128,-1,27
 -89.400390625 -222.599609375 -89.400390625 -222.599609375 -85.7998046875 -199.799804688 c 1,28,29
 -84 -193.200195312 -84 -193.200195312 -83.7001953125 -189.900390625 c 128,-1,30
 -83.400390625 -186.599609375 -83.400390625 -186.599609375 -83.400390625 -180 c 0,31,32
 -83.400390625 -150.599609375 -83.400390625 -150.599609375 -95.099609375 -129.599609375 c 128,-1,33
 -106.799804688 -108.599609375 -106.799804688 -108.599609375 -132.599609375 -88.2001953125 c 0,34,35
 -181.200195312 -48.599609375 -181.200195312 -48.599609375 -243 -48.599609375 c 0,36,37
 -295.200195312 -48.599609375 -295.200195312 -48.599609375 -336.599609375 -75 c 1,38,39
 -343.799804688 -78.599609375 -343.799804688 -78.599609375 -346.799804688 -81 c 128,-1,40
 -349.799804688 -83.400390625 -349.799804688 -83.400390625 -356.400390625 -90 c 2,41,-1
 -364.200195312 -97.2001953125 l 1,42,-1
 -373.799804688 -106.200195312 l 1,43,-1
 -385.799804688 -116.400390625 l 2,44,45
 -388.200195312 -118.200195312 -388.200195312 -118.200195312 -396.599609375 -134.400390625 c 1,0,-1
-441.599609375 -185.400390625 m 1,46,-1
 -442.200195312 -172.200195312 l 1,47,-1
 -445.799804688 -155.400390625 l 2,48,49
 -447.599609375 -145.200195312 -447.599609375 -145.200195312 -457.200195312 -127.799804688 c 1,50,51
 -473.400390625 -96 -473.400390625 -96 -490.799804688 -81.599609375 c 1,52,53
 -492.599609375 -78.599609375 -492.599609375 -78.599609375 -508.200195312 -70.2001953125 c 1,54,-1
 -535.200195312 -61.2001953125 l 1,55,-1
 -550.200195312 -59.400390625 l 1,56,57
 -567.599609375 -59.400390625 -567.599609375 -59.400390625 -577.799804688 -68.099609375 c 128,-1,58
 -588 -76.7998046875 -588 -76.7998046875 -592.200195312 -90.599609375 c 1,59,-1
 -596.400390625 -114 l 1,60,-1
 -597.599609375 -132 l 1,61,-1
 -599.400390625 -153 l 1,62,-1
 -605.400390625 -178.799804688 l 1,63,64
 -615 -210.599609375 -615 -210.599609375 -632.400390625 -246 c 1,65,-1
 -648.599609375 -277.200195312 l 1,66,-1
 -657.599609375 -291 l 1,67,-1
 -667.799804688 -304.200195312 l 2,68,69
 -672.599609375 -310.200195312 -672.599609375 -310.200195312 -679.799804688 -315.900390625 c 128,-1,70
 -687 -321.599609375 -687 -321.599609375 -699.599609375 -328.200195312 c 0,71,72
 -722.400390625 -340.799804688 -722.400390625 -340.799804688 -738.599609375 -340.799804688 c 0,73,74
 -748.799804688 -340.799804688 -748.799804688 -340.799804688 -759 -336 c 1,75,-1
 -769.799804688 -330 l 1,76,-1
 -784.799804688 -319.200195312 l 2,77,78
 -813.599609375 -298.200195312 -813.599609375 -298.200195312 -829.200195312 -266.400390625 c 0,79,80
 -840 -243.599609375 -840 -243.599609375 -845.400390625 -217.200195312 c 1,81,-1
 -849 -192.599609375 l 1,82,-1
 -850.799804688 -169.200195312 l 1,83,-1
 -850.799804688 -150.599609375 l 1,84,-1
 -850.799804688 -141 l 1,85,-1
 -848.400390625 -127.799804688 l 1,86,87
 -846.599609375 -113.400390625 -846.599609375 -113.400390625 -831.599609375 -100.200195312 c 1,88,-1
 -820.200195312 -93.599609375 l 1,89,-1
 -805.799804688 -91.7998046875 l 1,90,-1
 -794.400390625 -92.400390625 l 1,91,-1
 -786 -93 l 1,92,93
 -768.599609375 -93 -768.599609375 -93 -758.400390625 -104.400390625 c 1,94,95
 -748.200195312 -113.400390625 -748.200195312 -113.400390625 -748.200195312 -138 c 0,96,97
 -748.200195312 -155.400390625 -748.200195312 -155.400390625 -756 -163.200195312 c 128,-1,98
 -763.799804688 -171 -763.799804688 -171 -780 -171 c 2,99,-1
 -791.400390625 -171 l 1,100,-1
 -799.799804688 -169.200195312 l 1,101,-1
 -799.799804688 -190.799804688 l 1,102,-1
 -799.799804688 -198 l 1,103,-1
 -799.799804688 -203.400390625 l 1,104,-1
 -801 -210 l 1,105,-1
 -800.400390625 -226.799804688 l 1,106,-1
 -796.799804688 -241.200195312 l 2,107,108
 -790.799804688 -264 -790.799804688 -264 -771.599609375 -283.799804688 c 1,109,110
 -751.200195312 -302.400390625 -751.200195312 -302.400390625 -737.400390625 -302.400390625 c 0,111,112
 -720 -302.400390625 -720 -302.400390625 -686.400390625 -259.200195312 c 1,113,114
 -663 -226.200195312 -663 -226.200195312 -645.599609375 -171.599609375 c 1,115,-1
 -641.400390625 -151.200195312 l 1,116,-1
 -636.599609375 -120.599609375 l 1,117,-1
 -636 -106.799804688 l 2,118,119
 -636 -97.2001953125 -636 -97.2001953125 -633 -90.599609375 c 1,120,121
 -632.400390625 -84.599609375 -632.400390625 -84.599609375 -627 -72 c 1,122,123
 -621.599609375 -54.599609375 -621.599609375 -54.599609375 -596.700195312 -39 c 128,-1,124
 -571.799804688 -23.400390625 -571.799804688 -23.400390625 -546 -23.400390625 c 2,125,-1
 -540.599609375 -23.400390625 l 1,126,-1
 -528 -24 l 2,127,128
 -520.799804688 -24 -520.799804688 -24 -513.599609375 -26.400390625 c 2,129,-1
 -505.200195312 -28.7998046875 l 2,130,131
 -498 -31.2001953125 -498 -31.2001953125 -493.799804688 -34.2001953125 c 1,132,133
 -480 -40.2001953125 -480 -40.2001953125 -466.799804688 -53.099609375 c 128,-1,134
 -453.599609375 -66 -453.599609375 -66 -437.400390625 -91.7998046875 c 2,135,-1
 -420.599609375 -118.200195312 l 1,136,-1
 -415.200195312 -109.799804688 l 1,137,138
 -408 -94.7998046875 -408 -94.7998046875 -403.5 -86.7001953125 c 128,-1,139
 -399 -78.599609375 -399 -78.599609375 -394.799804688 -76.2001953125 c 1,140,-1
 -379.799804688 -62.400390625 l 1,141,-1
 -354 -45 l 1,142,143
 -309.599609375 -18 -309.599609375 -18 -243 -18 c 0,144,145
 -180 -18 -180 -18 -133.5 -42.599609375 c 128,-1,146
 -87 -67.2001953125 -87 -67.2001953125 -64.7998046875 -111.599609375 c 1,147,148
 -53.400390625 -129.599609375 -53.400390625 -129.599609375 -49.7998046875 -145.799804688 c 1,149,150
 -48.599609375 -154.200195312 -48.599609375 -154.200195312 -47.7001953125 -166.200195312 c 128,-1,151
 -46.7998046875 -178.200195312 -46.7998046875 -178.200195312 -46.7998046875 -183 c 0,152,153
 -46.7998046875 -198 -46.7998046875 -198 -48.900390625 -209.099609375 c 128,-1,154
 -51 -220.200195312 -51 -220.200195312 -52.5 -225.900390625 c 128,-1,155
 -54 -231.599609375 -54 -231.599609375 -57.900390625 -241.5 c 128,-1,156
 -61.7998046875 -251.400390625 -61.7998046875 -251.400390625 -70.7998046875 -266.400390625 c 1,157,-1
 -75.599609375 -273.599609375 l 1,158,-1
 -79.7998046875 -279.599609375 l 1,159,-1
 -91.2001953125 -292.200195312 l 1,160,161
 -104.400390625 -305.400390625 -104.400390625 -305.400390625 -117.599609375 -313.200195312 c 0,162,163
 -127.200195312 -318.599609375 -127.200195312 -318.599609375 -151.799804688 -329.400390625 c 0,164,165
 -196.200195312 -348 -196.200195312 -348 -234.599609375 -348 c 2,166,-1
 -241.200195312 -348 l 1,167,-1
 -279 -346.200195312 l 1,168,169
 -298.200195312 -344.400390625 -298.200195312 -344.400390625 -315 -338.400390625 c 1,170,171
 -358.799804688 -327.599609375 -358.799804688 -327.599609375 -386.400390625 -305.400390625 c 1,172,-1
 -400.200195312 -293.400390625 l 1,173,-1
 -411.599609375 -280.799804688 l 1,174,-1
 -427.200195312 -264 l 1,175,176
 -427.200195312 -254.400390625 -427.200195312 -254.400390625 -428.400390625 -251.400390625 c 1,177,178
 -428.400390625 -247.200195312 -428.400390625 -247.200195312 -431.400390625 -242.400390625 c 1,179,-1
 -435 -223.799804688 l 1,180,-1
 -441.599609375 -185.400390625 l 1,46,-1
EndSplineSet
Ligature2: "'clig' Contextual Ligatures lookup 7 subtable" uAA61.sub u103C
Ligature2: "'clig' Contextual Ligatures lookup 5 subtable" uAA61.sub u1031
Ligature2: "'clig' Contextual Ligatures lookup 3 subtable" u1039 uAA61
EndChar

StartChar: u1015.sub
Encoding: 65542 -1 41
Width: 1
VWidth: 600
GlyphClass: 4
Flags: W
AnchorPoint: "Anchor-2" -268.8 0 mark 0
LayerCount: 2
Fore
SplineSet
-361.799804688 -84.599609375 m 2,0,-1
 -379.799804688 -103.200195312 l 1,1,-1
 -398.400390625 -131.400390625 l 1,2,-1
 -413.400390625 -164.400390625 l 1,3,-1
 -418.200195312 -199.200195312 l 1,4,5
 -418.200195312 -256.799804688 -418.200195312 -256.799804688 -376.200195312 -301.200195312 c 0,6,7
 -358.200195312 -321 -358.200195312 -321 -332.700195312 -331.799804688 c 128,-1,8
 -307.200195312 -342.599609375 -307.200195312 -342.599609375 -274.200195312 -342.599609375 c 0,9,10
 -214.799804688 -342.599609375 -214.799804688 -342.599609375 -172.200195312 -300.900390625 c 128,-1,11
 -129.599609375 -259.200195312 -129.599609375 -259.200195312 -129.599609375 -199.200195312 c 0,12,13
 -129.599609375 -177 -129.599609375 -177 -144 -133.799804688 c 1,14,15
 -156 -111.599609375 -156 -111.599609375 -188.400390625 -84.599609375 c 1,16,-1
 -195.599609375 -69 l 1,17,18
 -195.599609375 -65.400390625 -195.599609375 -65.400390625 -192 -60 c 1,19,20
 -192 -56.400390625 -192 -56.400390625 -184.799804688 -49.2001953125 c 1,21,-1
 -163.799804688 -48 l 1,22,-1
 -147.599609375 -60 l 1,23,-1
 -133.200195312 -76.2001953125 l 1,24,-1
 -107.400390625 -112.799804688 l 1,25,-1
 -91.2001953125 -158.400390625 l 1,26,-1
 -87.599609375 -199.200195312 l 1,27,28
 -87.599609375 -238.799804688 -87.599609375 -238.799804688 -99.900390625 -269.700195312 c 128,-1,29
 -112.200195312 -300.599609375 -112.200195312 -300.599609375 -141.599609375 -331.799804688 c 1,30,31
 -156 -344.400390625 -156 -344.400390625 -200.400390625 -370.799804688 c 1,32,33
 -218.400390625 -377.400390625 -218.400390625 -377.400390625 -237.599609375 -381.599609375 c 0,34,35
 -248.400390625 -383.400390625 -248.400390625 -383.400390625 -256.799804688 -384.599609375 c 128,-1,36
 -265.200195312 -385.799804688 -265.200195312 -385.799804688 -274.200195312 -385.799804688 c 0,37,38
 -348 -385.799804688 -348 -385.799804688 -405.599609375 -331.799804688 c 1,39,40
 -427.200195312 -310.200195312 -427.200195312 -310.200195312 -444 -273 c 1,41,-1
 -450 -256.200195312 l 1,42,-1
 -455.400390625 -237 l 1,43,-1
 -459 -216.599609375 l 1,44,-1
 -460.200195312 -199.200195312 l 1,45,-1
 -456 -157.200195312 l 1,46,-1
 -455.400390625 -147.599609375 l 1,47,-1
 -454.200195312 -144 l 1,48,-1
 -451.200195312 -138.599609375 l 1,49,-1
 -442.799804688 -119.400390625 l 1,50,51
 -432 -86.400390625 -432 -86.400390625 -394.799804688 -56.400390625 c 1,52,-1
 -375 -48 l 1,53,54
 -357 -48 -357 -48 -357 -72.599609375 c 0,55,56
 -357 -79.7998046875 -357 -79.7998046875 -361.799804688 -84.599609375 c 2,0,-1
EndSplineSet
Ligature2: "'clig' Contextual Ligatures lookup 7 subtable" u1015.sub u103C
Ligature2: "'clig' Contextual Ligatures lookup 5 subtable" u1015.sub u1031
Ligature2: "'clig' Contextual Ligatures lookup 3 subtable" u1039 u1015
EndChar

StartChar: u101C.sub
Encoding: 65543 -1 42
Width: 3
VWidth: 600
GlyphClass: 4
Flags: W
AnchorPoint: "Anchor-2" -446.4 0 mark 0
LayerCount: 2
Fore
SplineSet
-220.799804688 -67.2001953125 m 1,0,-1
 -216 -83.400390625 l 1,1,2
 -216 -88.7998046875 -216 -88.7998046875 -218.400390625 -93.599609375 c 1,3,4
 -220.200195312 -99.599609375 -220.200195312 -99.599609375 -227.400390625 -109.200195312 c 128,-1,5
 -234.599609375 -118.799804688 -234.599609375 -118.799804688 -247.799804688 -125.400390625 c 0,6,7
 -257.400390625 -130.200195312 -257.400390625 -130.200195312 -264.599609375 -131.700195312 c 128,-1,8
 -271.799804688 -133.200195312 -271.799804688 -133.200195312 -279 -133.200195312 c 0,9,10
 -292.200195312 -133.200195312 -292.200195312 -133.200195312 -306.900390625 -126 c 128,-1,11
 -321.599609375 -118.799804688 -321.599609375 -118.799804688 -328.799804688 -105.599609375 c 2,12,-1
 -333.599609375 -96.599609375 l 1,13,-1
 -336 -80.400390625 l 1,14,-1
 -334.200195312 -66.599609375 l 2,15,16
 -333.599609375 -59.400390625 -333.599609375 -59.400390625 -328.799804688 -54 c 1,17,18
 -325.799804688 -49.2001953125 -325.799804688 -49.2001953125 -306.599609375 -40.2001953125 c 2,19,-1
 -278.400390625 -27.599609375 l 1,20,-1
 -264 -28.2001953125 l 1,21,22
 -189.599609375 -28.2001953125 -189.599609375 -28.2001953125 -128.700195312 -80.099609375 c 128,-1,23
 -67.7998046875 -132 -67.7998046875 -132 -67.7998046875 -210 c 0,24,25
 -67.7998046875 -281.400390625 -67.7998046875 -281.400390625 -123 -337.5 c 128,-1,26
 -178.200195312 -393.599609375 -178.200195312 -393.599609375 -261.599609375 -393.599609375 c 0,27,28
 -329.400390625 -393.599609375 -329.400390625 -393.599609375 -387.599609375 -349.799804688 c 0,29,30
 -418.799804688 -326.400390625 -418.799804688 -326.400390625 -437.400390625 -291.900390625 c 128,-1,31
 -456 -257.400390625 -456 -257.400390625 -456 -217.200195312 c 0,32,33
 -456 -153.599609375 -456 -153.599609375 -503.400390625 -108 c 128,-1,34
 -550.799804688 -62.400390625 -550.799804688 -62.400390625 -617.400390625 -62.400390625 c 0,35,36
 -679.799804688 -62.400390625 -679.799804688 -62.400390625 -727.200195312 -106.5 c 128,-1,37
 -774.599609375 -150.599609375 -774.599609375 -150.599609375 -774.599609375 -213.599609375 c 0,38,39
 -774.599609375 -240.599609375 -774.599609375 -240.599609375 -765 -267.599609375 c 1,40,41
 -755.400390625 -291.599609375 -755.400390625 -291.599609375 -728.400390625 -316.200195312 c 1,42,43
 -719.400390625 -322.799804688 -719.400390625 -322.799804688 -689.400390625 -339.599609375 c 1,44,45
 -670.799804688 -346.200195312 -670.799804688 -346.200195312 -644.400390625 -350.400390625 c 1,46,47
 -644.400390625 -328.799804688 -644.400390625 -328.799804688 -633.599609375 -314.400390625 c 1,48,49
 -627 -303.599609375 -627 -303.599609375 -615 -295.200195312 c 1,50,51
 -603 -288.599609375 -603 -288.599609375 -585.599609375 -288.599609375 c 0,52,53
 -572.400390625 -288.599609375 -572.400390625 -288.599609375 -559.799804688 -294 c 1,54,-1
 -539.400390625 -315 l 1,55,-1
 -534 -328.799804688 l 1,56,-1
 -532.200195312 -342 l 1,57,58
 -532.200195312 -358.200195312 -532.200195312 -358.200195312 -539.400390625 -369.900390625 c 128,-1,59
 -546.599609375 -381.599609375 -546.599609375 -381.599609375 -555.599609375 -387.599609375 c 1,60,-1
 -565.200195312 -392.400390625 l 1,61,-1
 -577.200195312 -396 l 1,62,-1
 -584.400390625 -397.799804688 l 1,63,-1
 -594.599609375 -399 l 1,64,-1
 -609.599609375 -397.799804688 l 1,65,-1
 -619.799804688 -395.400390625 l 1,66,-1
 -636.599609375 -394.799804688 l 2,67,68
 -647.400390625 -394.799804688 -647.400390625 -394.799804688 -652.799804688 -393 c 1,69,-1
 -674.400390625 -389.400390625 l 1,70,-1
 -690.599609375 -382.200195312 l 2,71,72
 -696.599609375 -379.799804688 -696.599609375 -379.799804688 -703.5 -376.5 c 128,-1,73
 -710.400390625 -373.200195312 -710.400390625 -373.200195312 -723 -366 c 1,74,-1
 -738 -355.200195312 l 1,75,-1
 -753.599609375 -342 l 1,76,77
 -812.400390625 -290.400390625 -812.400390625 -290.400390625 -812.400390625 -213.599609375 c 0,78,79
 -812.400390625 -147.599609375 -812.400390625 -147.599609375 -755.400390625 -87.900390625 c 128,-1,80
 -698.400390625 -28.2001953125 -698.400390625 -28.2001953125 -617.400390625 -28.2001953125 c 0,81,82
 -585 -28.2001953125 -585 -28.2001953125 -554.099609375 -38.400390625 c 128,-1,83
 -523.200195312 -48.599609375 -523.200195312 -48.599609375 -490.799804688 -70.7998046875 c 1,84,85
 -421.799804688 -123.599609375 -421.799804688 -123.599609375 -421.799804688 -213.599609375 c 0,86,87
 -421.799804688 -270.599609375 -421.799804688 -270.599609375 -374.400390625 -316.200195312 c 1,88,89
 -349.799804688 -337.200195312 -349.799804688 -337.200195312 -321.599609375 -348.599609375 c 128,-1,90
 -293.400390625 -360 -293.400390625 -360 -261.599609375 -360 c 0,91,92
 -202.200195312 -360 -202.200195312 -360 -153.299804688 -315.900390625 c 128,-1,93
 -104.400390625 -271.799804688 -104.400390625 -271.799804688 -104.400390625 -210 c 256,94,95
 -104.400390625 -148.200195312 -104.400390625 -148.200195312 -153 -107.400390625 c 1,96,97
 -165 -94.2001953125 -165 -94.2001953125 -184.200195312 -84 c 1,98,99
 -200.400390625 -73.7998046875 -200.400390625 -73.7998046875 -220.799804688 -67.2001953125 c 1,0,-1
EndSplineSet
Ligature2: "'clig' Contextual Ligatures lookup 7 subtable" u101C.sub u103C
Ligature2: "'clig' Contextual Ligatures lookup 5 subtable" u101C.sub u1031
Ligature2: "'clig' Contextual Ligatures lookup 3 subtable" u1039 u101C
EndChar

StartChar: u101A.sub
Encoding: 65544 -1 43
Width: 4
VWidth: 600
GlyphClass: 4
Flags: W
AnchorPoint: "Anchor-2" -470.4 0 mark 0
LayerCount: 2
Fore
SplineSet
-186.599609375 -15.599609375 m 1,0,1
 -191.400390625 -14.400390625 -191.400390625 -14.400390625 -201.599609375 -12.599609375 c 128,-1,2
 -211.799804688 -10.7998046875 -211.799804688 -10.7998046875 -219.599609375 -10.7998046875 c 0,3,4
 -237.599609375 -10.7998046875 -237.599609375 -10.7998046875 -255.599609375 -25.2001953125 c 1,5,6
 -276 -40.2001953125 -276 -40.2001953125 -276 -64.2001953125 c 0,7,8
 -276 -90.599609375 -276 -90.599609375 -255.599609375 -104.400390625 c 0,9,10
 -238.799804688 -116.400390625 -238.799804688 -116.400390625 -219.599609375 -116.400390625 c 1,11,-1
 -203.400390625 -114.599609375 l 2,12,13
 -196.200195312 -114 -196.200195312 -114 -189.599609375 -109.200195312 c 1,14,15
 -182.400390625 -106.200195312 -182.400390625 -106.200195312 -166.200195312 -88.7998046875 c 1,16,17
 -159.599609375 -98.400390625 -159.599609375 -98.400390625 -155.099609375 -108.900390625 c 128,-1,18
 -150.599609375 -119.400390625 -150.599609375 -119.400390625 -146.400390625 -132 c 1,19,-1
 -142.200195312 -150.599609375 l 1,20,-1
 -142.200195312 -183 l 2,21,22
 -142.200195312 -241.200195312 -142.200195312 -241.200195312 -190.200195312 -283.799804688 c 128,-1,23
 -238.200195312 -326.400390625 -238.200195312 -326.400390625 -299.400390625 -326.400390625 c 0,24,25
 -327.599609375 -326.400390625 -327.599609375 -326.400390625 -352.799804688 -318 c 1,26,-1
 -378 -306 l 1,27,-1
 -407.400390625 -289.200195312 l 1,28,29
 -440.400390625 -267 -440.400390625 -267 -453 -194.400390625 c 0,30,31
 -456 -176.400390625 -456 -176.400390625 -457.799804688 -149.700195312 c 128,-1,32
 -459.599609375 -123 -459.599609375 -123 -459.599609375 -90 c 1,33,-1
 -478.200195312 -90 l 1,34,-1
 -476.400390625 -90.599609375 l 1,35,-1
 -481.799804688 -91.7998046875 l 1,36,-1
 -483.599609375 -145.799804688 l 1,37,-1
 -484.200195312 -163.200195312 l 1,38,-1
 -489 -190.799804688 l 2,39,40
 -501.599609375 -261.599609375 -501.599609375 -261.599609375 -538.799804688 -289.200195312 c 0,41,42
 -561 -306 -561 -306 -589.799804688 -320.400390625 c 1,43,-1
 -620.400390625 -328.799804688 l 1,44,-1
 -648.599609375 -332.400390625 l 1,45,46
 -706.200195312 -332.400390625 -706.200195312 -332.400390625 -758.400390625 -290.400390625 c 1,47,48
 -780.599609375 -270 -780.599609375 -270 -794.400390625 -244.200195312 c 1,49,-1
 -802.200195312 -219 l 1,50,51
 -805.799804688 -203.400390625 -805.799804688 -203.400390625 -805.799804688 -188.400390625 c 2,52,-1
 -805.799804688 -156.599609375 l 1,53,-1
 -801.599609375 -138 l 1,54,-1
 -793.799804688 -120 l 1,55,-1
 -780 -102 l 1,56,-1
 -757.200195312 -115.200195312 l 2,57,58
 -751.200195312 -118.200195312 -751.200195312 -118.200195312 -746.099609375 -119.700195312 c 128,-1,59
 -741 -121.200195312 -741 -121.200195312 -735 -121.799804688 c 1,60,61
 -720.599609375 -121.799804688 -720.599609375 -121.799804688 -698.400390625 -110.400390625 c 1,62,63
 -678 -95.400390625 -678 -95.400390625 -678 -70.2001953125 c 0,64,65
 -678 -47.400390625 -678 -47.400390625 -698.400390625 -30.599609375 c 1,66,67
 -707.400390625 -24 -707.400390625 -24 -716.400390625 -20.400390625 c 1,68,-1
 -725.400390625 -18.599609375 l 1,69,-1
 -735 -16.7998046875 l 1,70,71
 -759.599609375 -16.7998046875 -759.599609375 -16.7998046875 -767.400390625 -21 c 1,72,-1
 -786.599609375 -37.2001953125 l 1,73,74
 -791.400390625 -40.2001953125 -791.400390625 -40.2001953125 -801 -54 c 2,75,-1
 -812.400390625 -70.7998046875 l 1,76,77
 -825 -87.599609375 -825 -87.599609375 -835.799804688 -126.599609375 c 1,78,-1
 -841.799804688 -158.400390625 l 1,79,-1
 -843.599609375 -188.400390625 l 1,80,81
 -843.599609375 -252.599609375 -843.599609375 -252.599609375 -786.900390625 -308.700195312 c 128,-1,82
 -730.200195312 -364.799804688 -730.200195312 -364.799804688 -648.599609375 -364.799804688 c 0,83,84
 -596.400390625 -364.799804688 -596.400390625 -364.799804688 -549.299804688 -338.400390625 c 128,-1,85
 -502.200195312 -312 -502.200195312 -312 -470.400390625 -264.599609375 c 1,86,-1
 -465.599609375 -277.200195312 l 2,87,88
 -464.400390625 -279 -464.400390625 -279 -460.200195312 -284.400390625 c 0,89,90
 -457.799804688 -288 -457.799804688 -288 -430.200195312 -312 c 1,91,-1
 -402 -335.400390625 l 1,92,-1
 -349.200195312 -352.799804688 l 1,93,-1
 -324 -356.400390625 l 2,94,95
 -309.599609375 -358.799804688 -309.599609375 -358.799804688 -299.400390625 -358.799804688 c 0,96,97
 -221.400390625 -358.799804688 -221.400390625 -358.799804688 -163.200195312 -303.900390625 c 128,-1,98
 -105 -249 -105 -249 -105 -183 c 1,99,-1
 -107.400390625 -152.400390625 l 1,100,-1
 -112.799804688 -121.200195312 l 1,101,102
 -121.799804688 -85.2001953125 -121.799804688 -85.2001953125 -135.599609375 -64.7998046875 c 1,103,104
 -154.799804688 -39 -154.799804688 -39 -166.799804688 -31.7998046875 c 1,105,-1
 -186.599609375 -15.599609375 l 1,0,1
EndSplineSet
Ligature2: "'clig' Contextual Ligatures lookup 7 subtable" u101A.sub u103C
Ligature2: "'clig' Contextual Ligatures lookup 5 subtable" u101A.sub u1031
Ligature2: "'clig' Contextual Ligatures lookup 3 subtable" u1039 u101A
EndChar

